<svg width="125" height="125" viewBox="0 0 125 125" fill="none" xmlns="http://www.w3.org/2000/svg">
<path d="M110.352 9.76562H104.492V0H94.7266V9.76562H30.2734V0H20.5078V9.76562H14.6484C6.57129 9.76562 0 16.3369 0 24.4141V110.352C0 118.429 6.57129 125 14.6484 125H110.352C118.429 125 125 118.429 125 110.352V24.4141C125 16.3369 118.429 9.76562 110.352 9.76562ZM115.234 110.352C115.234 113.044 113.044 115.234 110.352 115.234H14.6484C11.9561 115.234 9.76562 113.044 9.76562 110.352V45.8984H115.234V110.352ZM115.234 36.1328H9.76562V24.4141C9.76562 21.7217 11.9561 19.5312 14.6484 19.5312H20.5078V29.2969H30.2734V19.5312H94.7266V29.2969H104.492V19.5312H110.352C113.044 19.5312 115.234 21.7217 115.234 24.4141V36.1328Z" fill="#141C64"/>
<path d="M28.3203 56.1523H18.5547V65.918H28.3203V56.1523Z" fill="#141C64"/>
<path d="M47.8516 56.1523H38.0859V65.918H47.8516V56.1523Z" fill="#141C64"/>
<path d="M67.3828 56.1523H57.6172V65.918H67.3828V56.1523Z" fill="#141C64"/>
<path d="M86.9141 56.1523H77.1484V65.918H86.9141V56.1523Z" fill="#141C64"/>
<path d="M106.445 56.1523H96.6797V65.918H106.445V56.1523Z" fill="#141C64"/>
<path d="M28.3203 75.6836H18.5547V85.4492H28.3203V75.6836Z" fill="#141C64"/>
<path d="M47.8516 75.6836H38.0859V85.4492H47.8516V75.6836Z" fill="#141C64"/>
<path d="M67.3828 75.6836H57.6172V85.4492H67.3828V75.6836Z" fill="#141C64"/>
<path d="M86.9141 75.6836H77.1484V85.4492H86.9141V75.6836Z" fill="#141C64"/>
<path d="M28.3203 95.2148H18.5547V104.98H28.3203V95.2148Z" fill="#141C64"/>
<path d="M47.8516 95.2148H38.0859V104.98H47.8516V95.2148Z" fill="#141C64"/>
<path d="M67.3828 95.2148H57.6172V104.98H67.3828V95.2148Z" fill="#141C64"/>
<path d="M86.9141 95.2148H77.1484V104.98H86.9141V95.2148Z" fill="#141C64"/>
<path d="M106.445 75.6836H96.6797V85.4492H106.445V75.6836Z" fill="#141C64"/>
</svg>
