<svg width="100" height="70" viewBox="0 0 100 70" fill="none" xmlns="http://www.w3.org/2000/svg">
<path d="M32.4024 0.429684C30.0391 0.722652 27.7735 2.38281 26.7774 4.53125C26.3282 5.46875 26.2696 5.91796 26.211 7.98828L26.1329 10.3711L14.7852 10.4297L3.41805 10.4883L2.48055 11.0352C1.42586 11.6602 0.488358 12.832 0.195389 13.9062C0.0586706 14.375 0.0196081 22.3242 0.0391394 36.3867L0.0977331 58.125L8.18367 41.7187C12.6368 32.7148 16.5626 24.8828 16.8946 24.3555C18.3009 22.1484 21.0938 20.0586 23.9649 19.043L25.4884 18.4961L52.2071 18.4375L78.9063 18.3984V16.2305C78.9063 13.1445 78.2423 11.875 76.0743 10.8594L75.0977 10.3906H64.0431H52.9884L52.8907 8.18359C52.8126 6.58203 52.6759 5.70312 52.3634 4.88281C51.4454 2.51953 49.1017 0.781246 46.3673 0.410152C44.7852 0.21484 33.9845 0.21484 32.4024 0.429684ZM46.8165 5.50781C47.7735 6.07421 48.047 6.79687 48.047 8.73046V10.3906H39.4532H30.8595V9.04296C30.8595 8.30078 30.9181 7.42187 30.9766 7.08984C31.1329 6.36718 32.0313 5.37109 32.6759 5.2539C32.9102 5.21484 36.0548 5.15625 39.6485 5.13671C45.8204 5.11718 46.2306 5.13671 46.8165 5.50781Z" fill="white"/>
<path d="M25.4884 23.5939C24.0431 24.0236 21.9142 25.547 21.1525 26.6994C20.8009 27.2463 16.2696 36.2502 11.0939 46.7189C0.996202 67.1681 1.11339 66.9337 1.85558 68.3205C2.05089 68.672 2.51964 69.1212 2.91026 69.3166C3.57433 69.6486 5.33214 69.6681 38.2814 69.7267C61.1329 69.7658 73.4767 69.7072 74.4728 69.59C76.5626 69.297 77.9493 68.6134 79.4923 67.0509L80.7618 65.7619L90.2931 46.3673C95.9181 34.9611 99.8829 26.6798 99.9415 26.2306C100.098 25.1173 99.5509 24.1017 98.5548 23.6525C97.7931 23.3009 96.3868 23.2814 62.1095 23.3009C31.1525 23.3205 26.3282 23.3595 25.4884 23.5939Z" fill="white"/>
</svg>
