<svg width="1686" height="150" viewBox="0 0 1686 150" fill="none" xmlns="http://www.w3.org/2000/svg">
<path d="M924.466 71.1414L889.778 34.3912C887.646 32.1301 884.087 32.0269 881.826 34.1606C879.569 36.2926 879.464 39.8531 881.597 42.1125L912.642 75.0001L881.597 107.892C879.464 110.151 879.569 113.71 881.826 115.843C882.914 116.869 884.303 117.377 885.687 117.377C887.181 117.377 888.674 116.785 889.778 115.616L924.466 78.8644C926.511 76.6953 926.511 73.3088 924.466 71.1414Z" fill="#A1A1A2"/>
<path d="M820.404 107.89L789.362 75.0001L820.404 42.1106C822.536 39.8513 822.433 36.2905 820.174 34.1588C817.916 32.0269 814.354 32.13 812.222 34.3894L777.534 71.1396C775.489 73.307 775.489 76.6952 777.534 78.8629L812.224 115.615C813.33 116.787 814.821 117.377 816.315 117.377C817.699 117.377 819.088 116.867 820.174 115.842C822.435 113.71 822.536 110.149 820.404 107.89Z" fill="#A1A1A2"/>
<path d="M860.1 15.4388C857.031 14.9738 854.158 17.0812 853.69 20.1506L837.19 128.151C836.721 131.222 838.83 134.093 841.901 134.562C842.19 134.605 842.475 134.626 842.758 134.626C845.49 134.626 847.886 132.633 848.312 129.85L864.812 21.8496C865.281 18.7781 863.172 15.9075 860.1 15.4388Z" fill="#A1A1A2"/>
<line x1="643" y1="80" y2="80" stroke="#A1A1A2" stroke-width="10"/>
<line x1="1686" y1="80" x2="1043" y2="80" stroke="#A1A1A2" stroke-width="10"/>
</svg>
