<svg width="60" height="50" viewBox="0 0 60 50" fill="none" xmlns="http://www.w3.org/2000/svg">
<path d="M54.7266 0H5.27344C2.3693 0 0 2.58923 0 5.76923V44.2308C0 47.4 2.35875 50 5.27344 50H54.7266C57.6234 50 60 47.4195 60 44.2308V5.76923C60 2.6 57.6412 0 54.7266 0ZM53.9984 3.84615L30.1118 29.9786L6.01863 3.84615H53.9984ZM3.51562 43.4344V6.54731L20.4468 24.9114L3.51562 43.4344ZM6.00152 46.1538L22.9433 27.6192L28.8797 34.058C29.5669 34.8033 30.6758 34.8009 31.3602 34.0521L37.1484 27.7196L53.9985 46.1538H6.00152ZM56.4844 43.4342L39.6343 25L56.4844 6.56564V43.4342Z" fill="white"/>
</svg>
