<svg width="125" height="125" viewBox="0 0 125 125" fill="none" xmlns="http://www.w3.org/2000/svg">
<path d="M15.9105 0.967756C12.8609 3.27699 10.8814 13.5797 12.2724 19.9301C12.8074 22.3281 12.8074 22.3281 10.3464 25.2591C5.21022 31.4762 4.08669 35.0289 4.14019 44.399C4.24719 52.6146 5.42423 57.7659 8.52731 63.2281C12.2724 69.9338 17.7831 74.5522 26.0223 77.9273C30.5164 79.7924 39.0767 82.146 41.3237 82.146C42.8753 82.146 42.9288 82.8122 41.4842 85.4322C40.2537 87.6527 39.8792 87.9635 37.8996 88.4076C35.2245 88.9849 29.7139 88.7185 27.6273 87.8747C26.7713 87.5194 24.7918 85.9651 23.1867 84.3665C18.1576 79.3927 15.0545 76.9059 12.5934 75.9289C8.47381 74.2414 1.41162 74.9075 0.395088 77.0391C-0.460936 78.9042 0.074079 80.5029 2.00013 81.8796C8.68782 86.7201 9.06233 87.1198 11.4699 91.1609C16.5525 99.8649 23.3472 103.462 34.6895 103.462H39.0767L39.2372 108.835C39.3442 111.766 39.2372 114.52 39.0231 114.964C38.8626 115.408 37.4716 116.474 36.0271 117.362C31.6934 120.026 30.9979 123.179 34.422 124.378C35.8666 124.867 41.8052 125 65.6134 125C97.2862 125 98.1958 124.956 98.8378 122.735C99.3193 121.092 98.6238 120.026 95.3602 117.673L92.2036 115.408L91.9361 102.885C91.6686 90.2727 91.3476 88.0079 89.4215 84.6773C88.084 82.4569 88.084 82.146 89.368 82.146C89.903 82.146 92.7386 81.6575 95.6277 81.0358C111.571 77.6608 120.452 70.3779 123.769 57.9435C124.732 54.2577 124.947 52.0817 125 45.2872C125 37.871 124.893 36.7608 123.769 33.741C122.164 29.6555 120.078 26.1028 117.456 23.2607L115.423 21.0847L115.584 14.6455C115.691 9.09447 115.53 7.80663 114.567 5.14213C113.925 3.45462 112.802 1.58947 112.053 1.01216C110.822 -0.0536337 110.448 -0.0980419 106.649 0.0795911C102.048 0.301632 96.4837 2.03355 89.475 5.31976L85.4624 7.22932L81.1823 6.69642C70.482 5.36417 53.5755 5.67503 46.0318 7.31814L43.1963 7.93985L38.9161 5.80826C28.8579 0.790123 18.9601 -1.29706 15.9105 0.967756ZM26.7713 6.78524C28.6439 7.31814 32.175 8.69479 34.529 9.89381C36.9366 11.0928 39.6117 12.4695 40.5747 12.958C42.2332 13.8017 42.2867 13.8017 45.7643 12.9136C53.5755 10.9152 71.8195 10.5599 81.9313 12.2475L86.479 13.0024L90.6521 10.8708C95.9487 8.2063 102.583 5.85266 105.632 5.4974L108.094 5.18654L108.736 7.1405C109.164 8.47275 109.271 11.2261 109.057 15.8445L108.736 22.5502L111.411 25.5255C117.403 32.0979 119.168 37.2493 118.687 47.2412C118.205 58.1212 115.744 64.2939 110.02 69.0456C104.99 73.1756 96.3767 76.0621 85.0879 77.2611C79.1493 77.9273 77.6512 78.549 77.6512 80.3697C77.6512 81.3467 78.1862 82.0128 80.0053 83.2562C84.7669 86.4536 85.6764 90.2283 85.6764 106.349C85.6764 116.562 85.6764 116.562 87.014 118.25L88.405 119.893H65.6134H42.8753L44.2663 118.161C45.6038 116.429 45.6038 116.34 45.5503 107.858C45.5503 100.798 45.3898 99.11 44.6943 98.5771C44.0523 98.0442 42.3402 97.911 36.0271 97.911C28.8579 97.911 27.9483 97.8222 25.6478 96.8896C22.2237 95.4685 19.7626 93.1149 17.1945 88.7185C15.964 86.7201 14.7335 84.7661 14.4125 84.3665C13.7705 83.5671 15.643 85.299 19.4951 88.9849C23.5612 92.8928 26.5573 93.9142 33.78 93.8698C37.6856 93.8254 40.1467 93.6034 41.8052 93.0705C44.6408 92.1823 46.6204 90.7612 46.6204 89.6066C46.6204 88.23 48.7604 85.2102 51.0075 83.3451C52.7195 81.9684 53.094 81.3467 52.9335 80.2365C52.7195 78.4157 51.5425 77.9717 44.3733 77.0391C22.2237 74.2414 11.6839 64.738 10.4534 46.3974C9.86485 37.6934 11.5769 32.542 16.9805 26.8134L19.4416 24.1933L19.0136 21.5288C18.2646 17.3544 18.4251 8.87242 19.2811 6.96287C20.0836 5.05332 20.2441 5.00891 26.7713 6.78524Z" fill="#141C64"/>
</svg>
