<svg width="100" height="100" viewBox="0 0 100 100" fill="none" xmlns="http://www.w3.org/2000/svg">
<path d="M98.0469 57.3471H87.6869V6.37268C87.6869 2.85885 85.1228 0 81.9711 0H5.71016C2.56152 0 0 2.85885 0 6.37268V76.7439C0 80.2613 2.56152 83.1227 5.71016 83.1227H17.9541V97.8202C17.9541 99.024 18.8285 99.9999 19.9072 99.9999H28.7016C29.7803 99.9999 30.6547 99.024 30.6547 97.8202C30.6547 96.6164 29.7803 95.6405 28.7016 95.6405H21.8604V61.7065H96.0938V95.6405H46.2623C45.1836 95.6405 44.3092 96.6164 44.3092 97.8202C44.3092 99.024 45.1836 99.9999 46.2623 99.9999H98.0469C99.1256 99.9999 100 99.024 100 97.8202V59.5268C100 58.3232 99.1256 57.3471 98.0469 57.3471ZM5.71016 4.35932H81.9711C82.9688 4.35932 83.7807 5.26258 83.7807 6.37268V20.0126H3.90625V6.37268C3.90625 5.26236 4.71562 4.35932 5.71016 4.35932ZM19.9072 57.3471C18.8285 57.3471 17.9541 58.323 17.9541 59.5268V78.7634H5.71016C4.71543 78.7634 3.90625 77.8575 3.90625 76.7439V24.3717H83.7807V57.3471H19.9072Z" fill="#FFFFFF"/>
<path d="M66.2779 14.3652C67.3567 14.3652 68.2311 13.3893 68.2311 12.1855C68.2311 10.9817 67.3567 10.0059 66.2779 10.0059H66.2668C65.1881 10.0059 64.3192 10.9817 64.3192 12.1855C64.3192 13.3893 65.1992 14.3652 66.2779 14.3652Z" fill="#FFFFFF"/>
<path d="M75.4656 14.3652C76.5443 14.3652 77.4188 13.3893 77.4188 12.1855C77.4188 10.9817 76.5443 10.0059 75.4656 10.0059H75.4602C74.3814 10.0059 73.5098 10.9817 73.5098 12.1855C73.5098 13.3893 74.3869 14.3652 75.4656 14.3652Z" fill="#FFFFFF"/>
<path d="M57.0903 14.3652C58.169 14.3652 59.0434 13.3893 59.0434 12.1855C59.0434 10.9817 58.169 10.0059 57.0903 10.0059H57.0791C56.0004 10.0059 55.1317 10.9817 55.1317 12.1855C55.1317 13.3893 56.0115 14.3652 57.0903 14.3652Z" fill="#FFFFFF"/>
<path d="M12.2158 14.3652H37.8006C38.8793 14.3652 39.7537 13.3893 39.7537 12.1855C39.7537 10.9817 38.8793 10.0059 37.8006 10.0059H12.2158C11.1371 10.0059 10.2627 10.9817 10.2627 12.1855C10.2627 13.3893 11.1371 14.3652 12.2158 14.3652Z" fill="#FFFFFF"/>
<path d="M63.074 86.9887L64.393 78.8376L66.5767 87.0944C66.5832 87.1186 66.5898 87.1426 66.5971 87.1666C66.9088 88.2102 67.7762 88.9075 68.7594 88.9075H68.7789C69.7674 88.8983 70.631 88.1847 70.9281 87.1319C70.9334 87.1132 70.9385 87.0942 70.9434 87.0752L73.0498 78.8344L74.4502 87.0103C74.6527 88.1928 75.6758 88.9681 76.7353 88.742C77.7949 88.516 78.4894 87.3743 78.2871 86.1918L75.5996 70.5022C75.5982 70.4937 75.5967 70.4854 75.5953 70.4773C75.3883 69.3413 74.5187 68.505 73.4807 68.4439C72.4471 68.3836 71.5045 69.1098 71.1928 70.2116C71.1873 70.231 71.182 70.2507 71.1769 70.2703L68.731 79.8394L66.1951 70.2511C66.1887 70.2269 66.182 70.2029 66.1748 70.1789C65.8486 69.0869 64.9017 68.3748 63.8713 68.4461C62.8396 68.5178 61.9777 69.3585 61.775 70.4904C61.7726 70.5037 61.7705 70.517 61.7682 70.5303L59.2301 86.2138C59.0385 87.3985 59.7435 88.5324 60.8049 88.7462C61.8654 88.9596 62.8824 88.1734 63.074 86.9887Z" fill="#FFFFFF"/>
<path d="M84.4814 68.4424C83.4027 68.4424 82.5283 69.4182 82.5283 70.622V86.7136C82.5283 87.7749 83.2131 88.6816 84.1502 88.8617C84.2896 88.8885 84.3914 88.9081 86.01 88.9081C86.7846 88.9081 87.9066 88.9035 89.5461 88.8933C90.6246 88.8865 91.4943 87.905 91.4881 86.7012C91.482 85.5017 90.6088 84.534 89.5351 84.534C89.5314 84.534 89.5277 84.534 89.5238 84.534C88.5818 84.5398 87.4043 84.5453 86.4344 84.547V70.622C86.4346 69.4182 85.5602 68.4424 84.4814 68.4424Z" fill="#FFFFFF"/>
<path d="M38.4045 68.4424C37.3258 68.4424 36.4514 69.4182 36.4514 70.622V76.2161H30.3664V70.622C30.3664 69.4182 29.492 68.4424 28.4133 68.4424C27.3346 68.4424 26.4601 69.4182 26.4601 70.622V86.726C26.4601 87.9299 27.3346 88.9057 28.4133 88.9057C29.492 88.9057 30.3664 87.9299 30.3664 86.726V80.5755H36.4514V86.726C36.4514 87.9299 37.3258 88.9057 38.4045 88.9057C39.4832 88.9057 40.3576 87.9299 40.3576 86.726V70.622C40.3576 69.4182 39.4832 68.4424 38.4045 68.4424Z" fill="#FFFFFF"/>
<path d="M50.2467 88.9057C51.3254 88.9057 52.1998 87.9299 52.1998 86.726V72.8017H54.2475C55.3262 72.8017 56.2006 71.8259 56.2006 70.622C56.2006 69.4182 55.3262 68.4424 54.2475 68.4424H46.2734C45.1947 68.4424 44.3203 69.4182 44.3203 70.622C44.3203 71.8259 45.1947 72.8017 46.2734 72.8017H48.2936V86.726C48.2936 87.9299 49.168 88.9057 50.2467 88.9057Z" fill="#FFFFFF"/>
<path d="M28.976 29.9529C27.9231 29.6913 26.8797 30.4324 26.6453 31.6075L23.0766 49.5173C22.8424 50.6924 23.5063 51.8568 24.5592 52.1183C24.702 52.1539 24.8446 52.1706 24.985 52.1706C25.8801 52.1706 26.6873 51.4795 26.8897 50.4637L30.4584 32.5539C30.6926 31.3786 30.0289 30.2142 28.976 29.9529Z" fill="#FFFFFF"/>
<path d="M17.5955 31.9729C16.7649 31.205 15.5334 31.3338 14.8455 32.261L9.36505 39.6451C8.76642 40.4515 8.76642 41.6192 9.36505 42.4259L14.8455 49.8099C15.2318 50.3304 15.7891 50.5994 16.3508 50.5994C16.7897 50.5994 17.2313 50.435 17.5957 50.0983C18.4264 49.3304 18.542 47.9563 17.8539 47.0293L13.4055 41.0355L17.8539 35.0418C18.542 34.1148 18.4264 32.7408 17.5955 31.9729Z" fill="#FFFFFF"/>
<path d="M38.684 32.2611C37.9959 31.3339 36.7645 31.2048 35.934 31.973C35.1033 32.7409 34.9877 34.1149 35.6758 35.0419L40.1242 41.0356L35.6758 47.0294C34.9877 47.9564 35.1033 49.3305 35.934 50.0984C36.2984 50.4354 36.7398 50.5995 37.1789 50.5995C37.7404 50.5995 38.2978 50.3305 38.6842 49.81L44.1646 42.426C44.7633 41.6195 44.7633 40.4516 44.1646 39.6452L38.684 32.2611Z" fill="#FFFFFF"/>
<path d="M61.5844 38.1074H76.8121C77.8909 38.1074 78.7653 37.1315 78.7653 35.9277C78.7653 34.7239 77.8909 33.748 76.8121 33.748H61.5844C60.5057 33.748 59.6313 34.7239 59.6313 35.9277C59.6313 37.1315 60.5057 38.1074 61.5844 38.1074Z" fill="#FFFFFF"/>
<path d="M50.5236 38.1074H53.7654C54.8441 38.1074 55.7185 37.1315 55.7185 35.9277C55.7185 34.7239 54.8441 33.748 53.7654 33.748H50.5236C49.4449 33.748 48.5705 34.7239 48.5705 35.9277C48.5705 37.1315 49.4449 38.1074 50.5236 38.1074Z" fill="#FFFFFF"/>
<path d="M65.7514 44.9229H50.5236C49.4449 44.9229 48.5705 45.8987 48.5705 47.1025C48.5705 48.3063 49.4449 49.2822 50.5236 49.2822H65.7514C66.8301 49.2822 67.7045 48.3063 67.7045 47.1025C67.7045 45.8987 66.8301 44.9229 65.7514 44.9229Z" fill="#FFFFFF"/>
<path d="M76.8121 44.9229H73.5703C72.4916 44.9229 71.6172 45.8987 71.6172 47.1025C71.6172 48.3063 72.4916 49.2822 73.5703 49.2822H76.8121C77.8908 49.2822 78.7652 48.3063 78.7652 47.1025C78.7652 45.8987 77.8908 44.9229 76.8121 44.9229Z" fill="#FFFFFF"/>
<path d="M37.4791 95.6406C36.4004 95.6406 35.5259 96.6165 35.5259 97.8203C35.5259 99.0241 36.4004 99.9999 37.4791 99.9999H37.4902C38.5689 99.9999 39.4377 99.0241 39.4377 97.8203C39.4377 96.6165 38.5578 95.6406 37.4791 95.6406Z" fill="#FFFFFF"/>
</svg>
