<svg width="589" height="396" viewBox="0 0 589 396" fill="none" xmlns="http://www.w3.org/2000/svg">
<path d="M225.349 241.884C254.804 241.884 266.957 220.874 266.957 194.714V88.0159H247.801V193.066C247.801 215.93 239.973 224.993 223.495 224.993C212.784 224.993 204.133 220.256 197.541 208.103L183.74 217.784C192.804 233.644 206.192 241.884 225.349 241.884ZM335.169 239H357.209L405.408 88.0159H385.84L361.74 169.79C356.385 187.711 352.677 201.923 347.116 219.844H346.086C340.524 201.923 336.816 187.711 331.461 169.79L307.155 88.0159H286.969L335.169 239Z" fill="white"/>
<path d="M271.52 232.891H287.6V229.851H281.68V203.571H278.88C277.32 204.531 275.44 205.211 272.8 205.651V208.011H278.04V229.851H271.52V232.891ZM300.708 233.451C305.948 233.451 310.148 230.291 310.148 225.091C310.148 221.051 307.348 218.451 303.908 217.611V217.451C307.028 216.331 309.108 213.971 309.108 210.411C309.108 205.731 305.508 203.051 300.588 203.051C297.228 203.051 294.628 204.531 292.428 206.531L294.388 208.891C296.028 207.211 298.108 206.011 300.467 206.011C303.508 206.011 305.388 207.851 305.388 210.651C305.388 213.851 303.348 216.251 297.308 216.251V219.091C304.068 219.091 306.428 221.411 306.428 224.931C306.428 228.291 303.948 230.411 300.467 230.411C297.108 230.411 294.908 228.811 293.188 227.011L291.348 229.411C293.268 231.531 296.108 233.451 300.708 233.451Z" fill="white"/>
<path d="M179.25 328.42C179.95 328.42 180.43 327.96 180.43 327.2C180.43 326.46 179.87 326.06 179.25 326.06C178.89 326.06 178.67 326.2 178.39 326.46L179.33 327.6L179.05 326.12C179.05 324.84 179.61 324.06 180.75 323.32L180.23 322.44C178.67 323.34 177.85 324.62 177.85 326.4C177.85 327.7 178.35 328.42 179.25 328.42ZM183.17 328.42C183.87 328.42 184.35 327.96 184.35 327.2C184.35 326.46 183.79 326.06 183.17 326.06C182.83 326.06 182.59 326.2 182.31 326.46L183.23 327.6L182.99 326.12C182.99 324.84 183.55 324.06 184.67 323.32L184.15 322.44C182.61 323.34 181.77 324.62 181.77 326.4C181.77 327.7 182.29 328.42 183.17 328.42ZM188.063 338H189.923V323.34H188.063V338ZM200.155 338.28C200.655 338.28 200.935 338.2 201.195 338.12L200.955 336.72C200.735 336.76 200.655 336.76 200.575 336.76C200.295 336.76 200.055 336.54 200.055 335.96V322.1H198.235V335.84C198.235 337.4 198.775 338.28 200.155 338.28ZM203.918 338H205.738V327.14H203.918V338ZM204.838 324.9C205.538 324.9 206.058 324.44 206.058 323.68C206.058 322.98 205.538 322.52 204.838 322.52C204.118 322.52 203.618 322.98 203.618 323.68C203.618 324.44 204.118 324.9 204.838 324.9ZM211.766 338H213.886L217.726 327.14H215.946L213.866 333.34C213.546 334.4 213.206 335.5 212.866 336.52H212.786C212.446 335.5 212.106 334.4 211.786 333.34L209.726 327.14H207.846L211.766 338ZM224.099 338.28C225.579 338.28 226.719 337.78 227.679 337.16L227.019 335.94C226.219 336.48 225.359 336.82 224.319 336.82C222.239 336.82 220.839 335.32 220.699 333.02H228.019C228.079 332.74 228.099 332.36 228.099 331.98C228.099 328.86 226.539 326.88 223.779 326.88C221.279 326.88 218.899 329.06 218.899 332.6C218.899 336.16 221.199 338.28 224.099 338.28ZM220.679 331.7C220.919 329.56 222.279 328.34 223.799 328.34C225.519 328.34 226.499 329.52 226.499 331.7H220.679ZM238.666 338.28C239.346 338.28 240.066 338.08 240.666 337.86L240.306 336.5C239.966 336.64 239.466 336.8 239.086 336.8C237.826 336.8 237.406 336.02 237.406 334.7V328.62H240.346V327.14H237.406V324.08H235.866L235.666 327.14L233.966 327.26V328.62H235.586V334.66C235.586 336.82 236.346 338.28 238.666 338.28ZM246.673 338.28C249.333 338.28 251.693 336.18 251.693 332.6C251.693 328.96 249.333 326.88 246.673 326.88C243.993 326.88 241.633 328.96 241.633 332.6C241.633 336.18 243.993 338.28 246.673 338.28ZM246.673 336.76C244.773 336.76 243.513 335.08 243.513 332.6C243.513 330.08 244.773 328.4 246.673 328.4C248.553 328.4 249.813 330.08 249.813 332.6C249.813 335.08 248.553 336.76 246.673 336.76ZM262.735 338.28C264.055 338.28 265.195 337.58 266.055 336.72H266.095L266.255 338H267.755V322.1H265.935V326.26L266.015 328.14C265.075 327.34 264.235 326.88 262.975 326.88C260.495 326.88 258.255 329.06 258.255 332.6C258.255 336.22 260.015 338.28 262.735 338.28ZM263.135 336.74C261.235 336.74 260.155 335.18 260.155 332.58C260.155 330.1 261.535 328.4 263.275 328.4C264.175 328.4 265.015 328.72 265.935 329.56V335.26C265.035 336.24 264.155 336.74 263.135 336.74ZM271.457 338H273.277V327.14H271.457V338ZM272.377 324.9C273.077 324.9 273.597 324.44 273.597 323.68C273.597 322.98 273.077 322.52 272.377 322.52C271.657 322.52 271.157 322.98 271.157 323.68C271.157 324.44 271.657 324.9 272.377 324.9ZM281.345 338.28C282.825 338.28 283.965 337.78 284.925 337.16L284.265 335.94C283.465 336.48 282.605 336.82 281.565 336.82C279.485 336.82 278.085 335.32 277.945 333.02H285.265C285.325 332.74 285.345 332.36 285.345 331.98C285.345 328.86 283.785 326.88 281.025 326.88C278.525 326.88 276.145 329.06 276.145 332.6C276.145 336.16 278.445 338.28 281.345 338.28ZM277.925 331.7C278.165 329.56 279.525 328.34 281.045 328.34C282.765 328.34 283.745 329.52 283.745 331.7H277.925ZM295.012 338.28C296.352 338.28 297.572 337.58 298.592 336.72H298.672L298.832 338H300.332V331.34C300.332 328.64 299.212 326.88 296.552 326.88C294.812 326.88 293.292 327.64 292.292 328.28L293.012 329.56C293.852 328.98 294.992 328.38 296.272 328.38C298.052 328.38 298.492 329.72 298.492 331.12C293.872 331.64 291.832 332.82 291.832 335.18C291.832 337.14 293.192 338.28 295.012 338.28ZM295.512 336.8C294.452 336.8 293.612 336.3 293.612 335.06C293.612 333.66 294.832 332.76 298.492 332.34V335.36C297.452 336.3 296.572 336.8 295.512 336.8ZM303.781 338H305.601V330.12C306.681 329.04 307.461 328.46 308.561 328.46C310.001 328.46 310.621 329.32 310.621 331.36V338H312.461V331.12C312.461 328.36 311.421 326.88 309.141 326.88C307.641 326.88 306.521 327.7 305.501 328.72H305.441L305.261 327.14H303.781V338ZM320.208 338.28C322.868 338.28 325.228 336.18 325.228 332.6C325.228 328.96 322.868 326.88 320.208 326.88C317.528 326.88 315.168 328.96 315.168 332.6C315.168 336.18 317.528 338.28 320.208 338.28ZM320.208 336.76C318.308 336.76 317.048 335.08 317.048 332.6C317.048 330.08 318.308 328.4 320.208 328.4C322.088 328.4 323.348 330.08 323.348 332.6C323.348 335.08 322.088 336.76 320.208 336.76ZM331.088 338.28C331.768 338.28 332.488 338.08 333.088 337.86L332.728 336.5C332.388 336.64 331.888 336.8 331.508 336.8C330.248 336.8 329.828 336.02 329.828 334.7V328.62H332.768V327.14H329.828V324.08H328.288L328.088 327.14L326.388 327.26V328.62H328.008V334.66C328.008 336.82 328.768 338.28 331.088 338.28ZM335.227 338H337.047V330.12C338.127 329.04 338.907 328.46 340.007 328.46C341.447 328.46 342.067 329.32 342.067 331.36V338H343.907V331.12C343.907 328.36 342.867 326.88 340.587 326.88C339.087 326.88 337.987 327.7 336.987 328.68L337.047 326.44V322.1H335.227V338ZM351.755 338.28C353.235 338.28 354.375 337.78 355.335 337.16L354.675 335.94C353.875 336.48 353.015 336.82 351.975 336.82C349.895 336.82 348.495 335.32 348.355 333.02H355.675C355.735 332.74 355.755 332.36 355.755 331.98C355.755 328.86 354.195 326.88 351.435 326.88C348.935 326.88 346.555 329.06 346.555 332.6C346.555 336.16 348.855 338.28 351.755 338.28ZM348.335 331.7C348.575 329.56 349.935 328.34 351.455 328.34C353.175 328.34 354.155 329.52 354.155 331.7H348.335ZM358.449 338H360.269V331.04C360.989 329.18 362.109 328.52 363.009 328.52C363.449 328.52 363.689 328.58 364.069 328.7L364.409 327.1C364.049 326.94 363.729 326.88 363.249 326.88C362.029 326.88 360.909 327.74 360.169 329.12H360.109L359.929 327.14H358.449V338ZM374.356 338.28C375.676 338.28 376.816 337.58 377.676 336.72H377.716L377.876 338H379.376V322.1H377.556V326.26L377.636 328.14C376.696 327.34 375.856 326.88 374.596 326.88C372.116 326.88 369.876 329.06 369.876 332.6C369.876 336.22 371.636 338.28 374.356 338.28ZM374.756 336.74C372.856 336.74 371.776 335.18 371.776 332.58C371.776 330.1 373.156 328.4 374.896 328.4C375.796 328.4 376.636 328.72 377.556 329.56V335.26C376.656 336.24 375.776 336.74 374.756 336.74ZM385.578 338.28C386.918 338.28 388.138 337.58 389.158 336.72H389.238L389.398 338H390.898V331.34C390.898 328.64 389.778 326.88 387.118 326.88C385.378 326.88 383.858 327.64 382.858 328.28L383.578 329.56C384.418 328.98 385.558 328.38 386.838 328.38C388.618 328.38 389.058 329.72 389.058 331.12C384.438 331.64 382.398 332.82 382.398 335.18C382.398 337.14 383.758 338.28 385.578 338.28ZM386.078 336.8C385.018 336.8 384.178 336.3 384.178 335.06C384.178 333.66 385.398 332.76 389.058 332.34V335.36C388.018 336.3 387.138 336.8 386.078 336.8ZM394.508 342.7C396.688 342.7 397.808 341.06 398.568 338.92L402.668 327.14H400.888L398.928 333.18C398.648 334.16 398.328 335.24 398.028 336.24H397.928C397.568 335.24 397.208 334.14 396.868 333.18L394.648 327.14H392.768L397.128 338.02L396.888 338.84C396.428 340.18 395.648 341.18 394.428 341.18C394.128 341.18 393.808 341.1 393.608 341.02L393.248 342.48C393.588 342.62 394.008 342.7 394.508 342.7ZM404.838 328.38C406.398 327.46 407.218 326.18 407.218 324.4C407.218 323.12 406.698 322.4 405.818 322.4C405.118 322.4 404.638 322.86 404.638 323.62C404.638 324.34 405.198 324.74 405.818 324.74C406.158 324.74 406.398 324.62 406.678 324.36L405.738 323.22L406.018 324.68C406.018 326 405.458 326.76 404.318 327.52L404.838 328.38ZM408.778 328.38C410.318 327.46 411.158 326.18 411.158 324.4C411.158 323.12 410.638 322.4 409.758 322.4C409.078 322.4 408.578 322.86 408.578 323.62C408.578 324.34 409.138 324.74 409.758 324.74C410.098 324.74 410.358 324.62 410.618 324.36L409.678 323.22L409.938 324.68C409.938 326 409.378 326.76 408.258 327.52L408.778 328.38ZM236.338 362.12H241.458V360.72H236.338V362.12ZM246.564 367.28C249.424 367.28 250.604 365.24 250.604 362.7V352.34H248.744V362.54C248.744 364.76 247.984 365.64 246.384 365.64C245.344 365.64 244.504 365.18 243.864 364L242.524 364.94C243.404 366.48 244.704 367.28 246.564 367.28ZM258.607 367.28C261.267 367.28 263.627 365.18 263.627 361.6C263.627 357.96 261.267 355.88 258.607 355.88C255.927 355.88 253.567 357.96 253.567 361.6C253.567 365.18 255.927 367.28 258.607 367.28ZM258.607 365.76C256.707 365.76 255.447 364.08 255.447 361.6C255.447 359.08 256.707 357.4 258.607 357.4C260.487 357.4 261.747 359.08 261.747 361.6C261.747 364.08 260.487 365.76 258.607 365.76ZM268.645 367.28C269.985 367.28 271.205 366.58 272.225 365.72H272.305L272.465 367H273.965V360.34C273.965 357.64 272.845 355.88 270.185 355.88C268.445 355.88 266.925 356.64 265.925 357.28L266.645 358.56C267.485 357.98 268.625 357.38 269.905 357.38C271.685 357.38 272.125 358.72 272.125 360.12C267.505 360.64 265.465 361.82 265.465 364.18C265.465 366.14 266.825 367.28 268.645 367.28ZM269.145 365.8C268.085 365.8 267.245 365.3 267.245 364.06C267.245 362.66 268.465 361.76 272.125 361.34V364.36C271.085 365.3 270.205 365.8 269.145 365.8ZM271.885 354.1C273.425 354.1 274.065 352.8 274.125 351.08L272.905 351.02C272.845 352.06 272.545 352.78 271.885 352.78C270.825 352.78 270.225 350.9 268.665 350.9C267.105 350.9 266.465 352.2 266.405 353.92L267.625 354C267.685 352.94 268.005 352.22 268.665 352.22C269.705 352.22 270.305 354.1 271.885 354.1ZM281.634 367.28C284.294 367.28 286.654 365.18 286.654 361.6C286.654 357.96 284.294 355.88 281.634 355.88C278.954 355.88 276.594 357.96 276.594 361.6C276.594 365.18 278.954 367.28 281.634 367.28ZM281.634 365.76C279.734 365.76 278.474 364.08 278.474 361.6C278.474 359.08 279.734 357.4 281.634 357.4C283.514 357.4 284.774 359.08 284.774 361.6C284.774 364.08 283.514 365.76 281.634 365.76ZM296.856 367H298.996L303.676 352.34H301.776L299.436 360.28C298.916 362.02 298.556 363.4 298.016 365.14H297.916C297.376 363.4 297.016 362.02 296.496 360.28L294.136 352.34H292.176L296.856 367ZM309.529 367.28C311.009 367.28 312.149 366.78 313.109 366.16L312.449 364.94C311.649 365.48 310.789 365.82 309.749 365.82C307.669 365.82 306.269 364.32 306.129 362.02H313.449C313.509 361.74 313.529 361.36 313.529 360.98C313.529 357.86 311.969 355.88 309.209 355.88C306.709 355.88 304.329 358.06 304.329 361.6C304.329 365.16 306.629 367.28 309.529 367.28ZM306.109 360.7C306.349 358.56 307.709 357.34 309.229 357.34C310.949 357.34 311.929 358.52 311.929 360.7H306.109ZM318.143 367.28C318.643 367.28 318.923 367.2 319.183 367.12L318.943 365.72C318.723 365.76 318.643 365.76 318.563 365.76C318.283 365.76 318.043 365.54 318.043 364.96V351.1H316.223V364.84C316.223 366.4 316.763 367.28 318.143 367.28ZM326.126 367.28C328.786 367.28 331.146 365.18 331.146 361.6C331.146 357.96 328.786 355.88 326.126 355.88C323.446 355.88 321.086 357.96 321.086 361.6C321.086 365.18 323.446 367.28 326.126 367.28ZM326.126 365.76C324.226 365.76 322.966 364.08 322.966 361.6C322.966 359.08 324.226 357.4 326.126 357.4C328.006 357.4 329.266 359.08 329.266 361.6C329.266 364.08 328.006 365.76 326.126 365.76ZM336.778 367.28C339.338 367.28 340.718 365.82 340.718 364.04C340.718 361.98 338.998 361.34 337.418 360.74C336.178 360.3 335.078 359.9 335.078 358.86C335.078 358.02 335.698 357.3 337.078 357.3C338.038 357.3 338.818 357.72 339.558 358.26L340.438 357.1C339.598 356.42 338.398 355.88 337.058 355.88C334.698 355.88 333.318 357.22 333.318 358.94C333.318 360.8 334.978 361.52 336.478 362.1C337.678 362.54 338.978 363.04 338.978 364.14C338.978 365.1 338.258 365.86 336.818 365.86C335.518 365.86 334.558 365.32 333.618 364.56L332.718 365.78C333.738 366.62 335.238 367.28 336.778 367.28ZM347.513 367.28C350.173 367.28 352.533 365.18 352.533 361.6C352.533 357.96 350.173 355.88 347.513 355.88C344.833 355.88 342.473 357.96 342.473 361.6C342.473 365.18 344.833 367.28 347.513 367.28ZM347.513 365.76C345.613 365.76 344.353 364.08 344.353 361.6C344.353 359.08 345.613 357.4 347.513 357.4C349.393 357.4 350.653 359.08 350.653 361.6C350.653 364.08 349.393 365.76 347.513 365.76Z" fill="white"/>
</svg>
