<svg width="101" height="77" viewBox="0 0 101 77" fill="none" xmlns="http://www.w3.org/2000/svg">
<path d="M7.06055 0.193352C3.70117 0.857414 0.849609 3.74804 0.205078 7.18554C-0.0683594 8.63085 -0.0683594 67.498 0.205078 68.9434C0.86914 72.459 3.70117 75.291 7.2168 75.9551C8.66211 76.2285 91.3574 76.2285 92.8027 75.9551C96.3183 75.291 99.1504 72.459 99.8144 68.9434C100.088 67.498 100.088 8.63085 99.8144 7.18554C99.1504 3.66991 96.3183 0.837883 92.8027 0.17382C91.4941 -0.0605545 8.33008 -0.0605545 7.06055 0.193352ZM70.0879 25.7012L50.2246 45.5644L47.4316 42.8887C45.8887 41.4043 36.8652 32.4785 27.3535 23.0254L10.0684 5.85741L50.0098 5.83788H89.9512L70.0879 25.7012ZM20.791 24.7441L34.0332 37.9277L19.9512 52.0098L5.86914 66.0918V38.084V10.0957L6.70898 10.8379C7.1582 11.2285 13.4863 17.498 20.791 24.7441ZM94.1504 38.1035V66.0918L80.1465 52.0879L66.123 38.0644L80.0879 24.0996C87.7637 16.4238 94.0723 10.1348 94.0918 10.1348C94.1308 10.1348 94.1504 22.7324 94.1504 38.1035ZM43.2715 47.0684C45.9668 49.7637 48.4863 52.127 48.8769 52.3418C49.7559 52.791 50.6152 52.8105 51.4355 52.4004C51.7871 52.2246 54.2871 49.8809 57.0019 47.1855L61.9238 42.2637L75.9473 56.2871L89.9512 70.291H50.0098H10.0684L24.1309 56.2285C31.8652 48.4941 38.2324 42.166 38.291 42.166C38.3496 42.166 40.5957 44.373 43.2715 47.0684Z" fill="white"/>
</svg>
