<svg width="60" height="50" viewBox="0 0 60 50" fill="none" xmlns="http://www.w3.org/2000/svg">
<path d="M47.4442 30.9737C46.2141 29.9078 44.7303 29.338 43.1578 29.338C41.5979 29.338 40.1015 29.8973 38.8206 30.9631L34.8131 34.2873C34.4834 34.1395 34.1537 34.0023 33.8366 33.8652C33.3801 33.6752 32.9489 33.4958 32.5811 33.3059C28.8273 31.3219 25.4159 28.7365 22.144 25.3912C20.5587 23.7239 19.4935 22.3203 18.7199 20.8957C19.7598 20.1043 20.7236 19.2811 21.6621 18.4897C22.0171 18.1942 22.3722 17.8882 22.7273 17.5927C25.3905 15.3766 25.3905 12.5062 22.7273 10.2901L19.2652 7.40919C18.872 7.08205 18.4662 6.74436 18.0858 6.40667C17.3249 5.7524 16.5259 5.07702 15.7016 4.44385C14.4714 3.43077 13.0003 2.89258 11.4532 2.89258C9.90598 2.89258 8.40952 3.43077 7.14134 4.44385C7.12865 4.4544 7.12865 4.4544 7.11597 4.46495L2.80414 8.08457C1.18087 9.43534 0.255093 11.0816 0.0521839 12.9916C-0.25218 16.0731 0.838458 18.9434 1.67546 20.8218C3.72992 25.4334 6.79893 29.7073 11.3771 34.2873C16.9317 39.8064 23.6151 44.1647 31.2495 47.2356C34.1664 48.3859 38.0597 49.7472 42.4096 49.9793C42.6759 49.9899 42.9549 50.0004 43.2085 50.0004C46.138 50.0004 48.5983 49.1246 50.5259 47.3833C50.5386 47.3622 50.564 47.3517 50.5767 47.3306C51.2361 46.6657 51.997 46.0642 52.796 45.4205C53.3413 44.9878 53.8993 44.5341 54.4446 44.0592C55.7001 42.9723 56.3596 41.7059 56.3596 40.4079C56.3596 39.0994 55.6874 37.8436 54.4066 36.7883L47.4442 30.9737ZM51.9843 42.0858C51.9717 42.0858 51.9717 42.0964 51.9843 42.0858C51.4898 42.529 50.9825 42.93 50.4372 43.3733C49.6128 44.0275 48.7758 44.7135 47.9896 45.4838C46.7087 46.6235 45.1996 47.1617 43.2212 47.1617C43.031 47.1617 42.8281 47.1617 42.6378 47.1512C38.8713 46.9507 35.3711 45.7265 32.746 44.6818C25.5681 41.7903 19.2652 37.6853 14.0276 32.4827C9.70307 28.1455 6.81161 24.1354 4.89665 19.8299C3.71724 17.2022 3.28605 15.155 3.47628 13.2238C3.6031 11.9891 4.17378 10.9655 5.22638 10.0896L9.55089 6.4911C10.1723 6.00566 10.8318 5.74184 11.4785 5.74184C12.2775 5.74184 12.9243 6.14285 13.3301 6.48054C13.3428 6.4911 13.3554 6.50165 13.3681 6.5122C14.1417 7.11371 14.8773 7.73633 15.6509 8.40116C16.044 8.73885 16.4498 9.07654 16.8556 9.42478L20.3178 12.3057C21.6621 13.4243 21.6621 14.4585 20.3178 15.5771C19.95 15.8831 19.5949 16.1892 19.2271 16.4846C18.1619 17.3922 17.1473 18.2364 16.044 19.0595C16.0186 19.0806 15.9933 19.0912 15.9806 19.1123C14.8899 20.0198 15.0929 20.9063 15.3211 21.5078C15.3338 21.5394 15.3465 21.5711 15.3592 21.6028C16.2596 23.4178 17.5278 25.1274 19.4554 27.1641L19.4681 27.1747C22.9683 30.7626 26.6587 33.5591 30.7296 35.7013C31.2495 35.9757 31.7822 36.1973 32.2894 36.4084C32.746 36.5983 33.1772 36.7777 33.5449 36.9677C33.5957 36.9888 33.6464 37.0205 33.6971 37.0416C34.1283 37.221 34.5341 37.3054 34.9526 37.3054C36.0052 37.3054 36.6647 36.7566 36.8803 36.5772L41.2175 32.9682C41.6486 32.6094 42.3335 32.1767 43.1324 32.1767C43.9187 32.1767 44.5655 32.5883 44.9586 32.9471C44.9713 32.9576 44.9713 32.9576 44.984 32.9682L51.9717 38.7828C53.2779 39.8592 53.2779 40.9672 51.9843 42.0858Z" fill="white"/>
<path d="M32.4289 11.8945C35.7516 12.3588 38.7698 13.6674 41.1794 15.6724C43.5889 17.6774 45.1488 20.189 45.7195 22.9539C45.859 23.6503 46.5819 24.1358 47.4062 24.1358C47.5076 24.1358 47.5964 24.1252 47.6979 24.1147C48.6363 23.988 49.2577 23.2493 49.1055 22.4684C48.4207 19.1232 46.5185 16.0734 43.6143 13.6568C40.7102 11.2402 37.0451 9.65729 33.025 9.08743C32.0865 8.9608 31.2115 9.47789 31.0466 10.2482C30.8817 11.0186 31.4905 11.7679 32.4289 11.8945Z" fill="white"/>
<path d="M59.9739 22.056C58.8452 16.5475 55.7255 11.5349 50.9317 7.54589C46.138 3.55692 40.1141 0.960922 33.4942 0.0217193C32.5684 -0.115468 31.6934 0.412174 31.5285 1.18253C31.3763 1.96344 31.9978 2.69159 32.9362 2.82877C38.8459 3.66245 44.2357 5.99462 48.5222 9.55093C52.8087 13.1178 55.5987 17.6027 56.6005 22.5204C56.74 23.2169 57.4629 23.7023 58.2872 23.7023C58.3887 23.7023 58.4774 23.6917 58.5789 23.6812C59.5047 23.5651 60.1388 22.8264 59.9739 22.056Z" fill="white"/>
</svg>
