<svg width="50" height="50" viewBox="0 0 50 50" fill="none" xmlns="http://www.w3.org/2000/svg">
<g clip-path="url(#clip0_45_2314)">
<path d="M2.10002 1.90003C0.100022 3.90003 2.1834e-05 5.10003 2.1834e-05 24.8C2.1834e-05 52.5 -2.49998 50.1 27.1 49.8L49.5 49.5V31C49.5 12.6 49.5 12.5 47.3 12.2L45 11.9L47.5 8.60003C50.3 5.00003 50 2.60003 46.8 0.90003C44.6 -0.29997 43.7 0.30003 36.3 7.70003L32.1 12H21.6H11.1L10.8 6.20003C10.5 0.60003 10.5 0.50003 7.30002 0.20003C5.10002 2.97728e-05 3.50002 0.50003 2.10002 1.90003ZM9.00002 19.5C9.00002 36.1 8.90002 37 7.10002 37C6.00002 37 4.50002 37.3 3.60002 37.6C2.20002 38.1 2.00002 36.3 2.00002 21.3C2.00002 3.40003 2.30002 2.00003 6.70002 2.00003H9.00002V19.5ZM47 3.50003C47.7 4.40003 48 5.30003 47.7 5.70003C46.9 6.40003 44 4.20003 44 2.90003C44 1.50003 45.6 1.80003 47 3.50003ZM44 6.50003C46 8.90003 44.6 9.30003 42.5 7.00003C41.5 5.90003 41.2 5.00003 41.7 5.00003C42.3 5.00003 43.3 5.70003 44 6.50003ZM38.6 14.9C34.3 19.2 33.9 19.4 32.3 17.7C30.7 16.1 30.8 15.8 35 11.5C39.2 7.30003 39.5 7.10003 41.2 8.70003C43 10.3 42.9 10.6 38.6 14.9ZM30 13.5C30 13.8 29.6 14.8 29.1 15.8C28.6 16.7 27.9 18.3 27.6 19.2C27.2 20.7 25.9 21 20 21C16 21 13 21.4 13 22C13 22.5 13.7 23 14.5 23C15.7 23 16 25 16 34.6C16 42 16.4 45.9 17 45.5C17.5 45.2 18 42.2 18 38.9V32.9L22.3 33.2C26.2 33.5 26.5 33.7 26.8 36.7C27.1 39.9 27 40 23.6 40C21.6 40 20 40.5 20 41C20 41.7 23.3 42 29.3 41.8L38.5 41.5L38.8 34.2C39 29.2 38.7 27 38 27.5C37.5 27.8 37 29 37 30.1C37 31.8 36.2 32 27.5 32H18V27.5V23H22.9C30.9 23 33.8 22 38.9 17.4C41.6 15 44.7 13 45.9 13C48 13 48 13.4 48 30.5V48L25.9 47.8C1.70002 47.5 1.00002 47.3 2.30002 41.8C2.80002 39.8 3.90002 39 6.70002 38.3L10.5 37.4L10.8 25.2L11.1 13H20.5C25.7 13 30 13.2 30 13.5ZM31.8 19.8C32 20.5 31.5 21 30.6 21C29.7 21 29 20.3 29 19.4C29 17.7 31.2 18 31.8 19.8ZM37 36.5C37 40 37 40 32.5 40C28.2 40 28 39.9 28 37.2C28 33.5 28.6 33 33.2 33C36.9 33 37 33.1 37 36.5Z" fill="#A1A1A2"/>
</g>
<defs>
<clipPath id="clip0_45_2314">
<rect width="50" height="50" fill="white"/>
</clipPath>
</defs>
</svg>
