<svg width="50" height="50" viewBox="0 0 50 50" fill="none" xmlns="http://www.w3.org/2000/svg">
<g clip-path="url(#clip0_45_2317)">
<path d="M1.3 0.7C0.5 1 0 3.1 0 6C0 9.9 0.4 11.2 1.9 12C3.1 12.6 12.3 13 25 13C37.7 13 46.9 12.6 48.1 12C49.5 11.2 50 9.9 50 7C50 -0.4 51.4 -1.93715e-07 25.6 0.0999998C12.9 0.0999998 1.9 0.4 1.3 0.7ZM48 6V10H25H2V6V2H25H48V6Z" fill="#F5DEB2"/>
<path d="M39.6 20.5C38.7 21.4 38 23.4 38 25C38 31.3 45.9 33.3 49 27.7C50.3 25.3 50.3 24.7 49 22.2C47.1 18.9 42.1 18 39.6 20.5ZM47.4 23.2C49.6 26.7 44.7 30.6 41.5 28C39.7 26.5 39.5 22.4 41.3 21.6C43.5 20.7 46.3 21.5 47.4 23.2Z" fill="#F5DEB2"/>
<path d="M0 22C0 22.6 6.2 23 16.5 23C26.8 23 33 22.6 33 22C33 21.4 26.8 21 16.5 21C6.2 21 0 21.4 0 22Z" fill="#F5DEB2"/>
<path d="M0 28C0 28.6 6.2 29 16.5 29C26.8 29 33 28.6 33 28C33 27.4 26.8 27 16.5 27C6.2 27 0 27.4 0 28Z" fill="#F5DEB2"/>
<path d="M39.2 39.2C37.4 41 37.8 46.5 39.8 48.3C42.3 50.6 45.6 50.4 48 48C52.1 43.9 49.3 38 43.4 38C41.7 38 39.9 38.5 39.2 39.2ZM47 41.5C49.7 44.7 44.7 49.7 41.5 47C40 45.7 39.5 41.9 40.7 40.7C41.9 39.5 45.7 40 47 41.5Z" fill="#F5DEB2"/>
<path d="M0.500014 41C1.30001 42.4 33 42.4 33 41C33 40.4 26.8 40 16.4 40C5.70001 40 0.100014 40.3 0.500014 41Z" fill="#F5DEB2"/>
<path d="M0 47C0 47.6 6.2 48 16.5 48C26.8 48 33 47.6 33 47C33 46.4 26.8 46 16.5 46C6.2 46 0 46.4 0 47Z" fill="#F5DEB2"/>
</g>
<defs>
<clipPath id="clip0_45_2317">
<rect width="50" height="50" fill="white"/>
</clipPath>
</defs>fill
</svg>
