<svg width="50" height="50" viewBox="0 0 50 50" fill="none" xmlns="http://www.w3.org/2000/svg">
<g clip-path="url(#clip0_61_2373)">
<path d="M12.5681 5.75195C5.96154 8.90625 0.459329 11.5918 0.332279 11.709C-0.0879605 12.1094 -0.0879605 12.8809 0.342052 13.3008C0.469102 13.4277 2.07188 14.2285 3.89943 15.0781C5.73676 15.9375 7.20271 16.6699 7.16362 16.6992C7.12453 16.7383 5.60971 17.4609 3.81147 18.3008C2.01324 19.1406 0.43001 19.9316 0.30296 20.0586C-0.00977632 20.3809 -0.0781875 21.0449 0.175911 21.4355C0.381144 21.7578 0.566832 21.8555 4.71059 23.7793C6.09836 24.4238 7.22226 24.9707 7.22226 25C7.22226 25.0293 6.09836 25.5762 4.71059 26.2207C0.566832 28.1445 0.381144 28.2422 0.175911 28.5645C-0.0781875 28.9551 -0.00977632 29.6191 0.30296 29.9414C0.43001 30.0684 2.01324 30.8594 3.81147 31.6992C5.60971 32.5391 7.12453 33.2617 7.16362 33.3008C7.20271 33.3301 5.73676 34.0625 3.89943 34.9219C2.07188 35.7715 0.469102 36.5723 0.342052 36.6992C-0.0879605 37.1191 -0.0879605 37.8906 0.332279 38.291C0.459329 38.4082 5.96154 41.0938 12.5681 44.248C22.7907 49.1406 24.6476 49.9902 25.0092 50C25.3903 50 27.0713 49.2285 37.46 44.2676C44.0665 41.1035 49.5688 38.4277 49.6958 38.3008C50.1258 37.8711 50.1258 37.1289 49.6958 36.6992C49.5785 36.5723 47.9757 35.7715 46.1384 34.9219C44.3011 34.0625 42.8351 33.3301 42.8742 33.3008C42.9231 33.2617 44.4379 32.5391 46.2459 31.6895C48.0539 30.8496 49.6274 30.0586 49.7447 29.9316C50.1747 29.4727 50.0867 28.5938 49.559 28.2324C49.4222 28.1348 47.8682 27.3828 46.1091 26.5625C44.3402 25.7422 42.9036 25.0391 42.9036 25C42.9036 24.9609 44.1056 24.3652 45.5716 23.6816C47.0278 22.998 48.5524 22.2754 48.9433 22.0898C49.8131 21.6797 50.0672 21.3574 50.0085 20.7227C49.9792 20.4688 49.8815 20.2051 49.7447 20.0684C49.6274 19.9512 48.0539 19.1504 46.2459 18.3105C44.4379 17.4609 42.9231 16.7383 42.8742 16.6992C42.8351 16.6699 44.3011 15.9375 46.1384 15.0781C47.9757 14.2285 49.5785 13.4277 49.6958 13.3008C50.1258 12.8711 50.1258 12.1289 49.6958 11.6992C49.5688 11.5723 44.0665 8.89648 37.46 5.73242C27.0713 0.771484 25.3903 0 25.0092 0C24.6476 0.00976562 22.7907 0.859375 12.5681 5.75195ZM35.8377 7.43164C41.6624 10.1953 46.4218 12.4707 46.4218 12.5C46.4218 12.5488 25.703 22.4023 25.2339 22.5781C24.9407 22.6855 25.6835 23.0273 11.7765 16.4062C7.69136 14.4629 4.18285 12.8027 3.98739 12.7148C3.57692 12.5488 3.51828 12.4414 3.79193 12.3633C3.88966 12.3242 8.67844 10.0586 14.425 7.32422C20.1715 4.58984 24.9603 2.36328 25.0678 2.37305C25.1753 2.39258 30.0227 4.66797 35.8377 7.43164ZM17.2591 21.4844C23.4748 24.4629 24.6671 25 25.0287 25C25.3805 25 26.0549 24.7168 28.8304 23.3789C35.9452 19.9609 40.1573 17.9688 40.2551 17.9688C40.3723 17.9688 46.2362 20.6836 46.3534 20.791C46.3925 20.8301 41.6135 23.1543 35.7204 25.957L25.0189 31.0449L23.7289 30.4297C23.0155 30.0879 21.7938 29.502 21.012 29.1309C20.2301 28.7598 15.9984 26.748 11.6103 24.6582C7.21248 22.5684 3.64533 20.8398 3.67465 20.8105C3.77238 20.7031 9.62642 17.9883 9.77302 17.9785C9.8512 17.9688 13.2229 19.5508 17.2591 21.4844ZM17.1907 29.7852C23.7973 32.9492 24.5889 33.3008 25.0189 33.3008C25.5467 33.3008 24.7746 33.6523 36.424 28.0859L40.2453 26.25L43.3336 27.6953C45.0341 28.4863 46.3925 29.1699 46.3534 29.209C46.3143 29.248 41.4962 31.5527 35.652 34.3262L25.0287 39.3652L23.5823 38.6914C22.7907 38.3105 21.5397 37.7246 20.8165 37.373C16.8096 35.4688 5.2872 29.9902 4.50536 29.6289C3.99716 29.3848 3.60624 29.1797 3.63556 29.1504C3.6942 29.0918 9.70461 26.2793 9.78279 26.2793C9.81211 26.2695 13.1447 27.8516 17.1907 29.7852ZM17.2201 38.1348C22.8298 40.8203 24.7551 41.6992 25.0287 41.6992C25.2926 41.6992 26.4556 41.1914 29.4754 39.7363C31.733 38.6523 33.9221 37.6074 34.3522 37.4023C34.7822 37.1973 36.2872 36.4844 37.6945 35.8105L40.2551 34.5801L43.3336 36.0156C45.0341 36.8066 46.4218 37.4707 46.4218 37.5C46.4218 37.5488 25.7226 47.4023 25.2339 47.5781C24.9994 47.666 23.9439 47.1875 14.7573 42.8223C9.13777 40.1465 4.33922 37.8711 4.08512 37.7637C3.82125 37.6465 3.61601 37.5391 3.61601 37.5098C3.61601 37.4707 4.99401 36.8066 6.67497 36.0254C8.34616 35.2344 9.73392 34.5898 9.7437 34.5801C9.76324 34.5801 13.1252 36.1719 17.2201 38.1348Z" fill="#2a3754"/>
<path d="M22.2462 5.32246C20.9864 5.95723 19.9708 6.5334 19.8829 6.66035C19.629 7.02168 19.6876 7.40254 20.0587 7.77363C20.5958 8.31074 20.9376 8.26192 23.1446 7.28535L25.0001 6.45528L26.4844 7.13887C28.086 7.88106 28.2325 7.91035 28.8672 7.50996C29.17 7.33418 29.1993 7.26582 29.1993 6.86543C29.1993 6.14278 28.9844 5.94746 27.1387 5.02949C24.8926 3.89668 25.1075 3.88692 22.2462 5.32246Z" fill="#2a3754"/>
<path d="M31.582 7.85156C31.3281 8.10547 31.25 8.26172 31.25 8.54492C31.25 9.02344 31.7676 9.57031 32.2266 9.57031C32.8613 9.57031 33.3008 9.15039 33.3008 8.54492C33.3008 7.59766 32.2559 7.17773 31.582 7.85156Z" fill="#2a3754"/>
</g>
<defs>
<clipPath id="clip0_61_2373">
<rect width="50" height="50" fill="white"/>
</clipPath>
</defs>
</svg>
