<svg width="50" height="50" viewBox="0 0 50 50" fill="none" xmlns="http://www.w3.org/2000/svg">
<path d="M12.3 6.30001C5.5 9.70001 0 12.9 0 13.5C0 14.1 2.1 15.6 4.7 16.9L9.5 19.2L4.7 21.6C2.1 23 0 24.5 0 25C0 25.5 2.1 27 4.7 28.4L9.5 30.8L4.7 33.1C2.1 34.4 0 35.9 0 36.5C0 37.1 5.8 40.4 12.8 43.9L25.6 50.2L37.8 44.1C44.5 40.7 50 37.4 50 36.6C50 35.9 48.2 34.5 46 33.5C43.8 32.5 42 31.4 42 31.1C42 30.8 43.7 29.6 45.8 28.5C50.5 26 50.5 24 45.8 21.5C43.7 20.4 42 19.2 42 18.9C42 18.6 43.8 17.6 46 16.6C48.2 15.6 50 14.2 50 13.4C50 12.2 27.3 -0.0999848 25.3 0.100015C24.8 0.100015 19 2.90002 12.3 6.30001ZM34 8.50001C39 11 43 13.2 43 13.5C43 13.8 39 16 34.2 18.4L25.4 22.8L16.2 18.5C11.1 16.1 7 13.9 7 13.6C7 13.1 23.6 4.30001 24.8 4.10001C24.9 4.00001 29.1 6.00001 34 8.50001ZM20.1 24.6L25.2 27.1L30.1 24.6C32.8 23.2 35.6 22 36.4 22C38.3 22 43 24.1 43 25C43 25.3 39 27.6 34 30L25 34.4L16 30C11 27.6 7 25.3 7 24.9C7 24 11.1 22.1 13.3 22.1C14.3 22 17.3 23.2 20.1 24.6ZM19 35.5C25.1 38.6 25.9 38.6 32 35.5C36.7 33.1 37.2 33 40 34.5C41.7 35.4 43 36.3 43 36.5C43 36.8 39 39 34 41.5L25 46L16 41.5C11 39 7 36.7 7 36.4C7 36 12.6 33.2 13.8 33C13.9 33 16.3 34.1 19 35.5Z" fill="#F5DEB2"/>
</svg>
