<svg width="100" height="100" viewBox="0 0 100 100" fill="none" xmlns="http://www.w3.org/2000/svg">
<path d="M9.71833 0.0993938C6.71051 0.607206 3.72223 2.63846 1.92536 5.43143C0.304261 7.93143 -0.418395 11.701 0.245667 14.2205C1.10504 17.5799 3.66364 21.6619 7.99957 26.6424C11.1832 30.3142 11.4957 30.4119 13.605 28.2244C17.4527 24.2205 20.9097 19.2986 22.2379 15.9002C23.0386 13.908 23.2144 11.3689 22.7261 9.24002C21.4761 3.88846 16.6129 -0.0959187 11.4761 0.00173759C10.773 0.00173759 9.99176 0.0603313 9.71833 0.0993938ZM13.6441 3.59549C14.23 3.77127 15.0699 4.12283 15.4996 4.37674C16.5152 4.98221 18.1363 6.68143 18.6636 7.69705C19.6597 9.65018 19.9918 12.5017 19.4254 14.1424C18.605 16.4275 16.5543 19.6502 13.7222 23.1072C11.4957 25.822 11.5543 25.783 10.8707 24.9627C5.51911 18.615 3.27301 14.7478 3.27301 11.8767C3.27301 10.6853 3.76129 8.90799 4.38629 7.71658C6.28082 4.25955 10.109 2.56033 13.6441 3.59549Z" fill="white"/>
<path d="M7.08154 7.09164C6.59326 7.56039 6.59326 7.57992 6.59326 11.4666C6.59326 15.3143 6.59326 15.3729 7.06201 15.9198L7.53076 16.4666L11.0269 16.5252C13.2339 16.5643 14.7769 16.5057 15.2456 16.369C16.4565 16.0174 16.5933 15.451 16.5151 11.1541L16.4565 7.54085L15.9097 7.0721C15.3628 6.60335 15.3042 6.60335 11.4565 6.60335C7.56982 6.60335 7.55029 6.60335 7.08154 7.09164ZM13.2339 11.5838V13.244H11.5737H9.91357V11.5838V9.92367H11.5737H13.2339V11.5838Z" fill="white"/>
<path d="M31.8864 7.07227C31.2223 7.73633 31.2223 8.71289 31.9059 9.35742L32.4137 9.82617L54.6012 9.92383L76.8083 10.0215L77.6286 10.4707C78.9176 11.1543 79.777 12.0137 80.363 13.2051C81.7106 15.9785 80.5192 19.4355 77.7262 20.8027L76.613 21.3496L52.5895 21.4473L28.5661 21.5449L27.4723 21.9941C22.9997 23.791 20.5973 28.2832 21.7301 32.6777C22.5505 35.8027 24.6989 38.0684 27.9801 39.2988C28.3903 39.4551 37.7848 39.5332 60.402 39.6113L92.238 39.709L93.3512 40.2559C94.5622 40.8418 95.402 41.7012 96.0856 42.9902C96.7106 44.1621 96.7106 46.5645 96.0856 47.834C95.5583 48.9082 94.4645 50.041 93.4098 50.6074L92.6286 51.0371L49.9528 51.1348L7.27702 51.2324L6.02702 51.7012C1.67155 53.3223 -0.769858 57.7949 0.226236 62.2871C0.831704 65.0215 2.56999 67.1699 5.2067 68.4785L6.67155 69.2012L34.113 69.2988C61.5153 69.3965 61.5739 69.3965 62.4723 69.8066C63.6442 70.3535 64.6989 71.291 65.3239 72.3848C66.0466 73.6152 66.2028 76.0566 65.6169 77.3652C65.07 78.6152 63.8005 79.9238 62.5895 80.4512L61.5739 80.9199L39.9919 81.0176C19.8942 81.1152 18.3512 81.1348 17.5309 81.4668C14.4255 82.6973 12.238 85.373 11.652 88.6543C10.8317 93.3027 14.2301 98.1074 18.9762 98.9668C19.777 99.123 29.2106 99.1816 49.0934 99.1816H78.0387L78.6442 98.6738C79.3669 98.0684 79.4645 97.1309 78.8786 96.4277L78.5075 95.959L48.8395 95.8613L19.1911 95.7637L18.234 95.2949C17.0036 94.6895 15.8512 93.5371 15.3239 92.3652C14.738 91.0762 14.7575 88.8496 15.363 87.6582C15.9294 86.5449 17.0231 85.3926 18.0192 84.8652L18.8005 84.4355L40.3825 84.3379C60.8317 84.2402 62.0231 84.2207 62.9411 83.8691C66.0075 82.7363 68.0387 80.6855 68.9176 77.873C70.1091 74.0254 68.5661 69.709 65.2067 67.5605C63.0387 66.1738 65.5583 66.291 35.2067 66.1738L7.86296 66.0762L6.53483 65.4316C2.04264 63.2246 2.25749 56.9941 6.90592 54.9043C7.62858 54.5723 10.0505 54.5527 50.3434 54.4551C90.695 54.3574 93.0583 54.3379 93.8981 54.0059C95.402 53.4199 96.3395 52.7559 97.4723 51.5449C100.168 48.6152 100.695 44.748 98.8591 41.1348C98.195 39.8262 96.4177 38.0488 95.1091 37.3848C92.863 36.252 94.4059 36.291 60.5778 36.291C25.1481 36.291 28.4098 36.4668 26.4762 34.5332C25.5973 33.6543 25.3044 33.1855 25.0309 32.2871C24.2301 29.5137 25.402 26.7598 27.9801 25.3926L28.9567 24.8652L52.9801 24.7676C79.9137 24.6504 77.8239 24.7676 80.1872 23.2051C81.5934 22.248 82.5895 21.0957 83.3512 19.4551C85.5778 14.6895 83.3317 9.18164 78.3122 7.15039L77.1989 6.70117L54.777 6.64258L32.3747 6.60352L31.8864 7.07227Z" fill="white"/>
<path d="M85.9292 69.5135C82.7456 69.9823 79.9526 71.8378 78.0386 74.7479C76.6909 76.7987 76.0854 78.8299 76.0659 81.3104C76.0659 83.0487 76.1245 83.4393 76.6714 84.9237C77.7847 87.8729 79.894 91.1737 83.1753 95.0799C85.6362 97.9901 86.6323 98.9471 87.394 99.1034C87.9409 99.201 88.1362 99.1229 89.0347 98.2831C91.8667 95.6268 96.3394 89.5721 97.7651 86.4862C98.8198 84.1815 99.0737 83.1268 99.0542 81.2128C99.0347 78.0292 97.7456 75.0604 95.3628 72.6776C92.7847 70.1385 89.4058 69.0057 85.9292 69.5135ZM90.0894 73.1463C92.9995 74.162 95.1284 76.8573 95.6753 80.1971C95.9878 82.0526 95.7339 83.2245 94.4644 85.6854C93.3511 87.8338 91.8081 90.0409 89.3276 93.0487L87.5698 95.1385L86.9058 94.3768C82.9605 89.9042 79.9722 85.2167 79.4448 82.6776C79.269 81.7792 79.2495 81.2128 79.4253 80.1385C80.3042 74.8065 85.3628 71.4862 90.0894 73.1463Z" fill="white"/>
<path d="M83.6245 76.1348C82.6479 76.5254 82.5698 76.9356 82.5698 80.9785V84.7676L83.1362 85.334L83.7026 85.9004H87.5503H91.3979L91.9644 85.334L92.5308 84.7676V80.9395C92.5308 77.1895 92.5308 77.1309 92.062 76.584L91.5933 76.0371L87.8042 75.9981C85.7339 75.9785 83.8394 76.0371 83.6245 76.1348ZM89.2104 80.9199V82.5801H87.5503H85.8901V80.9199V79.2598H87.5503H89.2104V80.9199Z" fill="white"/>
</svg>
