<svg width="729" height="791" viewBox="0 0 729 791" fill="none" xmlns="http://www.w3.org/2000/svg">
<path d="M633.108 304.905C633.499 304.514 633.499 303.881 633.108 303.491L626.744 297.127C626.354 296.736 625.72 296.736 625.33 297.127C624.939 297.517 624.939 298.15 625.33 298.541L630.987 304.198L625.33 309.855C624.939 310.245 624.939 310.878 625.33 311.269C625.72 311.659 626.354 311.659 626.744 311.269L633.108 304.905ZM503.602 305.198H632.401V303.198H503.602V305.198Z" fill="#2a3754"/>
<path d="M660.625 293.617H662.505V280.517H666.925V278.957H656.205V280.517H660.625V293.617ZM672.074 293.897C674.734 293.897 677.094 291.797 677.094 288.217C677.094 284.577 674.734 282.497 672.074 282.497C669.394 282.497 667.034 284.577 667.034 288.217C667.034 291.797 669.394 293.897 672.074 293.897ZM672.074 292.377C670.174 292.377 668.914 290.697 668.914 288.217C668.914 285.697 670.174 284.017 672.074 284.017C673.954 284.017 675.214 285.697 675.214 288.217C675.214 290.697 673.954 292.377 672.074 292.377ZM683.663 293.897C684.983 293.897 686.123 293.197 686.983 292.337H687.023L687.183 293.617H688.683V277.717H686.863V281.877L686.943 283.757C686.003 282.957 685.163 282.497 683.903 282.497C681.423 282.497 679.183 284.677 679.183 288.217C679.183 291.837 680.943 293.897 683.663 293.897ZM684.063 292.357C682.163 292.357 681.083 290.797 681.083 288.197C681.083 285.717 682.463 284.017 684.203 284.017C685.103 284.017 685.943 284.337 686.863 285.177V290.877C685.963 291.857 685.083 292.357 684.063 292.357ZM694.886 293.897C696.226 293.897 697.446 293.197 698.466 292.337H698.546L698.706 293.617H700.206V286.957C700.206 284.257 699.086 282.497 696.426 282.497C694.686 282.497 693.166 283.257 692.166 283.897L692.886 285.177C693.726 284.597 694.866 283.997 696.146 283.997C697.926 283.997 698.366 285.337 698.366 286.737C693.746 287.257 691.706 288.437 691.706 290.797C691.706 292.757 693.066 293.897 694.886 293.897ZM695.386 292.417C694.326 292.417 693.486 291.917 693.486 290.677C693.486 289.277 694.706 288.377 698.366 287.957V290.977C697.326 291.917 696.446 292.417 695.386 292.417ZM703.815 298.317C705.995 298.317 707.115 296.677 707.875 294.537L711.975 282.757H710.195L708.235 288.797C707.955 289.777 707.635 290.857 707.335 291.857H707.235C706.875 290.857 706.515 289.757 706.175 288.797L703.955 282.757H702.075L706.435 293.637L706.195 294.457C705.735 295.797 704.955 296.797 703.735 296.797C703.435 296.797 703.115 296.717 702.915 296.637L702.555 298.097C702.895 298.237 703.315 298.317 703.815 298.317Z" fill="black"/>
<path d="M423.339 293.617H432.539V292.057H428.479C427.739 292.057 426.859 292.117 426.079 292.197C429.539 288.937 431.839 285.957 431.839 283.017C431.839 280.397 430.199 278.697 427.579 278.697C425.719 278.697 424.439 279.557 423.239 280.857L424.299 281.877C425.119 280.917 426.159 280.177 427.359 280.177C429.179 280.177 430.039 281.417 430.039 283.097C430.039 285.597 427.939 288.537 423.339 292.557V293.617ZM439.113 293.897C441.873 293.897 443.653 291.357 443.653 286.237C443.653 281.157 441.873 278.697 439.113 278.697C436.313 278.697 434.533 281.157 434.533 286.237C434.533 291.357 436.313 293.897 439.113 293.897ZM439.113 292.417C437.433 292.417 436.293 290.557 436.293 286.237C436.293 281.977 437.433 280.157 439.113 280.157C440.773 280.157 441.893 281.977 441.893 286.237C441.893 290.557 440.773 292.417 439.113 292.417ZM445.527 293.617H454.727V292.057H450.667C449.927 292.057 449.047 292.117 448.267 292.197C451.727 288.937 454.027 285.957 454.027 283.017C454.027 280.397 452.387 278.697 449.767 278.697C447.907 278.697 446.627 279.557 445.427 280.857L446.487 281.877C447.307 280.917 448.347 280.177 449.547 280.177C451.367 280.177 452.227 281.417 452.227 283.097C452.227 285.597 450.127 288.537 445.527 292.557V293.617ZM457.5 293.617H465.54V292.097H462.58V278.957H461.18C460.4 279.437 459.46 279.777 458.14 279.997V281.177H460.76V292.097H457.5V293.617Z" fill="black"/>
<path d="M68.3994 283.037H71.9194V267.677C71.9194 264.557 71.6394 261.477 71.4394 258.517H71.6394L74.7994 264.557L85.4394 283.037H89.2794V253.717H85.7194V268.957C85.7194 271.997 85.9994 275.317 86.2394 278.277H86.0394L82.8794 272.197L72.1994 253.717H68.3994V283.037ZM105.426 283.597C110.746 283.597 115.466 279.397 115.466 272.237C115.466 264.957 110.746 260.797 105.426 260.797C100.066 260.797 95.3457 264.957 95.3457 272.237C95.3457 279.397 100.066 283.597 105.426 283.597ZM105.426 280.557C101.626 280.557 99.1057 277.197 99.1057 272.237C99.1057 267.197 101.626 263.837 105.426 263.837C109.186 263.837 111.706 267.197 111.706 272.237C111.706 277.197 109.186 280.557 105.426 280.557ZM125.65 283.037H129.89L137.57 261.317H134.01L129.85 273.717C129.21 275.837 128.53 278.037 127.85 280.077H127.69C127.01 278.037 126.33 275.837 125.69 273.717L121.57 261.317H117.81L125.65 283.037ZM145.814 283.597C148.494 283.597 150.934 282.197 152.974 280.477H153.134L153.454 283.037H156.454V269.717C156.454 264.317 154.214 260.797 148.894 260.797C145.414 260.797 142.374 262.317 140.374 263.597L141.814 266.157C143.494 264.997 145.774 263.797 148.334 263.797C151.894 263.797 152.774 266.477 152.774 269.277C143.534 270.317 139.454 272.677 139.454 277.397C139.454 281.317 142.174 283.597 145.814 283.597ZM146.814 280.637C144.694 280.637 143.014 279.637 143.014 277.157C143.014 274.357 145.454 272.557 152.774 271.717V277.757C150.694 279.637 148.934 280.637 146.814 280.637ZM172.618 283.037H176.338V253.717H172.618V283.037ZM184.337 283.037H187.697V266.837C187.697 264.277 187.417 260.757 187.217 258.157H187.377L189.697 264.837L195.257 280.117H197.737L203.297 264.837L205.617 258.157H205.817C205.617 260.757 205.337 264.277 205.337 266.837V283.037H208.777V253.717H204.297L198.737 269.437C198.057 271.437 197.417 273.477 196.697 275.557H196.537C195.817 273.477 195.137 271.437 194.417 269.437L188.777 253.717H184.337V283.037ZM224.918 283.597C231.078 283.597 234.878 279.917 234.878 275.277C234.878 270.917 232.278 268.877 228.838 267.397L224.678 265.597C222.398 264.637 219.838 263.597 219.838 260.717C219.838 258.117 221.998 256.437 225.318 256.437C227.998 256.437 230.158 257.517 231.958 259.197L233.918 256.837C231.878 254.677 228.798 253.197 225.318 253.197C219.958 253.197 216.078 256.477 216.078 260.997C216.078 265.277 219.278 267.357 222.038 268.517L226.238 270.357C228.998 271.557 231.118 272.517 231.118 275.557C231.118 278.397 228.838 280.317 224.998 280.317C221.958 280.317 218.998 278.917 216.878 276.677L214.678 279.237C217.238 281.917 220.798 283.597 224.918 283.597ZM79.401 308.857C80.701 308.857 81.881 307.757 81.881 306.177C81.881 304.557 80.701 303.457 79.401 303.457C78.061 303.457 76.881 304.557 76.881 306.177C76.881 307.757 78.061 308.857 79.401 308.857ZM96.3994 312.037H98.0794V303.937C98.0794 302.657 97.9394 300.897 97.8394 299.597H97.9194L99.0794 302.937L101.859 310.577H103.099L105.879 302.937L107.039 299.597H107.139C107.039 300.897 106.899 302.657 106.899 303.937V312.037H108.619V297.377H106.379L103.599 305.237C103.259 306.237 102.939 307.257 102.579 308.297H102.499C102.139 307.257 101.799 306.237 101.439 305.237L98.6194 297.377H96.3994V312.037ZM115.31 312.317C117.87 312.317 119.25 310.857 119.25 309.077C119.25 307.017 117.53 306.377 115.95 305.777C114.71 305.337 113.61 304.937 113.61 303.897C113.61 303.057 114.23 302.337 115.61 302.337C116.57 302.337 117.35 302.757 118.09 303.297L118.97 302.137C118.13 301.457 116.93 300.917 115.59 300.917C113.23 300.917 111.85 302.257 111.85 303.977C111.85 305.837 113.51 306.557 115.01 307.137C116.21 307.577 117.51 308.077 117.51 309.177C117.51 310.137 116.79 310.897 115.35 310.897C114.05 310.897 113.09 310.357 112.15 309.597L111.25 310.817C112.27 311.657 113.77 312.317 115.31 312.317ZM126.085 312.317C127.385 312.317 128.645 311.797 129.605 310.937L128.825 309.717C128.145 310.317 127.245 310.797 126.265 310.797C124.265 310.797 122.885 309.117 122.885 306.637C122.885 304.117 124.325 302.437 126.325 302.437C127.165 302.437 127.845 302.817 128.485 303.397L129.405 302.197C128.645 301.497 127.645 300.917 126.225 300.917C123.445 300.917 121.005 302.997 121.005 306.637C121.005 310.217 123.205 312.317 126.085 312.317ZM136.653 312.037H140.413C144.833 312.037 147.233 309.317 147.233 304.657C147.233 299.997 144.833 297.377 140.313 297.377H136.653V312.037ZM138.513 310.517V298.897H140.173C143.613 298.897 145.333 300.937 145.333 304.657C145.333 308.377 143.613 310.517 140.173 310.517H138.513ZM152.763 312.317C154.103 312.317 155.323 311.617 156.343 310.757H156.423L156.583 312.037H158.083V305.377C158.083 302.677 156.963 300.917 154.303 300.917C152.563 300.917 151.043 301.677 150.043 302.317L150.763 303.597C151.603 303.017 152.743 302.417 154.023 302.417C155.803 302.417 156.243 303.757 156.243 305.157C151.623 305.677 149.583 306.857 149.583 309.217C149.583 311.177 150.943 312.317 152.763 312.317ZM153.263 310.837C152.203 310.837 151.363 310.337 151.363 309.097C151.363 307.697 152.583 306.797 156.243 306.377V309.397C155.203 310.337 154.323 310.837 153.263 310.837ZM164.581 312.317C165.261 312.317 165.981 312.117 166.581 311.897L166.221 310.537C165.881 310.677 165.381 310.837 165.001 310.837C163.741 310.837 163.321 310.057 163.321 308.737V302.657H166.261V301.177H163.321V298.117H161.781L161.581 301.177L159.881 301.297V302.657H161.501V308.697C161.501 310.857 162.261 312.317 164.581 312.317ZM170.673 312.317C172.013 312.317 173.233 311.617 174.253 310.757H174.333L174.493 312.037H175.993V305.377C175.993 302.677 174.873 300.917 172.213 300.917C170.473 300.917 168.953 301.677 167.953 302.317L168.673 303.597C169.513 303.017 170.653 302.417 171.933 302.417C173.713 302.417 174.153 303.757 174.153 305.157C169.533 305.677 167.493 306.857 167.493 309.217C167.493 311.177 168.853 312.317 170.673 312.317ZM171.173 310.837C170.113 310.837 169.273 310.337 169.273 309.097C169.273 307.697 170.493 306.797 174.153 306.377V309.397C173.113 310.337 172.233 310.837 171.173 310.837ZM188.135 312.317C191.215 312.317 193.115 310.477 193.115 308.157C193.115 305.977 191.815 304.957 190.095 304.217L188.015 303.317C186.875 302.837 185.595 302.317 185.595 300.877C185.595 299.577 186.675 298.737 188.335 298.737C189.675 298.737 190.755 299.277 191.655 300.117L192.635 298.937C191.615 297.857 190.075 297.117 188.335 297.117C185.655 297.117 183.715 298.757 183.715 301.017C183.715 303.157 185.315 304.197 186.695 304.777L188.795 305.697C190.175 306.297 191.235 306.777 191.235 308.297C191.235 309.717 190.095 310.677 188.175 310.677C186.655 310.677 185.175 309.977 184.115 308.857L183.015 310.137C184.295 311.477 186.075 312.317 188.135 312.317ZM200.089 312.317C201.389 312.317 202.649 311.797 203.609 310.937L202.829 309.717C202.149 310.317 201.249 310.797 200.269 310.797C198.269 310.797 196.889 309.117 196.889 306.637C196.889 304.117 198.329 302.437 200.329 302.437C201.169 302.437 201.849 302.817 202.489 303.397L203.409 302.197C202.649 301.497 201.649 300.917 200.229 300.917C197.449 300.917 195.009 302.997 195.009 306.637C195.009 310.217 197.209 312.317 200.089 312.317ZM206.025 312.037H207.845V301.177H206.025V312.037ZM206.945 298.937C207.645 298.937 208.165 298.477 208.165 297.717C208.165 297.017 207.645 296.557 206.945 296.557C206.225 296.557 205.725 297.017 205.725 297.717C205.725 298.477 206.225 298.937 206.945 298.937ZM215.912 312.317C217.392 312.317 218.532 311.817 219.492 311.197L218.832 309.977C218.032 310.517 217.172 310.857 216.132 310.857C214.052 310.857 212.652 309.357 212.512 307.057H219.832C219.892 306.777 219.912 306.397 219.912 306.017C219.912 302.897 218.352 300.917 215.592 300.917C213.092 300.917 210.712 303.097 210.712 306.637C210.712 310.197 213.012 312.317 215.912 312.317ZM212.492 305.737C212.732 303.597 214.092 302.377 215.612 302.377C217.332 302.377 218.312 303.557 218.312 305.737H212.492ZM222.607 312.037H224.427V304.157C225.507 303.077 226.287 302.497 227.387 302.497C228.827 302.497 229.447 303.357 229.447 305.397V312.037H231.287V305.157C231.287 302.397 230.247 300.917 227.967 300.917C226.467 300.917 225.347 301.737 224.327 302.757H224.267L224.087 301.177H222.607V312.037ZM239.074 312.317C240.374 312.317 241.634 311.797 242.594 310.937L241.814 309.717C241.134 310.317 240.234 310.797 239.254 310.797C237.254 310.797 235.874 309.117 235.874 306.637C235.874 304.117 237.314 302.437 239.314 302.437C240.154 302.437 240.834 302.817 241.474 303.397L242.394 302.197C241.634 301.497 240.634 300.917 239.214 300.917C236.434 300.917 233.994 302.997 233.994 306.637C233.994 310.217 236.194 312.317 239.074 312.317ZM248.862 312.317C250.342 312.317 251.482 311.817 252.442 311.197L251.782 309.977C250.982 310.517 250.122 310.857 249.082 310.857C247.002 310.857 245.602 309.357 245.462 307.057H252.782C252.842 306.777 252.862 306.397 252.862 306.017C252.862 302.897 251.302 300.917 248.542 300.917C246.042 300.917 243.662 303.097 243.662 306.637C243.662 310.197 245.962 312.317 248.862 312.317ZM245.442 305.737C245.682 303.597 247.042 302.377 248.562 302.377C250.282 302.377 251.262 303.557 251.262 305.737H245.442ZM262.528 312.317C263.868 312.317 265.088 311.617 266.108 310.757H266.188L266.348 312.037H267.848V305.377C267.848 302.677 266.728 300.917 264.068 300.917C262.328 300.917 260.808 301.677 259.808 302.317L260.528 303.597C261.368 303.017 262.508 302.417 263.788 302.417C265.568 302.417 266.008 303.757 266.008 305.157C261.388 305.677 259.348 306.857 259.348 309.217C259.348 311.177 260.708 312.317 262.528 312.317ZM263.028 310.837C261.968 310.837 261.128 310.337 261.128 309.097C261.128 307.697 262.348 306.797 266.008 306.377V309.397C264.968 310.337 264.088 310.837 263.028 310.837ZM271.298 312.037H273.118V304.157C274.198 303.077 274.978 302.497 276.078 302.497C277.518 302.497 278.138 303.357 278.138 305.397V312.037H279.978V305.157C279.978 302.397 278.938 300.917 276.658 300.917C275.158 300.917 274.038 301.737 273.018 302.757H272.958L272.778 301.177H271.298V312.037ZM287.185 312.317C288.505 312.317 289.645 311.617 290.505 310.757H290.545L290.705 312.037H292.205V296.137H290.385V300.297L290.465 302.177C289.525 301.377 288.685 300.917 287.425 300.917C284.945 300.917 282.705 303.097 282.705 306.637C282.705 310.257 284.465 312.317 287.185 312.317ZM287.585 310.777C285.685 310.777 284.605 309.217 284.605 306.617C284.605 304.137 285.985 302.437 287.725 302.437C288.625 302.437 289.465 302.757 290.385 303.597V309.297C289.485 310.277 288.605 310.777 287.585 310.777ZM300.54 312.037H305.22C308.48 312.037 310.76 310.617 310.76 307.757C310.76 305.757 309.54 304.577 307.78 304.237V304.157C309.16 303.697 309.92 302.417 309.92 300.977C309.92 298.397 307.86 297.377 304.88 297.377H300.54V312.037ZM302.4 303.617V298.837H304.66C306.94 298.837 308.1 299.477 308.1 301.197C308.1 302.697 307.08 303.617 304.56 303.617H302.4ZM302.4 310.577V305.037H304.96C307.52 305.037 308.96 305.877 308.96 307.697C308.96 309.677 307.46 310.577 304.96 310.577H302.4ZM316.685 312.317C318.185 312.317 319.265 311.517 320.285 310.337H320.325L320.485 312.037H321.985V301.177H320.165V308.897C319.145 310.177 318.345 310.717 317.245 310.717C315.805 310.717 315.185 309.857 315.185 307.837V301.177H313.365V308.057C313.365 310.837 314.405 312.317 316.685 312.317ZM328.513 312.317C331.073 312.317 332.453 310.857 332.453 309.077C332.453 307.017 330.733 306.377 329.153 305.777C327.913 305.337 326.813 304.937 326.813 303.897C326.813 303.057 327.433 302.337 328.813 302.337C329.773 302.337 330.553 302.757 331.293 303.297L332.173 302.137C331.333 301.457 330.133 300.917 328.793 300.917C326.433 300.917 325.053 302.257 325.053 303.977C325.053 305.837 326.713 306.557 328.213 307.137C329.413 307.577 330.713 308.077 330.713 309.177C330.713 310.137 329.993 310.897 328.553 310.897C327.253 310.897 326.293 310.357 325.353 309.597L324.453 310.817C325.473 311.657 326.973 312.317 328.513 312.317ZM335.028 312.037H336.848V301.177H335.028V312.037ZM335.948 298.937C336.648 298.937 337.168 298.477 337.168 297.717C337.168 297.017 336.648 296.557 335.948 296.557C335.228 296.557 334.728 297.017 334.728 297.717C334.728 298.477 335.228 298.937 335.948 298.937ZM340.536 312.037H342.356V304.157C343.436 303.077 344.216 302.497 345.316 302.497C346.756 302.497 347.376 303.357 347.376 305.397V312.037H349.216V305.157C349.216 302.397 348.176 300.917 345.896 300.917C344.396 300.917 343.276 301.737 342.256 302.757H342.196L342.016 301.177H340.536V312.037ZM357.123 312.317C358.603 312.317 359.743 311.817 360.703 311.197L360.043 309.977C359.243 310.517 358.383 310.857 357.343 310.857C355.263 310.857 353.863 309.357 353.723 307.057H361.043C361.103 306.777 361.123 306.397 361.123 306.017C361.123 302.897 359.563 300.917 356.803 300.917C354.303 300.917 351.923 303.097 351.923 306.637C351.923 310.197 354.223 312.317 357.123 312.317ZM353.703 305.737C353.943 303.597 355.303 302.377 356.823 302.377C358.543 302.377 359.523 303.557 359.523 305.737H353.703ZM366.658 312.317C369.218 312.317 370.598 310.857 370.598 309.077C370.598 307.017 368.878 306.377 367.298 305.777C366.058 305.337 364.958 304.937 364.958 303.897C364.958 303.057 365.578 302.337 366.958 302.337C367.918 302.337 368.698 302.757 369.438 303.297L370.318 302.137C369.478 301.457 368.278 300.917 366.938 300.917C364.578 300.917 363.198 302.257 363.198 303.977C363.198 305.837 364.858 306.557 366.358 307.137C367.558 307.577 368.858 308.077 368.858 309.177C368.858 310.137 368.138 310.897 366.698 310.897C365.398 310.897 364.438 310.357 363.498 309.597L362.598 310.817C363.618 311.657 365.118 312.317 366.658 312.317ZM376.013 312.317C378.573 312.317 379.953 310.857 379.953 309.077C379.953 307.017 378.233 306.377 376.653 305.777C375.413 305.337 374.313 304.937 374.313 303.897C374.313 303.057 374.933 302.337 376.313 302.337C377.273 302.337 378.053 302.757 378.793 303.297L379.673 302.137C378.833 301.457 377.633 300.917 376.293 300.917C373.933 300.917 372.553 302.257 372.553 303.977C372.553 305.837 374.213 306.557 375.713 307.137C376.913 307.577 378.213 308.077 378.213 309.177C378.213 310.137 377.493 310.897 376.053 310.897C374.753 310.897 373.793 310.357 372.853 309.597L371.953 310.817C372.973 311.657 374.473 312.317 376.013 312.317ZM385.221 312.037H387.101L389.681 303.837C390.221 302.197 390.681 300.597 391.161 298.897H391.241C391.721 300.597 392.181 302.197 392.701 303.837L395.281 312.037H397.221L392.261 297.377H390.181L385.221 312.037ZM387.821 307.557H394.581V306.097H387.821V307.557ZM399.169 312.037H400.989V304.157C402.069 303.077 402.849 302.497 403.949 302.497C405.389 302.497 406.009 303.357 406.009 305.397V312.037H407.849V305.157C407.849 302.397 406.809 300.917 404.529 300.917C403.029 300.917 401.909 301.737 400.889 302.757H400.829L400.649 301.177H399.169V312.037ZM413.876 312.317C415.216 312.317 416.436 311.617 417.456 310.757H417.536L417.696 312.037H419.196V305.377C419.196 302.677 418.076 300.917 415.416 300.917C413.676 300.917 412.156 301.677 411.156 302.317L411.876 303.597C412.716 303.017 413.856 302.417 415.136 302.417C416.916 302.417 417.356 303.757 417.356 305.157C412.736 305.677 410.696 306.857 410.696 309.217C410.696 311.177 412.056 312.317 413.876 312.317ZM414.376 310.837C413.316 310.837 412.476 310.337 412.476 309.097C412.476 307.697 413.696 306.797 417.356 306.377V309.397C416.316 310.337 415.436 310.837 414.376 310.837ZM424.566 312.317C425.066 312.317 425.346 312.237 425.606 312.157L425.366 310.757C425.146 310.797 425.066 310.797 424.986 310.797C424.706 310.797 424.466 310.577 424.466 309.997V296.137H422.646V309.877C422.646 311.437 423.186 312.317 424.566 312.317ZM428.489 316.737C430.669 316.737 431.789 315.097 432.549 312.957L436.649 301.177H434.869L432.909 307.217C432.629 308.197 432.309 309.277 432.009 310.277H431.909C431.549 309.277 431.189 308.177 430.849 307.217L428.629 301.177H426.749L431.109 312.057L430.869 312.877C430.409 314.217 429.629 315.217 428.409 315.217C428.109 315.217 427.789 315.137 427.589 315.057L427.229 316.517C427.569 316.657 427.989 316.737 428.489 316.737ZM442.159 312.317C442.839 312.317 443.559 312.117 444.159 311.897L443.799 310.537C443.459 310.677 442.959 310.837 442.579 310.837C441.319 310.837 440.899 310.057 440.899 308.737V302.657H443.839V301.177H440.899V298.117H439.359L439.159 301.177L437.459 301.297V302.657H439.079V308.697C439.079 310.857 439.839 312.317 442.159 312.317ZM446.298 312.037H448.118V301.177H446.298V312.037ZM447.218 298.937C447.918 298.937 448.438 298.477 448.438 297.717C448.438 297.017 447.918 296.557 447.218 296.557C446.498 296.557 445.998 297.017 445.998 297.717C445.998 298.477 446.498 298.937 447.218 298.937ZM456.066 312.317C457.366 312.317 458.626 311.797 459.586 310.937L458.806 309.717C458.126 310.317 457.226 310.797 456.246 310.797C454.246 310.797 452.866 309.117 452.866 306.637C452.866 304.117 454.306 302.437 456.306 302.437C457.146 302.437 457.826 302.817 458.466 303.397L459.386 302.197C458.626 301.497 457.626 300.917 456.206 300.917C453.426 300.917 450.986 302.997 450.986 306.637C450.986 310.217 453.186 312.317 456.066 312.317ZM464.841 312.317C467.401 312.317 468.781 310.857 468.781 309.077C468.781 307.017 467.061 306.377 465.481 305.777C464.241 305.337 463.141 304.937 463.141 303.897C463.141 303.057 463.761 302.337 465.141 302.337C466.101 302.337 466.881 302.757 467.621 303.297L468.501 302.137C467.661 301.457 466.461 300.917 465.121 300.917C462.761 300.917 461.381 302.257 461.381 303.977C461.381 305.837 463.041 306.557 464.541 307.137C465.741 307.577 467.041 308.077 467.041 309.177C467.041 310.137 466.321 310.897 464.881 310.897C463.581 310.897 462.621 310.357 461.681 309.597L460.781 310.817C461.801 311.657 463.301 312.317 464.841 312.317Z" fill="black"/>
<path d="M68.3994 46H72.1194V16.68H68.3994V46ZM88.2382 46.56C94.3982 46.56 98.1982 42.88 98.1982 38.24C98.1982 33.88 95.5982 31.84 92.1582 30.36L87.9982 28.56C85.7182 27.6 83.1582 26.56 83.1582 23.68C83.1582 21.08 85.3182 19.4 88.6382 19.4C91.3182 19.4 93.4782 20.48 95.2782 22.16L97.2382 19.8C95.1982 17.64 92.1182 16.16 88.6382 16.16C83.2782 16.16 79.3982 19.44 79.3982 23.96C79.3982 28.24 82.5982 30.32 85.3582 31.48L89.5582 33.32C92.3182 34.52 94.4382 35.48 94.4382 38.52C94.4382 41.36 92.1582 43.28 88.3182 43.28C85.2782 43.28 82.3182 41.88 80.1982 39.64L77.9982 42.2C80.5582 44.88 84.1182 46.56 88.2382 46.56ZM115.026 46.56C118.826 46.56 121.666 45.04 123.986 42.32L121.986 40C120.106 42.08 117.946 43.28 115.186 43.28C109.586 43.28 106.066 38.68 106.066 31.28C106.066 23.96 109.746 19.4 115.306 19.4C117.786 19.4 119.746 20.52 121.266 22.16L123.306 19.76C121.586 17.88 118.826 16.16 115.266 16.16C107.826 16.16 102.266 21.92 102.266 31.36C102.266 40.88 107.706 46.56 115.026 46.56ZM134.636 46H138.396V19.8H147.236V16.68H125.796V19.8H134.636V46ZM152.501 46H169.821V42.88H156.221V32.16H167.301V29H156.221V19.8H169.381V16.68H152.501V46ZM79.401 71.82C80.701 71.82 81.881 70.72 81.881 69.14C81.881 67.52 80.701 66.42 79.401 66.42C78.061 66.42 76.881 67.52 76.881 69.14C76.881 70.72 78.061 71.82 79.401 71.82ZM96.3994 75H101.079C104.339 75 106.619 73.58 106.619 70.72C106.619 68.72 105.399 67.54 103.639 67.2V67.12C105.019 66.66 105.779 65.38 105.779 63.94C105.779 61.36 103.719 60.34 100.739 60.34H96.3994V75ZM98.2594 66.58V61.8H100.519C102.799 61.8 103.959 62.44 103.959 64.16C103.959 65.66 102.939 66.58 100.419 66.58H98.2594ZM98.2594 73.54V68H100.819C103.379 68 104.819 68.84 104.819 70.66C104.819 72.64 103.319 73.54 100.819 73.54H98.2594ZM112.224 75.28C114.784 75.28 116.164 73.82 116.164 72.04C116.164 69.98 114.444 69.34 112.864 68.74C111.624 68.3 110.524 67.9 110.524 66.86C110.524 66.02 111.144 65.3 112.524 65.3C113.484 65.3 114.264 65.72 115.004 66.26L115.884 65.1C115.044 64.42 113.844 63.88 112.504 63.88C110.144 63.88 108.764 65.22 108.764 66.94C108.764 68.8 110.424 69.52 111.924 70.1C113.124 70.54 114.424 71.04 114.424 72.14C114.424 73.1 113.704 73.86 112.264 73.86C110.964 73.86 110.004 73.32 109.064 72.56L108.164 73.78C109.184 74.62 110.684 75.28 112.224 75.28ZM122.999 75.28C124.299 75.28 125.559 74.76 126.519 73.9L125.739 72.68C125.059 73.28 124.159 73.76 123.179 73.76C121.179 73.76 119.799 72.08 119.799 69.6C119.799 67.08 121.239 65.4 123.239 65.4C124.079 65.4 124.759 65.78 125.399 66.36L126.319 65.16C125.559 64.46 124.559 63.88 123.139 63.88C120.359 63.88 117.919 65.96 117.919 69.6C117.919 73.18 120.119 75.28 122.999 75.28ZM139.107 75.28C141.007 75.28 142.427 74.52 143.587 73.16L142.587 72C141.647 73.04 140.567 73.64 139.187 73.64C136.387 73.64 134.627 71.34 134.627 67.64C134.627 63.98 136.467 61.7 139.247 61.7C140.487 61.7 141.467 62.26 142.227 63.08L143.247 61.88C142.387 60.94 141.007 60.08 139.227 60.08C135.507 60.08 132.727 62.96 132.727 67.68C132.727 72.44 135.447 75.28 139.107 75.28ZM150.381 75.28C153.041 75.28 155.401 73.18 155.401 69.6C155.401 65.96 153.041 63.88 150.381 63.88C147.701 63.88 145.341 65.96 145.341 69.6C145.341 73.18 147.701 75.28 150.381 75.28ZM150.381 73.76C148.481 73.76 147.221 72.08 147.221 69.6C147.221 67.08 148.481 65.4 150.381 65.4C152.261 65.4 153.521 67.08 153.521 69.6C153.521 72.08 152.261 73.76 150.381 73.76ZM158.29 75H160.11V67.12C161.09 66.02 162.01 65.46 162.83 65.46C164.23 65.46 164.87 66.32 164.87 68.36V75H166.69V67.12C167.71 66.02 168.57 65.46 169.41 65.46C170.81 65.46 171.45 66.32 171.45 68.36V75H173.27V68.12C173.27 65.36 172.19 63.88 169.97 63.88C168.65 63.88 167.51 64.74 166.37 65.94C165.95 64.66 165.05 63.88 163.39 63.88C162.09 63.88 160.95 64.7 160.01 65.72H159.95L159.77 64.14H158.29V75ZM176.806 79.58H178.626V75.92L178.586 74.02C179.566 74.82 180.586 75.28 181.566 75.28C184.066 75.28 186.286 73.12 186.286 69.42C186.286 66.06 184.786 63.88 181.966 63.88C180.706 63.88 179.506 64.58 178.526 65.4H178.466L178.286 64.14H176.806V79.58ZM181.286 73.74C180.566 73.74 179.606 73.44 178.626 72.62V66.9C179.686 65.92 180.606 65.4 181.526 65.4C183.586 65.4 184.406 67.02 184.406 69.44C184.406 72.12 183.066 73.74 181.286 73.74ZM192.368 75.28C193.868 75.28 194.948 74.48 195.968 73.3H196.008L196.168 75H197.668V64.14H195.848V71.86C194.828 73.14 194.028 73.68 192.928 73.68C191.488 73.68 190.868 72.82 190.868 70.8V64.14H189.048V71.02C189.048 73.8 190.088 75.28 192.368 75.28ZM204.757 75.28C205.437 75.28 206.157 75.08 206.757 74.86L206.397 73.5C206.057 73.64 205.557 73.8 205.177 73.8C203.917 73.8 203.497 73.02 203.497 71.7V65.62H206.437V64.14H203.497V61.08H201.957L201.757 64.14L200.057 64.26V65.62H201.677V71.66C201.677 73.82 202.437 75.28 204.757 75.28ZM212.924 75.28C214.404 75.28 215.544 74.78 216.504 74.16L215.844 72.94C215.044 73.48 214.184 73.82 213.144 73.82C211.064 73.82 209.664 72.32 209.524 70.02H216.844C216.904 69.74 216.924 69.36 216.924 68.98C216.924 65.86 215.364 63.88 212.604 63.88C210.104 63.88 207.724 66.06 207.724 69.6C207.724 73.16 210.024 75.28 212.924 75.28ZM209.504 68.7C209.744 66.56 211.104 65.34 212.624 65.34C214.344 65.34 215.324 66.52 215.324 68.7H209.504ZM219.618 75H221.438V68.04C222.158 66.18 223.278 65.52 224.178 65.52C224.618 65.52 224.858 65.58 225.238 65.7L225.578 64.1C225.218 63.94 224.898 63.88 224.418 63.88C223.198 63.88 222.078 64.74 221.338 66.12H221.278L221.098 64.14H219.618V75ZM236.065 75.28C239.145 75.28 241.045 73.44 241.045 71.12C241.045 68.94 239.745 67.92 238.025 67.18L235.945 66.28C234.805 65.8 233.525 65.28 233.525 63.84C233.525 62.54 234.605 61.7 236.265 61.7C237.605 61.7 238.685 62.24 239.585 63.08L240.565 61.9C239.545 60.82 238.005 60.08 236.265 60.08C233.585 60.08 231.645 61.72 231.645 63.98C231.645 66.12 233.245 67.16 234.625 67.74L236.725 68.66C238.105 69.26 239.165 69.74 239.165 71.26C239.165 72.68 238.025 73.64 236.105 73.64C234.585 73.64 233.105 72.94 232.045 71.82L230.945 73.1C232.225 74.44 234.005 75.28 236.065 75.28ZM248.019 75.28C249.319 75.28 250.579 74.76 251.539 73.9L250.759 72.68C250.079 73.28 249.179 73.76 248.199 73.76C246.199 73.76 244.819 72.08 244.819 69.6C244.819 67.08 246.259 65.4 248.259 65.4C249.099 65.4 249.779 65.78 250.419 66.36L251.339 65.16C250.579 64.46 249.579 63.88 248.159 63.88C245.379 63.88 242.939 65.96 242.939 69.6C242.939 73.18 245.139 75.28 248.019 75.28ZM253.954 75H255.774V64.14H253.954V75ZM254.874 61.9C255.574 61.9 256.094 61.44 256.094 60.68C256.094 59.98 255.574 59.52 254.874 59.52C254.154 59.52 253.654 59.98 253.654 60.68C253.654 61.44 254.154 61.9 254.874 61.9ZM263.842 75.28C265.322 75.28 266.462 74.78 267.422 74.16L266.762 72.94C265.962 73.48 265.102 73.82 264.062 73.82C261.982 73.82 260.582 72.32 260.442 70.02H267.762C267.822 69.74 267.842 69.36 267.842 68.98C267.842 65.86 266.282 63.88 263.522 63.88C261.022 63.88 258.642 66.06 258.642 69.6C258.642 73.16 260.942 75.28 263.842 75.28ZM260.422 68.7C260.662 66.56 262.022 65.34 263.542 65.34C265.262 65.34 266.242 66.52 266.242 68.7H260.422ZM270.536 75H272.356V67.12C273.436 66.04 274.216 65.46 275.316 65.46C276.756 65.46 277.376 66.32 277.376 68.36V75H279.216V68.12C279.216 65.36 278.176 63.88 275.896 63.88C274.396 63.88 273.276 64.7 272.256 65.72H272.196L272.016 64.14H270.536V75ZM287.003 75.28C288.303 75.28 289.563 74.76 290.523 73.9L289.743 72.68C289.063 73.28 288.163 73.76 287.183 73.76C285.183 73.76 283.803 72.08 283.803 69.6C283.803 67.08 285.243 65.4 287.243 65.4C288.083 65.4 288.763 65.78 289.403 66.36L290.323 65.16C289.563 64.46 288.563 63.88 287.143 63.88C284.363 63.88 281.923 65.96 281.923 69.6C281.923 73.18 284.123 75.28 287.003 75.28ZM296.791 75.28C298.271 75.28 299.411 74.78 300.371 74.16L299.711 72.94C298.911 73.48 298.051 73.82 297.011 73.82C294.931 73.82 293.531 72.32 293.391 70.02H300.711C300.771 69.74 300.791 69.36 300.791 68.98C300.791 65.86 299.231 63.88 296.471 63.88C293.971 63.88 291.591 66.06 291.591 69.6C291.591 73.16 293.891 75.28 296.791 75.28ZM293.371 68.7C293.611 66.56 294.971 65.34 296.491 65.34C298.211 65.34 299.191 66.52 299.191 68.7H293.371Z" fill="black"/>
<circle cx="20" cy="61.4814" r="20" fill="#2a3754"/>
<circle cx="20" cy="770.617" r="20" fill="#2a3754"/>
<circle cx="20" cy="296.543" r="20" fill="#2a3754"/>
<circle cx="20" cy="533.58" r="20" fill="#2a3754"/>
<circle cx="20" cy="119" r="4" fill="#C4C4C4"/>
<circle cx="20" cy="218" r="4" fill="#C4C4C4"/>
<circle cx="20" cy="249" r="4" fill="#C4C4C4"/>
<circle cx="20" cy="185" r="4" fill="#C4C4C4"/>
<circle cx="20" cy="152" r="4" fill="#C4C4C4"/>
<circle cx="20" cy="355" r="4" fill="#C4C4C4"/>
<circle cx="20" cy="454" r="4" fill="#C4C4C4"/>
<circle cx="20" cy="485" r="4" fill="#C4C4C4"/>
<circle cx="20" cy="421" r="4" fill="#C4C4C4"/>
<circle cx="20" cy="388" r="4" fill="#C4C4C4"/>
<circle cx="20" cy="581" r="4" fill="#C4C4C4"/>
<circle cx="20" cy="680" r="4" fill="#C4C4C4"/>
<circle cx="20" cy="711" r="4" fill="#C4C4C4"/>
<circle cx="20" cy="647" r="4" fill="#C4C4C4"/>
<circle cx="20" cy="614" r="4" fill="#C4C4C4"/>
<path d="M656.465 56.5801H665.665V55.0201H661.605C660.865 55.0201 659.985 55.0801 659.205 55.1601C662.665 51.9001 664.965 48.9201 664.965 45.9801C664.965 43.3601 663.325 41.6601 660.705 41.6601C658.845 41.6601 657.565 42.5201 656.365 43.8201L657.425 44.8401C658.245 43.8801 659.285 43.1401 660.485 43.1401C662.305 43.1401 663.165 44.3801 663.165 46.0601C663.165 48.5601 661.065 51.5001 656.465 55.5201V56.5801ZM672.238 56.8601C674.998 56.8601 676.778 54.3201 676.778 49.2001C676.778 44.1201 674.998 41.6601 672.238 41.6601C669.438 41.6601 667.658 44.1201 667.658 49.2001C667.658 54.3201 669.438 56.8601 672.238 56.8601ZM672.238 55.3801C670.558 55.3801 669.418 53.5201 669.418 49.2001C669.418 44.9401 670.558 43.1201 672.238 43.1201C673.898 43.1201 675.018 44.9401 675.018 49.2001C675.018 53.5201 673.898 55.3801 672.238 55.3801ZM678.652 56.5801H687.852V55.0201H683.792C683.052 55.0201 682.172 55.0801 681.392 55.1601C684.852 51.9001 687.152 48.9201 687.152 45.9801C687.152 43.3601 685.512 41.6601 682.892 41.6601C681.032 41.6601 679.752 42.5201 678.552 43.8201L679.612 44.8401C680.432 43.8801 681.472 43.1401 682.672 43.1401C684.492 43.1401 685.352 44.3801 685.352 46.0601C685.352 48.5601 683.252 51.5001 678.652 55.5201V56.5801ZM690.626 56.5801H698.666V55.0601H695.706V41.9201H694.306C693.526 42.4001 692.586 42.7401 691.266 42.9601V44.1401H693.886V55.0601H690.626V56.5801Z" fill="black"/>
<path d="M633.108 65.8922C633.499 65.5016 633.499 64.8685 633.108 64.478L626.744 58.114C626.354 57.7235 625.72 57.7235 625.33 58.114C624.939 58.5045 624.939 59.1377 625.33 59.5282L630.987 65.1851L625.33 70.8419C624.939 71.2324 624.939 71.8656 625.33 72.2561C625.72 72.6467 626.354 72.6467 626.744 72.2561L633.108 65.8922ZM503.602 66.1851H632.401V64.1851H503.602V66.1851Z" fill="#2a3754"/>
<path d="M423.339 54.605H432.539V53.045H428.479C427.739 53.045 426.859 53.105 426.079 53.185C429.539 49.925 431.839 46.945 431.839 44.005C431.839 41.385 430.199 39.685 427.579 39.685C425.719 39.685 424.439 40.545 423.239 41.845L424.299 42.865C425.119 41.905 426.159 41.165 427.359 41.165C429.179 41.165 430.039 42.405 430.039 44.085C430.039 46.585 427.939 49.525 423.339 53.545V54.605ZM439.113 54.885C441.873 54.885 443.653 52.345 443.653 47.225C443.653 42.145 441.873 39.685 439.113 39.685C436.313 39.685 434.533 42.145 434.533 47.225C434.533 52.345 436.313 54.885 439.113 54.885ZM439.113 53.405C437.433 53.405 436.293 51.545 436.293 47.225C436.293 42.965 437.433 41.145 439.113 41.145C440.773 41.145 441.893 42.965 441.893 47.225C441.893 51.545 440.773 53.405 439.113 53.405ZM446.407 54.605H454.447V53.085H451.487V39.945H450.087C449.307 40.425 448.367 40.765 447.047 40.985V42.165H449.667V53.085H446.407V54.605ZM461.32 54.885C464.06 54.885 465.92 53.225 465.92 51.085C465.92 49.085 464.72 47.965 463.44 47.225V47.125C464.32 46.445 465.4 45.145 465.4 43.585C465.4 41.345 463.88 39.745 461.38 39.745C459.08 39.745 457.34 41.225 457.34 43.445C457.34 44.985 458.26 46.105 459.34 46.845V46.925C458 47.645 456.64 49.005 456.64 50.985C456.64 53.245 458.62 54.885 461.32 54.885ZM462.32 46.665C460.6 45.985 459.02 45.205 459.02 43.445C459.02 42.045 460 41.085 461.34 41.085C462.92 41.085 463.84 42.245 463.84 43.685C463.84 44.785 463.32 45.785 462.32 46.665ZM461.36 53.505C459.6 53.505 458.28 52.365 458.28 50.805C458.28 49.405 459.1 48.245 460.3 47.485C462.36 48.325 464.16 49.065 464.16 51.025C464.16 52.485 463.04 53.505 461.36 53.505Z" fill="black"/>
<path d="M529.443 35.9878C531.408 35.9878 532.983 34.8328 532.983 32.9278C532.983 31.4728 531.933 30.5128 530.643 30.2128V30.1528C531.813 29.7178 532.593 28.8928 532.593 27.6028C532.593 25.8778 531.243 24.9028 529.398 24.9028C528.138 24.9028 527.163 25.4578 526.338 26.2228L527.073 27.0928C527.688 26.4628 528.468 25.9978 529.353 25.9978C530.493 25.9978 531.198 26.6578 531.198 27.6928C531.198 28.8178 530.433 29.7028 528.168 29.7028V30.7528C530.703 30.7528 531.588 31.6078 531.588 32.8828C531.588 34.0828 530.658 34.8478 529.353 34.8478C528.093 34.8478 527.268 34.2478 526.623 33.5728L525.933 34.4728C526.653 35.2678 527.718 35.9878 529.443 35.9878ZM538.673 39.3028C540.308 39.3028 541.148 38.0728 541.718 36.4678L544.793 27.6328H543.458L541.988 32.1628C541.778 32.8978 541.538 33.7078 541.313 34.4578H541.238C540.968 33.7078 540.698 32.8828 540.443 32.1628L538.778 27.6328H537.368L540.638 35.7928L540.458 36.4078C540.113 37.4128 539.528 38.1628 538.613 38.1628C538.388 38.1628 538.148 38.1028 537.998 38.0428L537.728 39.1378C537.983 39.2428 538.298 39.3028 538.673 39.3028ZM549.558 35.9878C550.668 35.9878 551.523 35.6128 552.243 35.1478L551.748 34.2328C551.148 34.6378 550.503 34.8928 549.723 34.8928C548.163 34.8928 547.113 33.7678 547.008 32.0428H552.498C552.543 31.8328 552.558 31.5478 552.558 31.2628C552.558 28.9228 551.388 27.4378 549.318 27.4378C547.443 27.4378 545.658 29.0728 545.658 31.7278C545.658 34.3978 547.383 35.9878 549.558 35.9878ZM546.993 31.0528C547.173 29.4478 548.193 28.5328 549.333 28.5328C550.623 28.5328 551.358 29.4178 551.358 31.0528H546.993ZM556.175 35.9878C557.18 35.9878 558.095 35.4628 558.86 34.8178H558.92L559.04 35.7778H560.165V30.7828C560.165 28.7578 559.325 27.4378 557.33 27.4378C556.025 27.4378 554.885 28.0078 554.135 28.4878L554.675 29.4478C555.305 29.0128 556.16 28.5628 557.12 28.5628C558.455 28.5628 558.785 29.5678 558.785 30.6178C555.32 31.0078 553.79 31.8928 553.79 33.6628C553.79 35.1328 554.81 35.9878 556.175 35.9878ZM556.55 34.8778C555.755 34.8778 555.125 34.5028 555.125 33.5728C555.125 32.5228 556.04 31.8478 558.785 31.5328V33.7978C558.005 34.5028 557.345 34.8778 556.55 34.8778ZM562.752 35.7778H564.117V30.5578C564.657 29.1628 565.497 28.6678 566.172 28.6678C566.502 28.6678 566.682 28.7128 566.967 28.8028L567.222 27.6028C566.952 27.4828 566.712 27.4378 566.352 27.4378C565.437 27.4378 564.597 28.0828 564.042 29.1178H563.997L563.862 27.6328H562.752V35.7778ZM570.595 35.9878C572.515 35.9878 573.55 34.8928 573.55 33.5578C573.55 32.0128 572.26 31.5328 571.075 31.0828C570.145 30.7528 569.32 30.4528 569.32 29.6728C569.32 29.0428 569.785 28.5028 570.82 28.5028C571.54 28.5028 572.125 28.8178 572.68 29.2228L573.34 28.3528C572.71 27.8428 571.81 27.4378 570.805 27.4378C569.035 27.4378 568 28.4428 568 29.7328C568 31.1278 569.245 31.6678 570.37 32.1028C571.27 32.4328 572.245 32.8078 572.245 33.6328C572.245 34.3528 571.705 34.9228 570.625 34.9228C569.65 34.9228 568.93 34.5178 568.225 33.9478L567.55 34.8628C568.315 35.4928 569.44 35.9878 570.595 35.9878Z" fill="black"/>
</svg>
