<svg width="566" height="405" viewBox="0 0 566 405" fill="none" xmlns="http://www.w3.org/2000/svg">
<path d="M491.707 154.707C492.098 154.317 492.098 153.683 491.707 153.293L485.343 146.929C484.953 146.538 484.319 146.538 483.929 146.929C483.538 147.319 483.538 147.953 483.929 148.343L489.586 154L483.929 159.657C483.538 160.047 483.538 160.681 483.929 161.071C484.319 161.462 484.953 161.462 485.343 161.071L491.707 154.707ZM391 155H491V153H391V155Z" fill="white"/>
<path d="M514.04 160H515.92V146.9H520.34V145.34H509.62V146.9H514.04V160ZM525.49 160.28C528.15 160.28 530.51 158.18 530.51 154.6C530.51 150.96 528.15 148.88 525.49 148.88C522.81 148.88 520.45 150.96 520.45 154.6C520.45 158.18 522.81 160.28 525.49 160.28ZM525.49 158.76C523.59 158.76 522.33 157.08 522.33 154.6C522.33 152.08 523.59 150.4 525.49 150.4C527.37 150.4 528.63 152.08 528.63 154.6C528.63 157.08 527.37 158.76 525.49 158.76ZM537.079 160.28C538.399 160.28 539.539 159.58 540.399 158.72H540.439L540.599 160H542.099V144.1H540.279V148.26L540.359 150.14C539.419 149.34 538.579 148.88 537.319 148.88C534.839 148.88 532.599 151.06 532.599 154.6C532.599 158.22 534.359 160.28 537.079 160.28ZM537.479 158.74C535.579 158.74 534.499 157.18 534.499 154.58C534.499 152.1 535.879 150.4 537.619 150.4C538.519 150.4 539.359 150.72 540.279 151.56V157.26C539.379 158.24 538.499 158.74 537.479 158.74ZM548.301 160.28C549.641 160.28 550.861 159.58 551.881 158.72H551.961L552.121 160H553.621V153.34C553.621 150.64 552.501 148.88 549.841 148.88C548.101 148.88 546.581 149.64 545.581 150.28L546.301 151.56C547.141 150.98 548.281 150.38 549.561 150.38C551.341 150.38 551.781 151.72 551.781 153.12C547.161 153.64 545.121 154.82 545.121 157.18C545.121 159.14 546.481 160.28 548.301 160.28ZM548.801 158.8C547.741 158.8 546.901 158.3 546.901 157.06C546.901 155.66 548.121 154.76 551.781 154.34V157.36C550.741 158.3 549.861 158.8 548.801 158.8ZM557.23 164.7C559.41 164.7 560.53 163.06 561.29 160.92L565.39 149.14H563.61L561.65 155.18C561.37 156.16 561.05 157.24 560.75 158.24H560.65C560.29 157.24 559.93 156.14 559.59 155.18L557.37 149.14H555.49L559.85 160.02L559.61 160.84C559.15 162.18 558.37 163.18 557.15 163.18C556.85 163.18 556.53 163.1 556.33 163.02L555.97 164.48C556.31 164.62 556.73 164.7 557.23 164.7Z" fill="white"/>
<path d="M328.88 160H338.08V158.44H334.02C333.28 158.44 332.4 158.5 331.62 158.58C335.08 155.32 337.38 152.34 337.38 149.4C337.38 146.78 335.74 145.08 333.12 145.08C331.26 145.08 329.98 145.94 328.78 147.24L329.84 148.26C330.66 147.3 331.7 146.56 332.9 146.56C334.72 146.56 335.58 147.8 335.58 149.48C335.58 151.98 333.48 154.92 328.88 158.94V160ZM344.654 160.28C347.414 160.28 349.194 157.74 349.194 152.62C349.194 147.54 347.414 145.08 344.654 145.08C341.854 145.08 340.074 147.54 340.074 152.62C340.074 157.74 341.854 160.28 344.654 160.28ZM344.654 158.8C342.974 158.8 341.834 156.94 341.834 152.62C341.834 148.36 342.974 146.54 344.654 146.54C346.314 146.54 347.434 148.36 347.434 152.62C347.434 156.94 346.314 158.8 344.654 158.8ZM351.068 160H360.268V158.44H356.208C355.467 158.44 354.588 158.5 353.808 158.58C357.268 155.32 359.568 152.34 359.568 149.4C359.568 146.78 357.928 145.08 355.308 145.08C353.448 145.08 352.168 145.94 350.968 147.24L352.028 148.26C352.848 147.3 353.888 146.56 355.088 146.56C356.908 146.56 357.768 147.8 357.768 149.48C357.768 151.98 355.668 154.92 351.068 158.94V160ZM363.041 160H371.081V158.48H368.121V145.34H366.721C365.941 145.82 365.001 146.16 363.681 146.38V147.56H366.301V158.48H363.041V160Z" fill="white"/>
<circle cx="12.5" cy="33.5" r="12.5" fill="white"/>
<circle cx="12.5" cy="392.5" r="12.5" fill="white"/>
<circle cx="12.5" cy="152.5" r="12.5" fill="white"/>
<ellipse cx="12.5" cy="63.25" rx="2.5" ry="6.25" fill="white"/>
<ellipse cx="12.5" cy="125.25" rx="2.5" ry="6.25" fill="white"/>
<ellipse cx="12.5" cy="105.25" rx="2.5" ry="6.25" fill="white"/>
<ellipse cx="12.5" cy="85.25" rx="2.5" ry="6.25" fill="white"/>
<ellipse cx="12.5" cy="182.25" rx="2.5" ry="6.25" fill="white"/>
<ellipse cx="12.5" cy="242.25" rx="2.5" ry="6.25" fill="white"/>
<ellipse cx="12.5" cy="222.25" rx="2.5" ry="6.25" fill="white"/>
<ellipse cx="12.5" cy="202.25" rx="2.5" ry="6.25" fill="white"/>
<circle cx="12.5" cy="272.5" r="12.5" fill="white"/>
<ellipse cx="12.5" cy="302.25" rx="2.5" ry="6.25" fill="white"/>
<ellipse cx="12.5" cy="362.25" rx="2.5" ry="6.25" fill="white"/>
<ellipse cx="12.5" cy="342.25" rx="2.5" ry="6.25" fill="white"/>
<ellipse cx="12.5" cy="322.25" rx="2.5" ry="6.25" fill="white"/>
<path d="M54 46H57.72V16.68H54V46ZM73.8388 46.56C79.9988 46.56 83.7988 42.88 83.7988 38.24C83.7988 33.88 81.1988 31.84 77.7588 30.36L73.5988 28.56C71.3188 27.6 68.7588 26.56 68.7588 23.68C68.7588 21.08 70.9188 19.4 74.2388 19.4C76.9188 19.4 79.0788 20.48 80.8788 22.16L82.8387 19.8C80.7988 17.64 77.7188 16.16 74.2388 16.16C68.8788 16.16 64.9988 19.44 64.9988 23.96C64.9988 28.24 68.1988 30.32 70.9588 31.48L75.1588 33.32C77.9188 34.52 80.0388 35.48 80.0388 38.52C80.0388 41.36 77.7588 43.28 73.9188 43.28C70.8788 43.28 67.9188 41.88 65.7988 39.64L63.5988 42.2C66.1588 44.88 69.7188 46.56 73.8388 46.56ZM100.627 46.56C104.427 46.56 107.267 45.04 109.587 42.32L107.587 40C105.707 42.08 103.547 43.28 100.787 43.28C95.1869 43.28 91.6669 38.68 91.6669 31.28C91.6669 23.96 95.3469 19.4 100.907 19.4C103.387 19.4 105.347 20.52 106.867 22.16L108.907 19.76C107.187 17.88 104.427 16.16 100.867 16.16C93.4269 16.16 87.8669 21.92 87.8669 31.36C87.8669 40.88 93.3069 46.56 100.627 46.56ZM120.236 46H123.996V19.8H132.836V16.68H111.396V19.8H120.236V46ZM138.102 46H155.422V42.88H141.822V32.16H152.902V29H141.822V19.8H154.982V16.68H138.102V46ZM65.0016 71.82C66.3016 71.82 67.4816 70.72 67.4816 69.14C67.4816 67.52 66.3016 66.42 65.0016 66.42C63.6616 66.42 62.4816 67.52 62.4816 69.14C62.4816 70.72 63.6616 71.82 65.0016 71.82ZM82 75H86.68C89.94 75 92.22 73.58 92.22 70.72C92.22 68.72 91 67.54 89.24 67.2V67.12C90.62 66.66 91.38 65.38 91.38 63.94C91.38 61.36 89.32 60.34 86.34 60.34H82V75ZM83.86 66.58V61.8H86.12C88.4 61.8 89.56 62.44 89.56 64.16C89.56 65.66 88.54 66.58 86.02 66.58H83.86ZM83.86 73.54V68H86.42C88.98 68 90.42 68.84 90.42 70.66C90.42 72.64 88.92 73.54 86.42 73.54H83.86ZM97.8245 75.28C100.385 75.28 101.765 73.82 101.765 72.04C101.765 69.98 100.045 69.34 98.4645 68.74C97.2245 68.3 96.1245 67.9 96.1245 66.86C96.1245 66.02 96.7445 65.3 98.1245 65.3C99.0845 65.3 99.8645 65.72 100.605 66.26L101.485 65.1C100.645 64.42 99.4445 63.88 98.1045 63.88C95.7445 63.88 94.3645 65.22 94.3645 66.94C94.3645 68.8 96.0245 69.52 97.5245 70.1C98.7245 70.54 100.025 71.04 100.025 72.14C100.025 73.1 99.3045 73.86 97.8645 73.86C96.5645 73.86 95.6045 73.32 94.6645 72.56L93.7645 73.78C94.7845 74.62 96.2845 75.28 97.8245 75.28ZM108.6 75.28C109.9 75.28 111.16 74.76 112.12 73.9L111.34 72.68C110.66 73.28 109.76 73.76 108.78 73.76C106.78 73.76 105.4 72.08 105.4 69.6C105.4 67.08 106.84 65.4 108.84 65.4C109.68 65.4 110.36 65.78 111 66.36L111.92 65.16C111.16 64.46 110.16 63.88 108.74 63.88C105.96 63.88 103.52 65.96 103.52 69.6C103.52 73.18 105.72 75.28 108.6 75.28ZM124.708 75.28C126.608 75.28 128.028 74.52 129.188 73.16L128.188 72C127.248 73.04 126.168 73.64 124.788 73.64C121.988 73.64 120.228 71.34 120.228 67.64C120.228 63.98 122.068 61.7 124.848 61.7C126.088 61.7 127.068 62.26 127.828 63.08L128.848 61.88C127.988 60.94 126.608 60.08 124.828 60.08C121.108 60.08 118.328 62.96 118.328 67.68C118.328 72.44 121.048 75.28 124.708 75.28ZM135.982 75.28C138.642 75.28 141.002 73.18 141.002 69.6C141.002 65.96 138.642 63.88 135.982 63.88C133.302 63.88 130.942 65.96 130.942 69.6C130.942 73.18 133.302 75.28 135.982 75.28ZM135.982 73.76C134.082 73.76 132.822 72.08 132.822 69.6C132.822 67.08 134.082 65.4 135.982 65.4C137.862 65.4 139.122 67.08 139.122 69.6C139.122 72.08 137.862 73.76 135.982 73.76ZM143.891 75H145.711V67.12C146.691 66.02 147.611 65.46 148.431 65.46C149.831 65.46 150.471 66.32 150.471 68.36V75H152.291V67.12C153.311 66.02 154.171 65.46 155.011 65.46C156.411 65.46 157.051 66.32 157.051 68.36V75H158.871V68.12C158.871 65.36 157.791 63.88 155.571 63.88C154.251 63.88 153.111 64.74 151.971 65.94C151.551 64.66 150.651 63.88 148.991 63.88C147.691 63.88 146.551 64.7 145.611 65.72H145.551L145.371 64.14H143.891V75ZM162.406 79.58H164.226V75.92L164.186 74.02C165.166 74.82 166.186 75.28 167.166 75.28C169.666 75.28 171.886 73.12 171.886 69.42C171.886 66.06 170.386 63.88 167.566 63.88C166.306 63.88 165.106 64.58 164.126 65.4H164.066L163.886 64.14H162.406V79.58ZM166.886 73.74C166.166 73.74 165.206 73.44 164.226 72.62V66.9C165.286 65.92 166.206 65.4 167.126 65.4C169.186 65.4 170.006 67.02 170.006 69.44C170.006 72.12 168.666 73.74 166.886 73.74ZM177.969 75.28C179.469 75.28 180.549 74.48 181.569 73.3H181.609L181.769 75H183.269V64.14H181.449V71.86C180.429 73.14 179.629 73.68 178.529 73.68C177.089 73.68 176.469 72.82 176.469 70.8V64.14H174.649V71.02C174.649 73.8 175.689 75.28 177.969 75.28ZM190.357 75.28C191.037 75.28 191.757 75.08 192.357 74.86L191.997 73.5C191.657 73.64 191.157 73.8 190.777 73.8C189.517 73.8 189.097 73.02 189.097 71.7V65.62H192.037V64.14H189.097V61.08H187.557L187.357 64.14L185.657 64.26V65.62H187.277V71.66C187.277 73.82 188.037 75.28 190.357 75.28ZM198.525 75.28C200.005 75.28 201.145 74.78 202.105 74.16L201.445 72.94C200.645 73.48 199.785 73.82 198.745 73.82C196.665 73.82 195.265 72.32 195.125 70.02H202.445C202.505 69.74 202.525 69.36 202.525 68.98C202.525 65.86 200.965 63.88 198.205 63.88C195.705 63.88 193.325 66.06 193.325 69.6C193.325 73.16 195.625 75.28 198.525 75.28ZM195.105 68.7C195.345 66.56 196.705 65.34 198.225 65.34C199.945 65.34 200.925 66.52 200.925 68.7H195.105ZM205.219 75H207.039V68.04C207.759 66.18 208.879 65.52 209.779 65.52C210.219 65.52 210.459 65.58 210.839 65.7L211.179 64.1C210.819 63.94 210.499 63.88 210.019 63.88C208.799 63.88 207.679 64.74 206.939 66.12H206.879L206.699 64.14H205.219V75ZM221.665 75.28C224.745 75.28 226.645 73.44 226.645 71.12C226.645 68.94 225.345 67.92 223.625 67.18L221.545 66.28C220.405 65.8 219.125 65.28 219.125 63.84C219.125 62.54 220.205 61.7 221.865 61.7C223.205 61.7 224.285 62.24 225.185 63.08L226.165 61.9C225.145 60.82 223.605 60.08 221.865 60.08C219.185 60.08 217.245 61.72 217.245 63.98C217.245 66.12 218.845 67.16 220.225 67.74L222.325 68.66C223.705 69.26 224.765 69.74 224.765 71.26C224.765 72.68 223.625 73.64 221.705 73.64C220.185 73.64 218.705 72.94 217.645 71.82L216.545 73.1C217.825 74.44 219.605 75.28 221.665 75.28ZM233.62 75.28C234.92 75.28 236.18 74.76 237.14 73.9L236.36 72.68C235.68 73.28 234.78 73.76 233.8 73.76C231.8 73.76 230.42 72.08 230.42 69.6C230.42 67.08 231.86 65.4 233.86 65.4C234.7 65.4 235.38 65.78 236.02 66.36L236.94 65.16C236.18 64.46 235.18 63.88 233.76 63.88C230.98 63.88 228.54 65.96 228.54 69.6C228.54 73.18 230.74 75.28 233.62 75.28ZM239.555 75H241.375V64.14H239.555V75ZM240.475 61.9C241.175 61.9 241.695 61.44 241.695 60.68C241.695 59.98 241.175 59.52 240.475 59.52C239.755 59.52 239.255 59.98 239.255 60.68C239.255 61.44 239.755 61.9 240.475 61.9ZM249.443 75.28C250.923 75.28 252.063 74.78 253.023 74.16L252.363 72.94C251.563 73.48 250.703 73.82 249.663 73.82C247.583 73.82 246.183 72.32 246.043 70.02H253.363C253.423 69.74 253.443 69.36 253.443 68.98C253.443 65.86 251.883 63.88 249.123 63.88C246.623 63.88 244.243 66.06 244.243 69.6C244.243 73.16 246.543 75.28 249.443 75.28ZM246.023 68.7C246.263 66.56 247.623 65.34 249.143 65.34C250.863 65.34 251.843 66.52 251.843 68.7H246.023ZM256.137 75H257.957V67.12C259.037 66.04 259.817 65.46 260.917 65.46C262.357 65.46 262.977 66.32 262.977 68.36V75H264.817V68.12C264.817 65.36 263.777 63.88 261.497 63.88C259.997 63.88 258.877 64.7 257.857 65.72H257.797L257.617 64.14H256.137V75ZM272.604 75.28C273.904 75.28 275.164 74.76 276.124 73.9L275.344 72.68C274.664 73.28 273.764 73.76 272.784 73.76C270.784 73.76 269.404 72.08 269.404 69.6C269.404 67.08 270.844 65.4 272.844 65.4C273.684 65.4 274.364 65.78 275.004 66.36L275.924 65.16C275.164 64.46 274.164 63.88 272.744 63.88C269.964 63.88 267.524 65.96 267.524 69.6C267.524 73.18 269.724 75.28 272.604 75.28ZM282.392 75.28C283.872 75.28 285.012 74.78 285.972 74.16L285.312 72.94C284.512 73.48 283.652 73.82 282.612 73.82C280.532 73.82 279.132 72.32 278.992 70.02H286.312C286.372 69.74 286.392 69.36 286.392 68.98C286.392 65.86 284.832 63.88 282.072 63.88C279.572 63.88 277.192 66.06 277.192 69.6C277.192 73.16 279.492 75.28 282.392 75.28ZM278.972 68.7C279.212 66.56 280.572 65.34 282.092 65.34C283.812 65.34 284.792 66.52 284.792 68.7H278.972Z" fill="white"/>
<path d="M54 166H57.52V150.64C57.52 147.52 57.24 144.44 57.04 141.48H57.24L60.4 147.52L71.04 166H74.88V136.68H71.32V151.92C71.32 154.96 71.6 158.28 71.84 161.24H71.64L68.48 155.16L57.8 136.68H54V166ZM91.0263 166.56C96.3463 166.56 101.066 162.36 101.066 155.2C101.066 147.92 96.3463 143.76 91.0263 143.76C85.6663 143.76 80.9463 147.92 80.9463 155.2C80.9463 162.36 85.6663 166.56 91.0263 166.56ZM91.0263 163.52C87.2263 163.52 84.7063 160.16 84.7063 155.2C84.7063 150.16 87.2263 146.8 91.0263 146.8C94.7863 146.8 97.3063 150.16 97.3063 155.2C97.3063 160.16 94.7863 163.52 91.0263 163.52ZM111.251 166H115.491L123.171 144.28H119.611L115.451 156.68C114.811 158.8 114.131 161 113.451 163.04H113.291C112.611 161 111.931 158.8 111.291 156.68L107.171 144.28H103.411L111.251 166ZM131.414 166.56C134.094 166.56 136.534 165.16 138.574 163.44H138.734L139.054 166H142.054V152.68C142.054 147.28 139.814 143.76 134.494 143.76C131.014 143.76 127.974 145.28 125.974 146.56L127.414 149.12C129.094 147.96 131.374 146.76 133.934 146.76C137.494 146.76 138.374 149.44 138.374 152.24C129.134 153.28 125.054 155.64 125.054 160.36C125.054 164.28 127.774 166.56 131.414 166.56ZM132.414 163.6C130.294 163.6 128.614 162.6 128.614 160.12C128.614 157.32 131.054 155.52 138.374 154.68V160.72C136.294 162.6 134.534 163.6 132.414 163.6ZM158.219 166H161.939V136.68H158.219V166ZM169.938 166H173.298V149.8C173.298 147.24 173.018 143.72 172.818 141.12H172.978L175.298 147.8L180.858 163.08H183.338L188.898 147.8L191.218 141.12H191.418C191.218 143.72 190.938 147.24 190.938 149.8V166H194.378V136.68H189.898L184.338 152.4C183.658 154.4 183.018 156.44 182.298 158.52H182.138C181.418 156.44 180.738 154.4 180.018 152.4L174.378 136.68H169.938V166ZM210.518 166.56C216.678 166.56 220.478 162.88 220.478 158.24C220.478 153.88 217.878 151.84 214.438 150.36L210.278 148.56C207.998 147.6 205.438 146.56 205.438 143.68C205.438 141.08 207.598 139.4 210.918 139.4C213.598 139.4 215.758 140.48 217.558 142.16L219.518 139.8C217.478 137.64 214.398 136.16 210.918 136.16C205.558 136.16 201.678 139.44 201.678 143.96C201.678 148.24 204.878 150.32 207.638 151.48L211.838 153.32C214.598 154.52 216.718 155.48 216.718 158.52C216.718 161.36 214.438 163.28 210.598 163.28C207.558 163.28 204.598 161.88 202.478 159.64L200.278 162.2C202.838 164.88 206.398 166.56 210.518 166.56ZM65.0016 191.82C66.3016 191.82 67.4816 190.72 67.4816 189.14C67.4816 187.52 66.3016 186.42 65.0016 186.42C63.6616 186.42 62.4816 187.52 62.4816 189.14C62.4816 190.72 63.6616 191.82 65.0016 191.82ZM82 195H83.68V186.9C83.68 185.62 83.54 183.86 83.44 182.56H83.52L84.68 185.9L87.46 193.54H88.7L91.48 185.9L92.64 182.56H92.74C92.64 183.86 92.5 185.62 92.5 186.9V195H94.22V180.34H91.98L89.2 188.2C88.86 189.2 88.54 190.22 88.18 191.26H88.1C87.74 190.22 87.4 189.2 87.04 188.2L84.22 180.34H82V195ZM100.91 195.28C103.47 195.28 104.85 193.82 104.85 192.04C104.85 189.98 103.13 189.34 101.55 188.74C100.31 188.3 99.2105 187.9 99.2105 186.86C99.2105 186.02 99.8305 185.3 101.21 185.3C102.17 185.3 102.95 185.72 103.69 186.26L104.57 185.1C103.73 184.42 102.53 183.88 101.19 183.88C98.8305 183.88 97.4505 185.22 97.4505 186.94C97.4505 188.8 99.1105 189.52 100.61 190.1C101.81 190.54 103.11 191.04 103.11 192.14C103.11 193.1 102.39 193.86 100.95 193.86C99.6505 193.86 98.6905 193.32 97.7505 192.56L96.8505 193.78C97.8705 194.62 99.3705 195.28 100.91 195.28ZM111.686 195.28C112.986 195.28 114.246 194.76 115.206 193.9L114.426 192.68C113.746 193.28 112.846 193.76 111.866 193.76C109.866 193.76 108.486 192.08 108.486 189.6C108.486 187.08 109.926 185.4 111.926 185.4C112.766 185.4 113.446 185.78 114.086 186.36L115.006 185.16C114.246 184.46 113.246 183.88 111.826 183.88C109.046 183.88 106.606 185.96 106.606 189.6C106.606 193.18 108.806 195.28 111.686 195.28ZM122.254 195H126.014C130.434 195 132.834 192.28 132.834 187.62C132.834 182.96 130.434 180.34 125.914 180.34H122.254V195ZM124.114 193.48V181.86H125.774C129.214 181.86 130.934 183.9 130.934 187.62C130.934 191.34 129.214 193.48 125.774 193.48H124.114ZM138.363 195.28C139.703 195.28 140.923 194.58 141.943 193.72H142.023L142.183 195H143.683V188.34C143.683 185.64 142.563 183.88 139.903 183.88C138.163 183.88 136.643 184.64 135.643 185.28L136.363 186.56C137.203 185.98 138.343 185.38 139.623 185.38C141.403 185.38 141.843 186.72 141.843 188.12C137.223 188.64 135.183 189.82 135.183 192.18C135.183 194.14 136.543 195.28 138.363 195.28ZM138.863 193.8C137.803 193.8 136.963 193.3 136.963 192.06C136.963 190.66 138.183 189.76 141.843 189.34V192.36C140.803 193.3 139.923 193.8 138.863 193.8ZM150.181 195.28C150.861 195.28 151.581 195.08 152.181 194.86L151.821 193.5C151.481 193.64 150.981 193.8 150.601 193.8C149.341 193.8 148.921 193.02 148.921 191.7V185.62H151.861V184.14H148.921V181.08H147.381L147.181 184.14L145.481 184.26V185.62H147.101V191.66C147.101 193.82 147.861 195.28 150.181 195.28ZM156.274 195.28C157.614 195.28 158.834 194.58 159.854 193.72H159.934L160.094 195H161.594V188.34C161.594 185.64 160.474 183.88 157.814 183.88C156.074 183.88 154.554 184.64 153.554 185.28L154.274 186.56C155.114 185.98 156.254 185.38 157.534 185.38C159.314 185.38 159.754 186.72 159.754 188.12C155.134 188.64 153.094 189.82 153.094 192.18C153.094 194.14 154.454 195.28 156.274 195.28ZM156.774 193.8C155.714 193.8 154.874 193.3 154.874 192.06C154.874 190.66 156.094 189.76 159.754 189.34V192.36C158.714 193.3 157.834 193.8 156.774 193.8ZM173.736 195.28C176.816 195.28 178.716 193.44 178.716 191.12C178.716 188.94 177.416 187.92 175.696 187.18L173.616 186.28C172.476 185.8 171.196 185.28 171.196 183.84C171.196 182.54 172.276 181.7 173.936 181.7C175.276 181.7 176.356 182.24 177.256 183.08L178.236 181.9C177.216 180.82 175.676 180.08 173.936 180.08C171.256 180.08 169.316 181.72 169.316 183.98C169.316 186.12 170.916 187.16 172.296 187.74L174.396 188.66C175.776 189.26 176.836 189.74 176.836 191.26C176.836 192.68 175.696 193.64 173.776 193.64C172.256 193.64 170.776 192.94 169.716 191.82L168.616 193.1C169.896 194.44 171.676 195.28 173.736 195.28ZM185.69 195.28C186.99 195.28 188.25 194.76 189.21 193.9L188.43 192.68C187.75 193.28 186.85 193.76 185.87 193.76C183.87 193.76 182.49 192.08 182.49 189.6C182.49 187.08 183.93 185.4 185.93 185.4C186.77 185.4 187.45 185.78 188.09 186.36L189.01 185.16C188.25 184.46 187.25 183.88 185.83 183.88C183.05 183.88 180.61 185.96 180.61 189.6C180.61 193.18 182.81 195.28 185.69 195.28ZM191.625 195H193.445V184.14H191.625V195ZM192.545 181.9C193.245 181.9 193.765 181.44 193.765 180.68C193.765 179.98 193.245 179.52 192.545 179.52C191.825 179.52 191.325 179.98 191.325 180.68C191.325 181.44 191.825 181.9 192.545 181.9ZM201.513 195.28C202.993 195.28 204.133 194.78 205.093 194.16L204.433 192.94C203.633 193.48 202.773 193.82 201.733 193.82C199.653 193.82 198.253 192.32 198.113 190.02H205.433C205.493 189.74 205.513 189.36 205.513 188.98C205.513 185.86 203.953 183.88 201.193 183.88C198.693 183.88 196.313 186.06 196.313 189.6C196.313 193.16 198.613 195.28 201.513 195.28ZM198.093 188.7C198.333 186.56 199.693 185.34 201.213 185.34C202.933 185.34 203.913 186.52 203.913 188.7H198.093ZM208.207 195H210.027V187.12C211.107 186.04 211.887 185.46 212.987 185.46C214.427 185.46 215.047 186.32 215.047 188.36V195H216.887V188.12C216.887 185.36 215.847 183.88 213.567 183.88C212.067 183.88 210.947 184.7 209.927 185.72H209.867L209.687 184.14H208.207V195ZM224.674 195.28C225.974 195.28 227.234 194.76 228.194 193.9L227.414 192.68C226.734 193.28 225.834 193.76 224.854 193.76C222.854 193.76 221.474 192.08 221.474 189.6C221.474 187.08 222.914 185.4 224.914 185.4C225.754 185.4 226.434 185.78 227.074 186.36L227.994 185.16C227.234 184.46 226.234 183.88 224.814 183.88C222.034 183.88 219.594 185.96 219.594 189.6C219.594 193.18 221.794 195.28 224.674 195.28ZM234.462 195.28C235.942 195.28 237.082 194.78 238.042 194.16L237.382 192.94C236.582 193.48 235.722 193.82 234.682 193.82C232.602 193.82 231.202 192.32 231.062 190.02H238.382C238.442 189.74 238.462 189.36 238.462 188.98C238.462 185.86 236.902 183.88 234.142 183.88C231.642 183.88 229.262 186.06 229.262 189.6C229.262 193.16 231.562 195.28 234.462 195.28ZM231.042 188.7C231.282 186.56 232.642 185.34 234.162 185.34C235.882 185.34 236.862 186.52 236.862 188.7H231.042ZM248.129 195.28C249.469 195.28 250.689 194.58 251.709 193.72H251.789L251.949 195H253.449V188.34C253.449 185.64 252.329 183.88 249.669 183.88C247.929 183.88 246.409 184.64 245.409 185.28L246.129 186.56C246.969 185.98 248.109 185.38 249.389 185.38C251.169 185.38 251.609 186.72 251.609 188.12C246.989 188.64 244.949 189.82 244.949 192.18C244.949 194.14 246.309 195.28 248.129 195.28ZM248.629 193.8C247.569 193.8 246.729 193.3 246.729 192.06C246.729 190.66 247.949 189.76 251.609 189.34V192.36C250.569 193.3 249.689 193.8 248.629 193.8ZM256.899 195H258.719V187.12C259.799 186.04 260.579 185.46 261.679 185.46C263.119 185.46 263.739 186.32 263.739 188.36V195H265.579V188.12C265.579 185.36 264.539 183.88 262.259 183.88C260.759 183.88 259.639 184.7 258.619 185.72H258.559L258.379 184.14H256.899V195ZM272.786 195.28C274.106 195.28 275.246 194.58 276.106 193.72H276.146L276.306 195H277.806V179.1H275.986V183.26L276.066 185.14C275.126 184.34 274.286 183.88 273.026 183.88C270.546 183.88 268.306 186.06 268.306 189.6C268.306 193.22 270.066 195.28 272.786 195.28ZM273.186 193.74C271.286 193.74 270.206 192.18 270.206 189.58C270.206 187.1 271.586 185.4 273.326 185.4C274.226 185.4 275.066 185.72 275.986 186.56V192.26C275.086 193.24 274.206 193.74 273.186 193.74ZM286.141 195H290.821C294.081 195 296.361 193.58 296.361 190.72C296.361 188.72 295.141 187.54 293.381 187.2V187.12C294.761 186.66 295.521 185.38 295.521 183.94C295.521 181.36 293.461 180.34 290.481 180.34H286.141V195ZM288.001 186.58V181.8H290.261C292.541 181.8 293.701 182.44 293.701 184.16C293.701 185.66 292.681 186.58 290.161 186.58H288.001ZM288.001 193.54V188H290.561C293.121 188 294.561 188.84 294.561 190.66C294.561 192.64 293.061 193.54 290.561 193.54H288.001ZM302.285 195.28C303.785 195.28 304.865 194.48 305.885 193.3H305.925L306.085 195H307.585V184.14H305.765V191.86C304.745 193.14 303.945 193.68 302.845 193.68C301.405 193.68 300.785 192.82 300.785 190.8V184.14H298.965V191.02C298.965 193.8 300.005 195.28 302.285 195.28ZM314.114 195.28C316.674 195.28 318.054 193.82 318.054 192.04C318.054 189.98 316.334 189.34 314.754 188.74C313.514 188.3 312.414 187.9 312.414 186.86C312.414 186.02 313.034 185.3 314.414 185.3C315.374 185.3 316.154 185.72 316.894 186.26L317.774 185.1C316.934 184.42 315.734 183.88 314.394 183.88C312.034 183.88 310.654 185.22 310.654 186.94C310.654 188.8 312.314 189.52 313.814 190.1C315.014 190.54 316.314 191.04 316.314 192.14C316.314 193.1 315.594 193.86 314.154 193.86C312.854 193.86 311.894 193.32 310.954 192.56L310.054 193.78C311.074 194.62 312.574 195.28 314.114 195.28ZM320.629 195H322.449V184.14H320.629V195ZM321.549 181.9C322.249 181.9 322.769 181.44 322.769 180.68C322.769 179.98 322.249 179.52 321.549 179.52C320.829 179.52 320.329 179.98 320.329 180.68C320.329 181.44 320.829 181.9 321.549 181.9ZM326.137 195H327.957V187.12C329.037 186.04 329.817 185.46 330.917 185.46C332.357 185.46 332.977 186.32 332.977 188.36V195H334.817V188.12C334.817 185.36 333.777 183.88 331.497 183.88C329.997 183.88 328.877 184.7 327.857 185.72H327.797L327.617 184.14H326.137V195ZM342.724 195.28C344.204 195.28 345.344 194.78 346.304 194.16L345.644 192.94C344.844 193.48 343.984 193.82 342.944 193.82C340.864 193.82 339.464 192.32 339.324 190.02H346.644C346.704 189.74 346.724 189.36 346.724 188.98C346.724 185.86 345.164 183.88 342.404 183.88C339.904 183.88 337.524 186.06 337.524 189.6C337.524 193.16 339.824 195.28 342.724 195.28ZM339.304 188.7C339.544 186.56 340.904 185.34 342.424 185.34C344.144 185.34 345.124 186.52 345.124 188.7H339.304ZM352.258 195.28C354.818 195.28 356.198 193.82 356.198 192.04C356.198 189.98 354.478 189.34 352.898 188.74C351.658 188.3 350.558 187.9 350.558 186.86C350.558 186.02 351.178 185.3 352.558 185.3C353.518 185.3 354.298 185.72 355.038 186.26L355.918 185.1C355.078 184.42 353.878 183.88 352.538 183.88C350.178 183.88 348.798 185.22 348.798 186.94C348.798 188.8 350.458 189.52 351.958 190.1C353.158 190.54 354.458 191.04 354.458 192.14C354.458 193.1 353.738 193.86 352.298 193.86C350.998 193.86 350.038 193.32 349.098 192.56L348.198 193.78C349.218 194.62 350.718 195.28 352.258 195.28ZM361.614 195.28C364.174 195.28 365.554 193.82 365.554 192.04C365.554 189.98 363.834 189.34 362.254 188.74C361.014 188.3 359.914 187.9 359.914 186.86C359.914 186.02 360.534 185.3 361.914 185.3C362.874 185.3 363.654 185.72 364.394 186.26L365.274 185.1C364.434 184.42 363.234 183.88 361.894 183.88C359.534 183.88 358.154 185.22 358.154 186.94C358.154 188.8 359.814 189.52 361.314 190.1C362.514 190.54 363.814 191.04 363.814 192.14C363.814 193.1 363.094 193.86 361.654 193.86C360.354 193.86 359.394 193.32 358.454 192.56L357.554 193.78C358.574 194.62 360.074 195.28 361.614 195.28ZM370.822 195H372.702L375.282 186.8C375.822 185.16 376.282 183.56 376.762 181.86H376.842C377.322 183.56 377.782 185.16 378.302 186.8L380.882 195H382.822L377.862 180.34H375.782L370.822 195ZM373.422 190.52H380.182V189.06H373.422V190.52ZM384.77 195H386.59V187.12C387.67 186.04 388.45 185.46 389.55 185.46C390.99 185.46 391.61 186.32 391.61 188.36V195H393.45V188.12C393.45 185.36 392.41 183.88 390.13 183.88C388.63 183.88 387.51 184.7 386.49 185.72H386.43L386.25 184.14H384.77V195ZM399.477 195.28C400.817 195.28 402.037 194.58 403.057 193.72H403.137L403.297 195H404.797V188.34C404.797 185.64 403.677 183.88 401.017 183.88C399.277 183.88 397.757 184.64 396.757 185.28L397.477 186.56C398.317 185.98 399.457 185.38 400.737 185.38C402.517 185.38 402.957 186.72 402.957 188.12C398.337 188.64 396.297 189.82 396.297 192.18C396.297 194.14 397.657 195.28 399.477 195.28ZM399.977 193.8C398.917 193.8 398.077 193.3 398.077 192.06C398.077 190.66 399.297 189.76 402.957 189.34V192.36C401.917 193.3 401.037 193.8 399.977 193.8ZM410.166 195.28C410.666 195.28 410.946 195.2 411.206 195.12L410.966 193.72C410.746 193.76 410.666 193.76 410.586 193.76C410.306 193.76 410.066 193.54 410.066 192.96V179.1H408.246V192.84C408.246 194.4 408.786 195.28 410.166 195.28ZM414.09 199.7C416.27 199.7 417.39 198.06 418.15 195.92L422.25 184.14H420.47L418.51 190.18C418.23 191.16 417.91 192.24 417.61 193.24H417.51C417.15 192.24 416.79 191.14 416.45 190.18L414.23 184.14H412.35L416.71 195.02L416.47 195.84C416.01 197.18 415.23 198.18 414.01 198.18C413.71 198.18 413.39 198.1 413.19 198.02L412.83 199.48C413.17 199.62 413.59 199.7 414.09 199.7ZM427.76 195.28C428.44 195.28 429.16 195.08 429.76 194.86L429.4 193.5C429.06 193.64 428.56 193.8 428.18 193.8C426.92 193.8 426.5 193.02 426.5 191.7V185.62H429.44V184.14H426.5V181.08H424.96L424.76 184.14L423.06 184.26V185.62H424.68V191.66C424.68 193.82 425.44 195.28 427.76 195.28ZM431.899 195H433.719V184.14H431.899V195ZM432.819 181.9C433.519 181.9 434.039 181.44 434.039 180.68C434.039 179.98 433.519 179.52 432.819 179.52C432.099 179.52 431.599 179.98 431.599 180.68C431.599 181.44 432.099 181.9 432.819 181.9ZM441.666 195.28C442.966 195.28 444.226 194.76 445.186 193.9L444.406 192.68C443.726 193.28 442.826 193.76 441.846 193.76C439.846 193.76 438.466 192.08 438.466 189.6C438.466 187.08 439.906 185.4 441.906 185.4C442.746 185.4 443.426 185.78 444.066 186.36L444.986 185.16C444.226 184.46 443.226 183.88 441.806 183.88C439.026 183.88 436.586 185.96 436.586 189.6C436.586 193.18 438.786 195.28 441.666 195.28ZM450.442 195.28C453.002 195.28 454.382 193.82 454.382 192.04C454.382 189.98 452.662 189.34 451.082 188.74C449.842 188.3 448.742 187.9 448.742 186.86C448.742 186.02 449.362 185.3 450.742 185.3C451.702 185.3 452.482 185.72 453.222 186.26L454.102 185.1C453.262 184.42 452.062 183.88 450.722 183.88C448.362 183.88 446.982 185.22 446.982 186.94C446.982 188.8 448.642 189.52 450.142 190.1C451.342 190.54 452.642 191.04 452.642 192.14C452.642 193.1 451.922 193.86 450.482 193.86C449.182 193.86 448.222 193.32 447.282 192.56L446.382 193.78C447.402 194.62 448.902 195.28 450.442 195.28Z" fill="white"/>
<path d="M509.88 40H519.08V38.44H515.02C514.28 38.44 513.4 38.5 512.62 38.58C516.08 35.32 518.38 32.34 518.38 29.4C518.38 26.78 516.74 25.08 514.12 25.08C512.26 25.08 510.98 25.94 509.78 27.24L510.84 28.26C511.66 27.3 512.7 26.56 513.9 26.56C515.72 26.56 516.58 27.8 516.58 29.48C516.58 31.98 514.48 34.92 509.88 38.94V40ZM525.654 40.28C528.414 40.28 530.194 37.74 530.194 32.62C530.194 27.54 528.414 25.08 525.654 25.08C522.854 25.08 521.074 27.54 521.074 32.62C521.074 37.74 522.854 40.28 525.654 40.28ZM525.654 38.8C523.974 38.8 522.834 36.94 522.834 32.62C522.834 28.36 523.974 26.54 525.654 26.54C527.314 26.54 528.434 28.36 528.434 32.62C528.434 36.94 527.314 38.8 525.654 38.8ZM532.068 40H541.268V38.44H537.208C536.467 38.44 535.588 38.5 534.808 38.58C538.268 35.32 540.568 32.34 540.568 29.4C540.568 26.78 538.928 25.08 536.308 25.08C534.448 25.08 533.168 25.94 531.968 27.24L533.028 28.26C533.848 27.3 534.888 26.56 536.088 26.56C537.908 26.56 538.768 27.8 538.768 29.48C538.768 31.98 536.668 34.92 532.068 38.94V40ZM544.041 40H552.081V38.48H549.121V25.34H547.721C546.941 25.82 546.001 26.16 544.681 26.38V27.56H547.301V38.48H544.041V40Z" fill="white"/>
<path d="M491.707 33.7071C492.098 33.3166 492.098 32.6834 491.707 32.2929L485.343 25.9289C484.953 25.5384 484.319 25.5384 483.929 25.9289C483.538 26.3195 483.538 26.9526 483.929 27.3431L489.586 33L483.929 38.6569C483.538 39.0474 483.538 39.6805 483.929 40.0711C484.319 40.4616 484.953 40.4616 485.343 40.0711L491.707 33.7071ZM391 34H491V32H391V34Z" fill="white"/>
<path d="M328.88 39H338.08V37.44H334.02C333.28 37.44 332.4 37.5 331.62 37.58C335.08 34.32 337.38 31.34 337.38 28.4C337.38 25.78 335.74 24.08 333.12 24.08C331.26 24.08 329.98 24.94 328.78 26.24L329.84 27.26C330.66 26.3 331.7 25.56 332.9 25.56C334.72 25.56 335.58 26.8 335.58 28.48C335.58 30.98 333.48 33.92 328.88 37.94V39ZM344.654 39.28C347.414 39.28 349.194 36.74 349.194 31.62C349.194 26.54 347.414 24.08 344.654 24.08C341.854 24.08 340.074 26.54 340.074 31.62C340.074 36.74 341.854 39.28 344.654 39.28ZM344.654 37.8C342.974 37.8 341.834 35.94 341.834 31.62C341.834 27.36 342.974 25.54 344.654 25.54C346.314 25.54 347.434 27.36 347.434 31.62C347.434 35.94 346.314 37.8 344.654 37.8ZM351.948 39H359.988V37.48H357.028V24.34H355.628C354.848 24.82 353.908 25.16 352.588 25.38V26.56H355.208V37.48H351.948V39ZM366.861 39.28C369.601 39.28 371.461 37.62 371.461 35.48C371.461 33.48 370.261 32.36 368.981 31.62V31.52C369.861 30.84 370.941 29.54 370.941 27.98C370.941 25.74 369.421 24.14 366.921 24.14C364.621 24.14 362.881 25.62 362.881 27.84C362.881 29.38 363.801 30.5 364.881 31.24V31.32C363.541 32.04 362.181 33.4 362.181 35.38C362.181 37.64 364.161 39.28 366.861 39.28ZM367.861 31.06C366.141 30.38 364.561 29.6 364.561 27.84C364.561 26.44 365.541 25.48 366.881 25.48C368.461 25.48 369.381 26.64 369.381 28.08C369.381 29.18 368.861 30.18 367.861 31.06ZM366.901 37.9C365.141 37.9 363.821 36.76 363.821 35.2C363.821 33.8 364.641 32.64 365.841 31.88C367.901 32.72 369.701 33.46 369.701 35.42C369.701 36.88 368.581 37.9 366.901 37.9Z" fill="white"/>
<path d="M411.945 27.21C413.91 27.21 415.485 26.055 415.485 24.15C415.485 22.695 414.435 21.735 413.145 21.435V21.375C414.315 20.94 415.095 20.115 415.095 18.825C415.095 17.1 413.745 16.125 411.9 16.125C410.64 16.125 409.665 16.68 408.84 17.445L409.575 18.315C410.19 17.685 410.97 17.22 411.855 17.22C412.995 17.22 413.7 17.88 413.7 18.915C413.7 20.04 412.935 20.925 410.67 20.925V21.975C413.205 21.975 414.09 22.83 414.09 24.105C414.09 25.305 413.16 26.07 411.855 26.07C410.595 26.07 409.77 25.47 409.125 24.795L408.435 25.695C409.155 26.49 410.22 27.21 411.945 27.21ZM421.175 30.525C422.81 30.525 423.65 29.295 424.22 27.69L427.295 18.855H425.96L424.49 23.385C424.28 24.12 424.04 24.93 423.815 25.68H423.74C423.47 24.93 423.2 24.105 422.945 23.385L421.28 18.855H419.87L423.14 27.015L422.96 27.63C422.615 28.635 422.03 29.385 421.115 29.385C420.89 29.385 420.65 29.325 420.5 29.265L420.23 30.36C420.485 30.465 420.8 30.525 421.175 30.525ZM432.06 27.21C433.17 27.21 434.025 26.835 434.745 26.37L434.25 25.455C433.65 25.86 433.005 26.115 432.225 26.115C430.665 26.115 429.615 24.99 429.51 23.265H435C435.045 23.055 435.06 22.77 435.06 22.485C435.06 20.145 433.89 18.66 431.82 18.66C429.945 18.66 428.16 20.295 428.16 22.95C428.16 25.62 429.885 27.21 432.06 27.21ZM429.495 22.275C429.675 20.67 430.695 19.755 431.835 19.755C433.125 19.755 433.86 20.64 433.86 22.275H429.495ZM438.677 27.21C439.682 27.21 440.597 26.685 441.362 26.04H441.422L441.542 27H442.667V22.005C442.667 19.98 441.827 18.66 439.832 18.66C438.527 18.66 437.387 19.23 436.637 19.71L437.177 20.67C437.807 20.235 438.662 19.785 439.622 19.785C440.957 19.785 441.287 20.79 441.287 21.84C437.822 22.23 436.292 23.115 436.292 24.885C436.292 26.355 437.312 27.21 438.677 27.21ZM439.052 26.1C438.257 26.1 437.627 25.725 437.627 24.795C437.627 23.745 438.542 23.07 441.287 22.755V25.02C440.507 25.725 439.847 26.1 439.052 26.1ZM445.254 27H446.619V21.78C447.159 20.385 447.999 19.89 448.674 19.89C449.004 19.89 449.184 19.935 449.469 20.025L449.724 18.825C449.454 18.705 449.214 18.66 448.854 18.66C447.939 18.66 447.099 19.305 446.544 20.34H446.499L446.364 18.855H445.254V27ZM453.097 27.21C455.017 27.21 456.052 26.115 456.052 24.78C456.052 23.235 454.762 22.755 453.577 22.305C452.647 21.975 451.822 21.675 451.822 20.895C451.822 20.265 452.287 19.725 453.322 19.725C454.042 19.725 454.627 20.04 455.182 20.445L455.842 19.575C455.212 19.065 454.312 18.66 453.307 18.66C451.537 18.66 450.502 19.665 450.502 20.955C450.502 22.35 451.747 22.89 452.872 23.325C453.772 23.655 454.747 24.03 454.747 24.855C454.747 25.575 454.207 26.145 453.127 26.145C452.152 26.145 451.432 25.74 450.727 25.17L450.052 26.085C450.817 26.715 451.942 27.21 453.097 27.21Z" fill="white"/>
</svg>
