<svg width="731" height="786" viewBox="0 0 731 786" fill="none" xmlns="http://www.w3.org/2000/svg">
<path d="M658.465 273.864H667.665V272.304H663.605C662.865 272.304 661.985 272.364 661.205 272.444C664.665 269.184 666.965 266.204 666.965 263.264C666.965 260.644 665.325 258.944 662.705 258.944C660.845 258.944 659.565 259.804 658.365 261.104L659.425 262.124C660.245 261.164 661.285 260.424 662.485 260.424C664.305 260.424 665.165 261.664 665.165 263.344C665.165 265.844 663.065 268.784 658.465 272.804V273.864ZM674.238 274.144C676.998 274.144 678.778 271.604 678.778 266.484C678.778 261.404 676.998 258.944 674.238 258.944C671.438 258.944 669.658 261.404 669.658 266.484C669.658 271.604 671.438 274.144 674.238 274.144ZM674.238 272.664C672.558 272.664 671.418 270.804 671.418 266.484C671.418 262.224 672.558 260.404 674.238 260.404C675.898 260.404 677.018 262.224 677.018 266.484C677.018 270.804 675.898 272.664 674.238 272.664ZM680.652 273.864H689.852V272.304H685.792C685.052 272.304 684.172 272.364 683.392 272.444C686.852 269.184 689.152 266.204 689.152 263.264C689.152 260.644 687.512 258.944 684.892 258.944C683.032 258.944 681.752 259.804 680.552 261.104L681.612 262.124C682.432 261.164 683.472 260.424 684.672 260.424C686.492 260.424 687.352 261.664 687.352 263.344C687.352 265.844 685.252 268.784 680.652 272.804V273.864ZM692.626 273.864H700.666V272.344H697.706V259.204H696.306C695.526 259.684 694.586 260.024 693.266 260.244V261.424H695.886V272.344H692.626V273.864Z" fill="black"/>
<path d="M635.108 283.176C635.499 282.786 635.499 282.153 635.108 281.762L628.744 275.398C628.354 275.008 627.72 275.008 627.33 275.398C626.939 275.789 626.939 276.422 627.33 276.812L632.987 282.469L627.33 288.126C626.939 288.517 626.939 289.15 627.33 289.54C627.72 289.931 628.354 289.931 628.744 289.54L635.108 283.176ZM505.602 283.469H634.401V281.469H505.602V283.469Z" fill="#2a3754"/>
<path d="M425.339 271.889H434.539V270.329H430.479C429.739 270.329 428.859 270.389 428.079 270.469C431.539 267.209 433.839 264.229 433.839 261.289C433.839 258.669 432.199 256.969 429.579 256.969C427.719 256.969 426.439 257.829 425.239 259.129L426.299 260.149C427.119 259.189 428.159 258.449 429.359 258.449C431.179 258.449 432.039 259.689 432.039 261.369C432.039 263.869 429.939 266.809 425.339 270.829V271.889ZM441.113 272.169C443.873 272.169 445.653 269.629 445.653 264.509C445.653 259.429 443.873 256.969 441.113 256.969C438.313 256.969 436.533 259.429 436.533 264.509C436.533 269.629 438.313 272.169 441.113 272.169ZM441.113 270.689C439.433 270.689 438.293 268.829 438.293 264.509C438.293 260.249 439.433 258.429 441.113 258.429C442.773 258.429 443.893 260.249 443.893 264.509C443.893 268.829 442.773 270.689 441.113 270.689ZM447.527 271.889H456.727V270.329H452.667C451.927 270.329 451.047 270.389 450.267 270.469C453.727 267.209 456.027 264.229 456.027 261.289C456.027 258.669 454.387 256.969 451.767 256.969C449.907 256.969 448.627 257.829 447.427 259.129L448.487 260.149C449.307 259.189 450.347 258.449 451.547 258.449C453.367 258.449 454.227 259.689 454.227 261.369C454.227 263.869 452.127 266.809 447.527 270.829V271.889ZM459.5 271.889H467.54V270.369H464.58V257.229H463.18C462.4 257.709 461.46 258.049 460.14 258.269V259.449H462.76V270.369H459.5V271.889Z" fill="black"/>
<path d="M70.3994 46H74.1194V32.84H85.2794V29.76H74.1194V19.8H87.2794V16.68H70.3994V46ZM99.8866 46.56C105.207 46.56 109.927 42.36 109.927 35.2C109.927 27.92 105.207 23.76 99.8866 23.76C94.5266 23.76 89.8066 27.92 89.8066 35.2C89.8066 42.36 94.5266 46.56 99.8866 46.56ZM99.8866 43.52C96.0866 43.52 93.5666 40.16 93.5666 35.2C93.5666 30.16 96.0866 26.8 99.8866 26.8C103.647 26.8 106.167 30.16 106.167 35.2C106.167 40.16 103.647 43.52 99.8866 43.52ZM124.144 46.56C129.464 46.56 134.184 42.36 134.184 35.2C134.184 27.92 129.464 23.76 124.144 23.76C118.784 23.76 114.064 27.92 114.064 35.2C114.064 42.36 118.784 46.56 124.144 46.56ZM124.144 43.52C120.344 43.52 117.824 40.16 117.824 35.2C117.824 30.16 120.344 26.8 124.144 26.8C127.904 26.8 130.424 30.16 130.424 35.2C130.424 40.16 127.904 43.52 124.144 43.52ZM145.903 46.56C147.263 46.56 148.703 46.16 149.903 45.72L149.183 43C148.503 43.28 147.503 43.6 146.743 43.6C144.223 43.6 143.383 42.04 143.383 39.4V27.24H149.263V24.28H143.383V18.16H140.303L139.903 24.28L136.503 24.52V27.24H139.743V39.32C139.743 43.64 141.263 46.56 145.903 46.56ZM163.701 46.56C168.701 46.56 173.141 42.24 173.141 34.8C173.141 28.12 170.101 23.76 164.501 23.76C162.061 23.76 159.661 25.08 157.661 26.8L157.821 22.88V14.2H154.181V46H157.061L157.421 43.76H157.541C159.421 45.52 161.701 46.56 163.701 46.56ZM163.141 43.48C161.701 43.48 159.701 42.88 157.821 41.24V29.8C159.861 27.84 161.781 26.8 163.621 26.8C167.741 26.8 169.381 30.04 169.381 34.88C169.381 40.24 166.701 43.48 163.141 43.48ZM183.165 46.56C185.845 46.56 188.285 45.16 190.325 43.44H190.485L190.805 46H193.805V32.68C193.805 27.28 191.565 23.76 186.245 23.76C182.765 23.76 179.725 25.28 177.725 26.56L179.165 29.12C180.845 27.96 183.125 26.76 185.685 26.76C189.245 26.76 190.125 29.44 190.125 32.24C180.885 33.28 176.805 35.64 176.805 40.36C176.805 44.28 179.525 46.56 183.165 46.56ZM184.165 43.6C182.045 43.6 180.365 42.6 180.365 40.12C180.365 37.32 182.805 35.52 190.125 34.68V40.72C188.045 42.6 186.285 43.6 184.165 43.6ZM204.544 46.56C205.544 46.56 206.104 46.4 206.624 46.24L206.144 43.44C205.704 43.52 205.544 43.52 205.384 43.52C204.824 43.52 204.344 43.08 204.344 41.92V14.2H200.704V41.68C200.704 44.8 201.784 46.56 204.544 46.56ZM215.912 46.56C216.912 46.56 217.472 46.4 217.992 46.24L217.512 43.44C217.072 43.52 216.912 43.52 216.752 43.52C216.192 43.52 215.712 43.08 215.712 41.92V14.2H212.072V41.68C212.072 44.8 213.152 46.56 215.912 46.56ZM232.704 46H242.064C248.584 46 253.144 43.16 253.144 37.44C253.144 33.44 250.704 31.08 247.184 30.4V30.24C249.944 29.32 251.464 26.76 251.464 23.88C251.464 18.72 247.344 16.68 241.384 16.68H232.704V46ZM236.424 29.16V19.6H240.944C245.504 19.6 247.824 20.88 247.824 24.32C247.824 27.32 245.784 29.16 240.744 29.16H236.424ZM236.424 43.08V32H241.544C246.664 32 249.544 33.68 249.544 37.32C249.544 41.28 246.544 43.08 241.544 43.08H236.424ZM263.673 46.56C266.353 46.56 268.793 45.16 270.833 43.44H270.993L271.313 46H274.313V32.68C274.313 27.28 272.073 23.76 266.753 23.76C263.273 23.76 260.233 25.28 258.233 26.56L259.673 29.12C261.353 27.96 263.633 26.76 266.193 26.76C269.753 26.76 270.633 29.44 270.633 32.24C261.393 33.28 257.313 35.64 257.313 40.36C257.313 44.28 260.033 46.56 263.673 46.56ZM264.673 43.6C262.553 43.6 260.873 42.6 260.873 40.12C260.873 37.32 263.313 35.52 270.633 34.68V40.72C268.553 42.6 266.793 43.6 264.673 43.6ZM281.212 46H284.852V32.08C286.292 28.36 288.532 27.04 290.332 27.04C291.212 27.04 291.692 27.16 292.452 27.4L293.132 24.2C292.412 23.88 291.772 23.76 290.812 23.76C288.372 23.76 286.132 25.48 284.652 28.24H284.532L284.172 24.28H281.212V46ZM81.401 71.82C82.701 71.82 83.881 70.72 83.881 69.14C83.881 67.52 82.701 66.42 81.401 66.42C80.061 66.42 78.881 67.52 78.881 69.14C78.881 70.72 80.061 71.82 81.401 71.82ZM102.459 75.28C105.539 75.28 107.439 73.44 107.439 71.12C107.439 68.94 106.139 67.92 104.419 67.18L102.339 66.28C101.199 65.8 99.9194 65.28 99.9194 63.84C99.9194 62.54 100.999 61.7 102.659 61.7C103.999 61.7 105.079 62.24 105.979 63.08L106.959 61.9C105.939 60.82 104.399 60.08 102.659 60.08C99.9794 60.08 98.0394 61.72 98.0394 63.98C98.0394 66.12 99.6394 67.16 101.019 67.74L103.119 68.66C104.499 69.26 105.559 69.74 105.559 71.26C105.559 72.68 104.419 73.64 102.499 73.64C100.979 73.64 99.4994 72.94 98.4394 71.82L97.3394 73.1C98.6194 74.44 100.399 75.28 102.459 75.28ZM112.968 75.28C113.648 75.28 114.368 75.08 114.968 74.86L114.608 73.5C114.268 73.64 113.768 73.8 113.388 73.8C112.128 73.8 111.708 73.02 111.708 71.7V65.62H114.648V64.14H111.708V61.08H110.168L109.968 64.14L108.268 64.26V65.62H109.888V71.66C109.888 73.82 110.648 75.28 112.968 75.28ZM119.06 75.28C120.4 75.28 121.62 74.58 122.64 73.72H122.72L122.88 75H124.38V68.34C124.38 65.64 123.26 63.88 120.6 63.88C118.86 63.88 117.34 64.64 116.34 65.28L117.06 66.56C117.9 65.98 119.04 65.38 120.32 65.38C122.1 65.38 122.54 66.72 122.54 68.12C117.92 68.64 115.88 69.82 115.88 72.18C115.88 74.14 117.24 75.28 119.06 75.28ZM119.56 73.8C118.5 73.8 117.66 73.3 117.66 72.06C117.66 70.66 118.88 69.76 122.54 69.34V72.36C121.5 73.3 120.62 73.8 119.56 73.8ZM128.109 75H129.929V62.76C129.929 61.3 130.569 60.52 131.649 60.52C132.189 60.52 132.629 60.62 133.109 60.84L133.489 59.44C132.929 59.2 132.209 59.04 131.489 59.04C129.249 59.04 128.109 60.46 128.109 62.7V75ZM134.469 75H136.309V62.44C136.309 61.02 136.809 60.3 137.829 60.3C138.229 60.3 138.649 60.4 139.069 60.58L139.449 59.18C138.949 58.98 138.309 58.82 137.649 58.82C135.469 58.82 134.469 60.22 134.469 62.4V75ZM126.629 65.62H138.609V64.14H128.209L126.629 64.26V65.62Z" fill="black"/>
<path d="M70.3994 283.037H73.9194V267.677C73.9194 264.557 73.6394 261.477 73.4394 258.517H73.6394L76.7994 264.557L87.4394 283.037H91.2794V253.717H87.7194V268.957C87.7194 271.997 87.9994 275.317 88.2394 278.277H88.0394L84.8794 272.197L74.1994 253.717H70.3994V283.037ZM107.426 283.597C112.746 283.597 117.466 279.397 117.466 272.237C117.466 264.957 112.746 260.797 107.426 260.797C102.066 260.797 97.3457 264.957 97.3457 272.237C97.3457 279.397 102.066 283.597 107.426 283.597ZM107.426 280.557C103.626 280.557 101.106 277.197 101.106 272.237C101.106 267.197 103.626 263.837 107.426 263.837C111.186 263.837 113.706 267.197 113.706 272.237C113.706 277.197 111.186 280.557 107.426 280.557ZM127.65 283.037H131.89L139.57 261.317H136.01L131.85 273.717C131.21 275.837 130.53 278.037 129.85 280.077H129.69C129.01 278.037 128.33 275.837 127.69 273.717L123.57 261.317H119.81L127.65 283.037ZM147.814 283.597C150.494 283.597 152.934 282.197 154.974 280.477H155.134L155.454 283.037H158.454V269.717C158.454 264.317 156.214 260.797 150.894 260.797C147.414 260.797 144.374 262.317 142.374 263.597L143.814 266.157C145.494 264.997 147.774 263.797 150.334 263.797C153.894 263.797 154.774 266.477 154.774 269.277C145.534 270.317 141.454 272.677 141.454 277.397C141.454 281.317 144.174 283.597 147.814 283.597ZM148.814 280.637C146.694 280.637 145.014 279.637 145.014 277.157C145.014 274.357 147.454 272.557 154.774 271.717V277.757C152.694 279.637 150.934 280.637 148.814 280.637ZM174.618 283.037H183.978C190.498 283.037 195.058 280.197 195.058 274.477C195.058 270.477 192.618 268.117 189.098 267.437V267.277C191.858 266.357 193.378 263.797 193.378 260.917C193.378 255.757 189.258 253.717 183.298 253.717H174.618V283.037ZM178.338 266.197V256.637H182.858C187.418 256.637 189.738 257.917 189.738 261.357C189.738 264.357 187.698 266.197 182.658 266.197H178.338ZM178.338 280.117V269.037H183.458C188.578 269.037 191.458 270.717 191.458 274.357C191.458 278.317 188.458 280.117 183.458 280.117H178.338ZM205.587 283.597C208.267 283.597 210.707 282.197 212.747 280.477H212.907L213.227 283.037H216.227V269.717C216.227 264.317 213.987 260.797 208.667 260.797C205.187 260.797 202.147 262.317 200.147 263.597L201.587 266.157C203.267 264.997 205.547 263.797 208.107 263.797C211.667 263.797 212.547 266.477 212.547 269.277C203.307 270.317 199.227 272.677 199.227 277.397C199.227 281.317 201.947 283.597 205.587 283.597ZM206.587 280.637C204.467 280.637 202.787 279.637 202.787 277.157C202.787 274.357 205.227 272.557 212.547 271.717V277.757C210.467 279.637 208.707 280.637 206.587 280.637ZM228.806 283.597C233.926 283.597 236.686 280.677 236.686 277.117C236.686 272.997 233.246 271.717 230.086 270.517C227.606 269.637 225.406 268.837 225.406 266.757C225.406 265.077 226.646 263.637 229.406 263.637C231.326 263.637 232.886 264.477 234.366 265.557L236.126 263.237C234.446 261.877 232.046 260.797 229.366 260.797C224.646 260.797 221.886 263.477 221.886 266.917C221.886 270.637 225.206 272.077 228.206 273.237C230.606 274.117 233.206 275.117 233.206 277.317C233.206 279.237 231.766 280.757 228.886 280.757C226.286 280.757 224.366 279.677 222.486 278.157L220.686 280.597C222.726 282.277 225.726 283.597 228.806 283.597ZM250.597 283.597C253.557 283.597 255.837 282.597 257.757 281.357L256.437 278.917C254.837 279.997 253.117 280.677 251.037 280.677C246.877 280.677 244.077 277.677 243.797 273.077H258.437C258.557 272.517 258.597 271.757 258.597 270.997C258.597 264.757 255.477 260.797 249.957 260.797C244.957 260.797 240.197 265.157 240.197 272.237C240.197 279.357 244.797 283.597 250.597 283.597ZM243.757 270.437C244.237 266.157 246.957 263.717 249.997 263.717C253.437 263.717 255.397 266.077 255.397 270.437H243.757ZM81.401 308.857C82.701 308.857 83.881 307.757 83.881 306.177C83.881 304.557 82.701 303.457 81.401 303.457C80.061 303.457 78.881 304.557 78.881 306.177C78.881 307.757 80.061 308.857 81.401 308.857ZM98.3994 312.037H100.259V305.457H105.839V303.917H100.259V298.937H106.839V297.377H98.3994V312.037ZM112.024 312.317C113.524 312.317 114.604 311.517 115.624 310.337H115.664L115.824 312.037H117.324V301.177H115.504V308.897C114.484 310.177 113.684 310.717 112.584 310.717C111.144 310.717 110.524 309.857 110.524 307.837V301.177H108.704V308.057C108.704 310.837 109.744 312.317 112.024 312.317ZM122.933 312.317C123.433 312.317 123.713 312.237 123.973 312.157L123.733 310.757C123.513 310.797 123.433 310.797 123.353 310.797C123.073 310.797 122.833 310.577 122.833 309.997V296.137H121.013V309.877C121.013 311.437 121.553 312.317 122.933 312.317ZM128.616 312.317C129.116 312.317 129.396 312.237 129.656 312.157L129.416 310.757C129.196 310.797 129.116 310.797 129.036 310.797C128.756 310.797 128.516 310.577 128.516 309.997V296.137H126.696V309.877C126.696 311.437 127.236 312.317 128.616 312.317ZM141.073 312.317C144.153 312.317 146.053 310.477 146.053 308.157C146.053 305.977 144.753 304.957 143.033 304.217L140.953 303.317C139.813 302.837 138.533 302.317 138.533 300.877C138.533 299.577 139.613 298.737 141.273 298.737C142.613 298.737 143.693 299.277 144.593 300.117L145.573 298.937C144.553 297.857 143.013 297.117 141.273 297.117C138.593 297.117 136.653 298.757 136.653 301.017C136.653 303.157 138.253 304.197 139.633 304.777L141.733 305.697C143.113 306.297 144.173 306.777 144.173 308.297C144.173 309.717 143.033 310.677 141.113 310.677C139.593 310.677 138.113 309.977 137.053 308.857L135.953 310.137C137.233 311.477 139.013 312.317 141.073 312.317ZM151.581 312.317C152.261 312.317 152.981 312.117 153.581 311.897L153.221 310.537C152.881 310.677 152.381 310.837 152.001 310.837C150.741 310.837 150.321 310.057 150.321 308.737V302.657H153.261V301.177H150.321V298.117H148.781L148.581 301.177L146.881 301.297V302.657H148.501V308.697C148.501 310.857 149.261 312.317 151.581 312.317ZM157.673 312.317C159.013 312.317 160.233 311.617 161.253 310.757H161.333L161.493 312.037H162.993V305.377C162.993 302.677 161.873 300.917 159.213 300.917C157.473 300.917 155.953 301.677 154.953 302.317L155.673 303.597C156.513 303.017 157.653 302.417 158.933 302.417C160.713 302.417 161.153 303.757 161.153 305.157C156.533 305.677 154.493 306.857 154.493 309.217C154.493 311.177 155.853 312.317 157.673 312.317ZM158.173 310.837C157.113 310.837 156.273 310.337 156.273 309.097C156.273 307.697 157.493 306.797 161.153 306.377V309.397C160.113 310.337 159.233 310.837 158.173 310.837ZM170.703 312.317C172.003 312.317 173.263 311.797 174.223 310.937L173.443 309.717C172.763 310.317 171.863 310.797 170.883 310.797C168.883 310.797 167.503 309.117 167.503 306.637C167.503 304.117 168.943 302.437 170.943 302.437C171.783 302.437 172.463 302.817 173.103 303.397L174.023 302.197C173.263 301.497 172.263 300.917 170.843 300.917C168.063 300.917 165.623 302.997 165.623 306.637C165.623 310.217 167.823 312.317 170.703 312.317ZM176.638 312.037H178.438V309.177L180.458 306.797L183.638 312.037H185.618L181.538 305.557L185.158 301.177H183.118L178.498 306.917H178.438V296.137H176.638V312.037Z" fill="black"/>
<path d="M78.5194 518.659C84.6794 518.659 88.4794 514.979 88.4794 510.339C88.4794 505.979 85.8794 503.939 82.4394 502.459L78.2794 500.659C75.9994 499.699 73.4394 498.659 73.4394 495.779C73.4394 493.179 75.5994 491.499 78.9194 491.499C81.5994 491.499 83.7594 492.579 85.5594 494.259L87.5194 491.899C85.4794 489.739 82.3994 488.259 78.9194 488.259C73.5594 488.259 69.6794 491.539 69.6794 496.059C69.6794 500.339 72.8794 502.419 75.6394 503.579L79.8394 505.419C82.5994 506.619 84.7194 507.579 84.7194 510.619C84.7194 513.459 82.4394 515.379 78.5994 515.379C75.5594 515.379 72.5994 513.979 70.4794 511.739L68.2794 514.299C70.8394 516.979 74.3994 518.659 78.5194 518.659ZM93.9075 518.099H97.5475V496.379H93.9075V518.099ZM95.7475 491.899C97.1475 491.899 98.1875 490.979 98.1875 489.459C98.1875 488.059 97.1475 487.139 95.7475 487.139C94.3075 487.139 93.3075 488.059 93.3075 489.459C93.3075 490.979 94.3075 491.899 95.7475 491.899ZM101.843 518.099H105.683L108.603 513.019C109.323 511.699 110.043 510.379 110.803 509.139H111.003C111.803 510.379 112.603 511.739 113.363 513.019L116.563 518.099H120.523L113.403 507.139L119.963 496.379H116.163L113.523 501.139C112.843 502.379 112.203 503.579 111.563 504.819H111.403C110.643 503.579 109.923 502.379 109.243 501.139L106.323 496.379H102.403L108.963 506.779L101.843 518.099ZM122.302 508.339H132.542V505.539H122.302V508.339ZM138.329 518.099H142.049V504.939H153.209V501.859H142.049V491.899H155.209V488.779H138.329V518.099ZM163.478 518.659C166.158 518.659 168.598 517.259 170.638 515.539H170.798L171.118 518.099H174.118V504.779C174.118 499.379 171.878 495.859 166.558 495.859C163.078 495.859 160.038 497.379 158.038 498.659L159.478 501.219C161.158 500.059 163.438 498.859 165.998 498.859C169.558 498.859 170.438 501.539 170.438 504.339C161.198 505.379 157.118 507.739 157.118 512.459C157.118 516.379 159.838 518.659 163.478 518.659ZM164.478 515.699C162.358 515.699 160.678 514.699 160.678 512.219C160.678 509.419 163.118 507.619 170.438 506.779V512.819C168.358 514.699 166.598 515.699 164.478 515.699ZM189.537 518.659C192.137 518.659 194.657 517.619 196.577 515.899L195.017 513.459C193.657 514.659 191.857 515.619 189.897 515.619C185.897 515.619 183.137 512.259 183.137 507.299C183.137 502.259 186.017 498.899 190.017 498.899C191.697 498.899 193.057 499.659 194.337 500.819L196.177 498.419C194.657 497.019 192.657 495.859 189.817 495.859C184.257 495.859 179.377 500.019 179.377 507.299C179.377 514.459 183.777 518.659 189.537 518.659ZM207.661 518.659C209.021 518.659 210.461 518.259 211.661 517.819L210.941 515.099C210.261 515.379 209.261 515.699 208.501 515.699C205.981 515.699 205.141 514.139 205.141 511.499V499.339H211.021V496.379H205.141V490.259H202.061L201.661 496.379L198.261 496.619V499.339H201.501V511.419C201.501 515.739 203.021 518.659 207.661 518.659ZM223.676 518.659C228.996 518.659 233.716 514.459 233.716 507.299C233.716 500.019 228.996 495.859 223.676 495.859C218.316 495.859 213.596 500.019 213.596 507.299C213.596 514.459 218.316 518.659 223.676 518.659ZM223.676 515.619C219.876 515.619 217.356 512.259 217.356 507.299C217.356 502.259 219.876 498.899 223.676 498.899C227.436 498.899 229.956 502.259 229.956 507.299C229.956 512.259 227.436 515.619 223.676 515.619ZM239.493 518.099H243.133V504.179C244.573 500.459 246.813 499.139 248.613 499.139C249.493 499.139 249.973 499.259 250.733 499.499L251.413 496.299C250.693 495.979 250.053 495.859 249.093 495.859C246.653 495.859 244.413 497.579 242.933 500.339H242.813L242.453 496.379H239.493V518.099ZM81.401 543.919C82.701 543.919 83.881 542.819 83.881 541.239C83.881 539.619 82.701 538.519 81.401 538.519C80.061 538.519 78.881 539.619 78.881 541.239C78.881 542.819 80.061 543.919 81.401 543.919ZM98.3994 547.099H100.259V540.519H105.839V538.979H100.259V533.999H106.839V532.439H98.3994V547.099ZM112.024 547.379C113.524 547.379 114.604 546.579 115.624 545.399H115.664L115.824 547.099H117.324V536.239H115.504V543.959C114.484 545.239 113.684 545.779 112.584 545.779C111.144 545.779 110.524 544.919 110.524 542.899V536.239H108.704V543.119C108.704 545.899 109.744 547.379 112.024 547.379ZM122.933 547.379C123.433 547.379 123.713 547.299 123.973 547.219L123.733 545.819C123.513 545.859 123.433 545.859 123.353 545.859C123.073 545.859 122.833 545.639 122.833 545.059V531.199H121.013V544.939C121.013 546.499 121.553 547.379 122.933 547.379ZM128.616 547.379C129.116 547.379 129.396 547.299 129.656 547.219L129.416 545.819C129.196 545.859 129.116 545.859 129.036 545.859C128.756 545.859 128.516 545.639 128.516 545.059V531.199H126.696V544.939C126.696 546.499 127.236 547.379 128.616 547.379ZM141.073 547.379C144.153 547.379 146.053 545.539 146.053 543.219C146.053 541.039 144.753 540.019 143.033 539.279L140.953 538.379C139.813 537.899 138.533 537.379 138.533 535.939C138.533 534.639 139.613 533.799 141.273 533.799C142.613 533.799 143.693 534.339 144.593 535.179L145.573 533.999C144.553 532.919 143.013 532.179 141.273 532.179C138.593 532.179 136.653 533.819 136.653 536.079C136.653 538.219 138.253 539.259 139.633 539.839L141.733 540.759C143.113 541.359 144.173 541.839 144.173 543.359C144.173 544.779 143.033 545.739 141.113 545.739C139.593 545.739 138.113 545.039 137.053 543.919L135.953 545.199C137.233 546.539 139.013 547.379 141.073 547.379ZM151.581 547.379C152.261 547.379 152.981 547.179 153.581 546.959L153.221 545.599C152.881 545.739 152.381 545.899 152.001 545.899C150.741 545.899 150.321 545.119 150.321 543.799V537.719H153.261V536.239H150.321V533.179H148.781L148.581 536.239L146.881 536.359V537.719H148.501V543.759C148.501 545.919 149.261 547.379 151.581 547.379ZM157.673 547.379C159.013 547.379 160.233 546.679 161.253 545.819H161.333L161.493 547.099H162.993V540.439C162.993 537.739 161.873 535.979 159.213 535.979C157.473 535.979 155.953 536.739 154.953 537.379L155.673 538.659C156.513 538.079 157.653 537.479 158.933 537.479C160.713 537.479 161.153 538.819 161.153 540.219C156.533 540.739 154.493 541.919 154.493 544.279C154.493 546.239 155.853 547.379 157.673 547.379ZM158.173 545.899C157.113 545.899 156.273 545.399 156.273 544.159C156.273 542.759 157.493 541.859 161.153 541.439V544.459C160.113 545.399 159.233 545.899 158.173 545.899ZM170.703 547.379C172.003 547.379 173.263 546.859 174.223 545.999L173.443 544.779C172.763 545.379 171.863 545.859 170.883 545.859C168.883 545.859 167.503 544.179 167.503 541.699C167.503 539.179 168.943 537.499 170.943 537.499C171.783 537.499 172.463 537.879 173.103 538.459L174.023 537.259C173.263 536.559 172.263 535.979 170.843 535.979C168.063 535.979 165.623 538.059 165.623 541.699C165.623 545.279 167.823 547.379 170.703 547.379ZM176.638 547.099H178.438V544.239L180.458 541.859L183.638 547.099H185.618L181.538 540.619L185.158 536.239H183.118L178.498 541.979H178.438V531.199H176.638V547.099Z" fill="black"/>
<path d="M658.465 56.5801H667.665V55.0201H663.605C662.865 55.0201 661.985 55.0801 661.205 55.1601C664.665 51.9001 666.965 48.9201 666.965 45.9801C666.965 43.3601 665.325 41.6601 662.705 41.6601C660.845 41.6601 659.565 42.5201 658.365 43.8201L659.425 44.8401C660.245 43.8801 661.285 43.1401 662.485 43.1401C664.305 43.1401 665.165 44.3801 665.165 46.0601C665.165 48.5601 663.065 51.5001 658.465 55.5201V56.5801ZM674.238 56.8601C676.998 56.8601 678.778 54.3201 678.778 49.2001C678.778 44.1201 676.998 41.6601 674.238 41.6601C671.438 41.6601 669.658 44.1201 669.658 49.2001C669.658 54.3201 671.438 56.8601 674.238 56.8601ZM674.238 55.3801C672.558 55.3801 671.418 53.5201 671.418 49.2001C671.418 44.9401 672.558 43.1201 674.238 43.1201C675.898 43.1201 677.018 44.9401 677.018 49.2001C677.018 53.5201 675.898 55.3801 674.238 55.3801ZM680.652 56.5801H689.852V55.0201H685.792C685.052 55.0201 684.172 55.0801 683.392 55.1601C686.852 51.9001 689.152 48.9201 689.152 45.9801C689.152 43.3601 687.512 41.6601 684.892 41.6601C683.032 41.6601 681.752 42.5201 680.552 43.8201L681.612 44.8401C682.432 43.8801 683.472 43.1401 684.672 43.1401C686.492 43.1401 687.352 44.3801 687.352 46.0601C687.352 48.5601 685.252 51.5001 680.652 55.5201V56.5801ZM691.746 56.5801H700.946V55.0201H696.886C696.146 55.0201 695.266 55.0801 694.486 55.1601C697.946 51.9001 700.246 48.9201 700.246 45.9801C700.246 43.3601 698.606 41.6601 695.986 41.6601C694.126 41.6601 692.846 42.5201 691.646 43.8201L692.706 44.8401C693.526 43.8801 694.566 43.1401 695.766 43.1401C697.586 43.1401 698.446 44.3801 698.446 46.0601C698.446 48.5601 696.346 51.5001 691.746 55.5201V56.5801Z" fill="black"/>
<path d="M635.108 65.8922C635.499 65.5016 635.499 64.8685 635.108 64.478L628.744 58.114C628.354 57.7235 627.72 57.7235 627.33 58.114C626.939 58.5045 626.939 59.1377 627.33 59.5282L632.987 65.1851L627.33 70.8419C626.939 71.2324 626.939 71.8656 627.33 72.2561C627.72 72.6467 628.354 72.6467 628.744 72.2561L635.108 65.8922ZM505.602 66.1851H634.401V64.1851H505.602V66.1851Z" fill="#2a3754"/>
<path d="M425.339 54.6045H434.539V53.0445H430.479C429.739 53.0445 428.859 53.1045 428.079 53.1845C431.539 49.9245 433.839 46.9445 433.839 44.0045C433.839 41.3845 432.199 39.6845 429.579 39.6845C427.719 39.6845 426.439 40.5445 425.239 41.8445L426.299 42.8645C427.119 41.9045 428.159 41.1645 429.359 41.1645C431.179 41.1645 432.039 42.4045 432.039 44.0845C432.039 46.5845 429.939 49.5245 425.339 53.5445V54.6045ZM441.113 54.8845C443.873 54.8845 445.653 52.3445 445.653 47.2245C445.653 42.1445 443.873 39.6845 441.113 39.6845C438.313 39.6845 436.533 42.1445 436.533 47.2245C436.533 52.3445 438.313 54.8845 441.113 54.8845ZM441.113 53.4045C439.433 53.4045 438.293 51.5445 438.293 47.2245C438.293 42.9645 439.433 41.1445 441.113 41.1445C442.773 41.1445 443.893 42.9645 443.893 47.2245C443.893 51.5445 442.773 53.4045 441.113 53.4045ZM448.407 54.6045H456.447V53.0845H453.487V39.9445H452.087C451.307 40.4245 450.367 40.7645 449.047 40.9845V42.1645H451.667V53.0845H448.407V54.6045ZM463.32 54.8845C466.06 54.8845 467.92 53.2245 467.92 51.0845C467.92 49.0845 466.72 47.9645 465.44 47.2245V47.1245C466.32 46.4445 467.4 45.1445 467.4 43.5845C467.4 41.3445 465.88 39.7445 463.38 39.7445C461.08 39.7445 459.34 41.2245 459.34 43.4445C459.34 44.9845 460.26 46.1045 461.34 46.8445V46.9245C460 47.6445 458.64 49.0045 458.64 50.9845C458.64 53.2445 460.62 54.8845 463.32 54.8845ZM464.32 46.6645C462.6 45.9845 461.02 45.2045 461.02 43.4445C461.02 42.0445 462 41.0845 463.34 41.0845C464.92 41.0845 465.84 42.2445 465.84 43.6845C465.84 44.7845 465.32 45.7845 464.32 46.6645ZM463.36 53.5045C461.6 53.5045 460.28 52.3645 460.28 50.8045C460.28 49.4045 461.1 48.2445 462.3 47.4845C464.36 48.3245 466.16 49.0645 466.16 51.0245C466.16 52.4845 465.04 53.5045 463.36 53.5045Z" fill="black"/>
<path d="M530.933 249.321C533.048 249.321 534.998 247.671 534.998 243.366C534.998 239.931 533.423 238.236 531.308 238.236C529.598 238.236 528.158 239.616 528.158 241.656C528.158 243.846 529.343 244.956 531.203 244.956C532.103 244.956 533.108 244.401 533.798 243.501L533.723 242.406C533.003 243.516 532.133 243.936 531.428 243.936C530.108 243.936 529.448 243.051 529.448 241.656C529.448 240.231 530.258 239.301 531.308 239.301C532.853 239.301 533.708 240.726 533.708 243.366C533.708 246.966 532.418 248.181 530.873 248.181C530.213 248.181 529.553 247.866 529.118 247.326L528.353 248.196C528.938 248.841 529.778 249.321 530.933 249.321ZM540.553 249.111H541.918V243.201C542.653 242.376 543.343 241.956 543.958 241.956C545.008 241.956 545.488 242.601 545.488 244.131V249.111H546.853V243.201C547.618 242.376 548.263 241.956 548.893 241.956C549.943 241.956 550.423 242.601 550.423 244.131V249.111H551.788V243.951C551.788 241.881 550.978 240.771 549.313 240.771C548.323 240.771 547.468 241.416 546.613 242.316C546.298 241.356 545.623 240.771 544.378 240.771C543.403 240.771 542.548 241.386 541.843 242.151H541.798L541.663 240.966H540.553V249.111ZM557.605 249.321C559.6 249.321 561.37 247.746 561.37 245.061C561.37 242.331 559.6 240.771 557.605 240.771C555.595 240.771 553.825 242.331 553.825 245.061C553.825 247.746 555.595 249.321 557.605 249.321ZM557.605 248.181C556.18 248.181 555.235 246.921 555.235 245.061C555.235 243.171 556.18 241.911 557.605 241.911C559.015 241.911 559.96 243.171 559.96 245.061C559.96 246.921 559.015 248.181 557.605 248.181ZM563.536 249.111H564.901V243.201C565.711 242.391 566.296 241.956 567.121 241.956C568.201 241.956 568.666 242.601 568.666 244.131V249.111H570.046V243.951C570.046 241.881 569.266 240.771 567.556 240.771C566.431 240.771 565.591 241.386 564.826 242.151H564.781L564.646 240.966H563.536V249.111ZM575.242 249.321C575.752 249.321 576.292 249.171 576.742 249.006L576.472 247.986C576.217 248.091 575.842 248.211 575.557 248.211C574.612 248.211 574.297 247.626 574.297 246.636V242.076H576.502V240.966H574.297V238.671H573.142L572.992 240.966L571.717 241.056V242.076H572.932V246.606C572.932 248.226 573.502 249.321 575.242 249.321ZM578.346 249.111H579.711V243.201C580.521 242.391 581.106 241.956 581.931 241.956C583.011 241.956 583.476 242.601 583.476 244.131V249.111H584.856V243.951C584.856 241.881 584.076 240.771 582.366 240.771C581.241 240.771 580.416 241.386 579.666 242.121L579.711 240.441V237.186H578.346V249.111ZM589.587 249.321C591.507 249.321 592.542 248.226 592.542 246.891C592.542 245.346 591.252 244.866 590.067 244.416C589.137 244.086 588.312 243.786 588.312 243.006C588.312 242.376 588.777 241.836 589.812 241.836C590.532 241.836 591.117 242.151 591.672 242.556L592.332 241.686C591.702 241.176 590.802 240.771 589.797 240.771C588.027 240.771 586.992 241.776 586.992 243.066C586.992 244.461 588.237 245.001 589.362 245.436C590.262 245.766 591.237 246.141 591.237 246.966C591.237 247.686 590.697 248.256 589.617 248.256C588.642 248.256 587.922 247.851 587.217 247.281L586.542 248.196C587.307 248.826 588.432 249.321 589.587 249.321Z" fill="black"/>
<path d="M531.098 34.0378H532.208V30.7678H535.253V29.7478H532.208V26.4628H531.098V29.7478H528.053V30.7678H531.098V34.0378ZM540.904 35.7778H542.194V25.0978H540.679L536.104 31.9228V32.8228H543.664V31.7428H537.544L540.049 28.0678C540.349 27.5428 540.649 27.0628 540.919 26.5678H540.994C540.949 27.1228 540.904 28.0528 540.904 28.6078V35.7778ZM548.993 39.3028C550.628 39.3028 551.468 38.0728 552.038 36.4678L555.113 27.6328H553.778L552.308 32.1628C552.098 32.8978 551.858 33.7078 551.633 34.4578H551.558C551.288 33.7078 551.018 32.8828 550.763 32.1628L549.098 27.6328H547.688L550.958 35.7928L550.778 36.4078C550.433 37.4128 549.848 38.1628 548.933 38.1628C548.708 38.1628 548.468 38.1028 548.318 38.0428L548.048 39.1378C548.303 39.2428 548.618 39.3028 548.993 39.3028ZM559.878 35.9878C560.988 35.9878 561.843 35.6128 562.563 35.1478L562.068 34.2328C561.468 34.6378 560.823 34.8928 560.043 34.8928C558.483 34.8928 557.433 33.7678 557.328 32.0428H562.818C562.863 31.8328 562.878 31.5478 562.878 31.2628C562.878 28.9228 561.708 27.4378 559.638 27.4378C557.763 27.4378 555.978 29.0728 555.978 31.7278C555.978 34.3978 557.703 35.9878 559.878 35.9878ZM557.313 31.0528C557.493 29.4478 558.513 28.5328 559.653 28.5328C560.943 28.5328 561.678 29.4178 561.678 31.0528H557.313ZM566.495 35.9878C567.5 35.9878 568.415 35.4628 569.18 34.8178H569.24L569.36 35.7778H570.485V30.7828C570.485 28.7578 569.645 27.4378 567.65 27.4378C566.345 27.4378 565.205 28.0078 564.455 28.4878L564.995 29.4478C565.625 29.0128 566.48 28.5628 567.44 28.5628C568.775 28.5628 569.105 29.5678 569.105 30.6178C565.64 31.0078 564.11 31.8928 564.11 33.6628C564.11 35.1328 565.13 35.9878 566.495 35.9878ZM566.87 34.8778C566.075 34.8778 565.445 34.5028 565.445 33.5728C565.445 32.5228 566.36 31.8478 569.105 31.5328V33.7978C568.325 34.5028 567.665 34.8778 566.87 34.8778ZM573.073 35.7778H574.438V30.5578C574.978 29.1628 575.818 28.6678 576.493 28.6678C576.823 28.6678 577.003 28.7128 577.288 28.8028L577.543 27.6028C577.273 27.4828 577.033 27.4378 576.673 27.4378C575.758 27.4378 574.918 28.0828 574.363 29.1178H574.318L574.183 27.6328H573.073V35.7778ZM580.916 35.9878C582.836 35.9878 583.871 34.8928 583.871 33.5578C583.871 32.0128 582.581 31.5328 581.396 31.0828C580.466 30.7528 579.641 30.4528 579.641 29.6728C579.641 29.0428 580.106 28.5028 581.141 28.5028C581.861 28.5028 582.446 28.8178 583.001 29.2228L583.661 28.3528C583.031 27.8428 582.131 27.4378 581.126 27.4378C579.356 27.4378 578.321 28.4428 578.321 29.7328C578.321 31.1278 579.566 31.6678 580.691 32.1028C581.591 32.4328 582.566 32.8078 582.566 33.6328C582.566 34.3528 582.026 34.9228 580.946 34.9228C579.971 34.9228 579.251 34.5178 578.546 33.9478L577.871 34.8628C578.636 35.4928 579.761 35.9878 580.916 35.9878Z" fill="black"/>
<path d="M635.108 539.966C635.499 539.576 635.499 538.943 635.108 538.552L628.744 532.188C628.354 531.798 627.72 531.798 627.33 532.188C626.939 532.579 626.939 533.212 627.33 533.602L632.987 539.259L627.33 544.916C626.939 545.307 626.939 545.94 627.33 546.33C627.72 546.721 628.354 546.721 628.744 546.33L635.108 539.966ZM505.602 540.259H634.401V538.259H505.602V540.259Z" fill="#2a3754"/>
<path d="M662.625 528.679H664.505V515.579H668.925V514.019H658.205V515.579H662.625V528.679ZM674.074 528.959C676.734 528.959 679.094 526.859 679.094 523.279C679.094 519.639 676.734 517.559 674.074 517.559C671.394 517.559 669.034 519.639 669.034 523.279C669.034 526.859 671.394 528.959 674.074 528.959ZM674.074 527.439C672.174 527.439 670.914 525.759 670.914 523.279C670.914 520.759 672.174 519.079 674.074 519.079C675.954 519.079 677.214 520.759 677.214 523.279C677.214 525.759 675.954 527.439 674.074 527.439ZM685.663 528.959C686.983 528.959 688.123 528.259 688.983 527.399H689.023L689.183 528.679H690.683V512.779H688.863V516.939L688.943 518.819C688.003 518.019 687.163 517.559 685.903 517.559C683.423 517.559 681.183 519.739 681.183 523.279C681.183 526.899 682.943 528.959 685.663 528.959ZM686.063 527.419C684.163 527.419 683.083 525.859 683.083 523.259C683.083 520.779 684.463 519.079 686.203 519.079C687.103 519.079 687.943 519.399 688.863 520.239V525.939C687.963 526.919 687.083 527.419 686.063 527.419ZM696.886 528.959C698.226 528.959 699.446 528.259 700.466 527.399H700.546L700.706 528.679H702.206V522.019C702.206 519.319 701.086 517.559 698.426 517.559C696.686 517.559 695.166 518.319 694.166 518.959L694.886 520.239C695.726 519.659 696.866 519.059 698.146 519.059C699.926 519.059 700.366 520.399 700.366 521.799C695.746 522.319 693.706 523.499 693.706 525.859C693.706 527.819 695.066 528.959 696.886 528.959ZM697.386 527.479C696.326 527.479 695.486 526.979 695.486 525.739C695.486 524.339 696.706 523.439 700.366 523.019V526.039C699.326 526.979 698.446 527.479 697.386 527.479ZM705.815 533.379C707.995 533.379 709.115 531.739 709.875 529.599L713.975 517.819H712.195L710.235 523.859C709.955 524.839 709.635 525.919 709.335 526.919H709.235C708.875 525.919 708.515 524.819 708.175 523.859L705.955 517.819H704.075L708.435 528.699L708.195 529.519C707.735 530.859 706.955 531.859 705.735 531.859C705.435 531.859 705.115 531.779 704.915 531.699L704.555 533.159C704.895 533.299 705.315 533.379 705.815 533.379Z" fill="black"/>
<path d="M425.339 528.679H434.539V527.119H430.479C429.739 527.119 428.859 527.179 428.079 527.259C431.539 523.999 433.839 521.019 433.839 518.079C433.839 515.459 432.199 513.759 429.579 513.759C427.719 513.759 426.439 514.619 425.239 515.919L426.299 516.939C427.119 515.979 428.159 515.239 429.359 515.239C431.179 515.239 432.039 516.479 432.039 518.159C432.039 520.659 429.939 523.599 425.339 527.619V528.679ZM441.113 528.959C443.873 528.959 445.653 526.419 445.653 521.299C445.653 516.219 443.873 513.759 441.113 513.759C438.313 513.759 436.533 516.219 436.533 521.299C436.533 526.419 438.313 528.959 441.113 528.959ZM441.113 527.479C439.433 527.479 438.293 525.619 438.293 521.299C438.293 517.039 439.433 515.219 441.113 515.219C442.773 515.219 443.893 517.039 443.893 521.299C443.893 525.619 442.773 527.479 441.113 527.479ZM447.527 528.679H456.727V527.119H452.667C451.927 527.119 451.047 527.179 450.267 527.259C453.727 523.999 456.027 521.019 456.027 518.079C456.027 515.459 454.387 513.759 451.767 513.759C449.907 513.759 448.627 514.619 447.427 515.919L448.487 516.939C449.307 515.979 450.347 515.239 451.547 515.239C453.367 515.239 454.227 516.479 454.227 518.159C454.227 520.659 452.127 523.599 447.527 527.619V528.679ZM458.62 528.679H467.82V527.119H463.76C463.02 527.119 462.14 527.179 461.36 527.259C464.82 523.999 467.12 521.019 467.12 518.079C467.12 515.459 465.48 513.759 462.86 513.759C461 513.759 459.72 514.619 458.52 515.919L459.58 516.939C460.4 515.979 461.44 515.239 462.64 515.239C464.46 515.239 465.32 516.479 465.32 518.159C465.32 520.659 463.22 523.599 458.62 527.619V528.679Z" fill="black"/>
<circle cx="20" cy="56" r="20" fill="#2a3754"/>
<circle cx="20" cy="765.136" r="20" fill="#2a3754"/>
<circle cx="20" cy="291.062" r="20" fill="#2a3754"/>
<circle cx="20" cy="528.099" r="20" fill="#2a3754"/>
<circle cx="20" cy="113.519" r="4" fill="#C4C4C4"/>
<circle cx="20" cy="212.519" r="4" fill="#C4C4C4"/>
<circle cx="20" cy="243.519" r="4" fill="#C4C4C4"/>
<circle cx="20" cy="179.519" r="4" fill="#C4C4C4"/>
<circle cx="20" cy="146.519" r="4" fill="#C4C4C4"/>
<circle cx="20" cy="349.519" r="4" fill="#C4C4C4"/>
<circle cx="20" cy="448.519" r="4" fill="#C4C4C4"/>
<circle cx="20" cy="479.519" r="4" fill="#C4C4C4"/>
<circle cx="20" cy="415.519" r="4" fill="#C4C4C4"/>
<circle cx="20" cy="382.519" r="4" fill="#C4C4C4"/>
<circle cx="20" cy="575.519" r="4" fill="#C4C4C4"/>
<circle cx="20" cy="674.519" r="4" fill="#C4C4C4"/>
<circle cx="20" cy="705.519" r="4" fill="#C4C4C4"/>
<circle cx="20" cy="641.519" r="4" fill="#C4C4C4"/>
<circle cx="20" cy="608.519" r="4" fill="#C4C4C4"/>
</svg>
