<svg width="566" height="405" viewBox="0 0 566 405" fill="none" xmlns="http://www.w3.org/2000/svg">
<path d="M509.88 150H519.08V148.44H515.02C514.28 148.44 513.4 148.5 512.62 148.58C516.08 145.32 518.38 142.34 518.38 139.4C518.38 136.78 516.74 135.08 514.12 135.08C512.26 135.08 510.98 135.94 509.78 137.24L510.84 138.26C511.66 137.3 512.7 136.56 513.9 136.56C515.72 136.56 516.58 137.8 516.58 139.48C516.58 141.98 514.48 144.92 509.88 148.94V150ZM525.654 150.28C528.414 150.28 530.194 147.74 530.194 142.62C530.194 137.54 528.414 135.08 525.654 135.08C522.854 135.08 521.074 137.54 521.074 142.62C521.074 147.74 522.854 150.28 525.654 150.28ZM525.654 148.8C523.974 148.8 522.834 146.94 522.834 142.62C522.834 138.36 523.974 136.54 525.654 136.54C527.314 136.54 528.434 138.36 528.434 142.62C528.434 146.94 527.314 148.8 525.654 148.8ZM532.068 150H541.268V148.44H537.208C536.467 148.44 535.588 148.5 534.808 148.58C538.268 145.32 540.568 142.34 540.568 139.4C540.568 136.78 538.928 135.08 536.308 135.08C534.448 135.08 533.168 135.94 531.968 137.24L533.028 138.26C533.848 137.3 534.888 136.56 536.088 136.56C537.908 136.56 538.768 137.8 538.768 139.48C538.768 141.98 536.668 144.92 532.068 148.94V150ZM544.041 150H552.081V148.48H549.121V135.34H547.721C546.941 135.82 546.001 136.16 544.681 136.38V137.56H547.301V148.48H544.041V150Z" fill="white"/>
<path d="M491.707 143.707C492.098 143.317 492.098 142.683 491.707 142.293L485.343 135.929C484.953 135.538 484.319 135.538 483.929 135.929C483.538 136.319 483.538 136.953 483.929 137.343L489.586 143L483.929 148.657C483.538 149.047 483.538 149.681 483.929 150.071C484.319 150.462 484.953 150.462 485.343 150.071L491.707 143.707ZM391 144H491V142H391V144Z" fill="white"/>
<path d="M328.88 149H338.08V147.44H334.02C333.28 147.44 332.4 147.5 331.62 147.58C335.08 144.32 337.38 141.34 337.38 138.4C337.38 135.78 335.74 134.08 333.12 134.08C331.26 134.08 329.98 134.94 328.78 136.24L329.84 137.26C330.66 136.3 331.7 135.56 332.9 135.56C334.72 135.56 335.58 136.8 335.58 138.48C335.58 140.98 333.48 143.92 328.88 147.94V149ZM344.654 149.28C347.414 149.28 349.194 146.74 349.194 141.62C349.194 136.54 347.414 134.08 344.654 134.08C341.854 134.08 340.074 136.54 340.074 141.62C340.074 146.74 341.854 149.28 344.654 149.28ZM344.654 147.8C342.974 147.8 341.834 145.94 341.834 141.62C341.834 137.36 342.974 135.54 344.654 135.54C346.314 135.54 347.434 137.36 347.434 141.62C347.434 145.94 346.314 147.8 344.654 147.8ZM351.068 149H360.268V147.44H356.208C355.467 147.44 354.588 147.5 353.808 147.58C357.268 144.32 359.568 141.34 359.568 138.4C359.568 135.78 357.928 134.08 355.308 134.08C353.448 134.08 352.168 134.94 350.968 136.24L352.028 137.26C352.848 136.3 353.888 135.56 355.088 135.56C356.908 135.56 357.768 136.8 357.768 138.48C357.768 140.98 355.668 143.92 351.068 147.94V149ZM363.041 149H371.081V147.48H368.121V134.34H366.721C365.941 134.82 365.001 135.16 363.681 135.38V136.56H366.301V147.48H363.041V149Z" fill="white"/>
<circle cx="12.5" cy="33.5" r="12.5" fill="white"/>
<circle cx="12.5" cy="392.5" r="12.5" fill="white"/>
<circle cx="12.5" cy="152.5" r="12.5" fill="white"/>
<ellipse cx="12.5" cy="63.25" rx="2.5" ry="6.25" fill="white"/>
<ellipse cx="12.5" cy="125.25" rx="2.5" ry="6.25" fill="white"/>
<ellipse cx="12.5" cy="105.25" rx="2.5" ry="6.25" fill="white"/>
<ellipse cx="12.5" cy="85.25" rx="2.5" ry="6.25" fill="white"/>
<ellipse cx="12.5" cy="182.25" rx="2.5" ry="6.25" fill="white"/>
<ellipse cx="12.5" cy="242.25" rx="2.5" ry="6.25" fill="white"/>
<ellipse cx="12.5" cy="222.25" rx="2.5" ry="6.25" fill="white"/>
<ellipse cx="12.5" cy="202.25" rx="2.5" ry="6.25" fill="white"/>
<circle cx="12.5" cy="272.5" r="12.5" fill="white"/>
<ellipse cx="12.5" cy="302.25" rx="2.5" ry="6.25" fill="white"/>
<ellipse cx="12.5" cy="362.25" rx="2.5" ry="6.25" fill="white"/>
<ellipse cx="12.5" cy="342.25" rx="2.5" ry="6.25" fill="white"/>
<ellipse cx="12.5" cy="322.25" rx="2.5" ry="6.25" fill="white"/>
<path d="M54 46H57.72V32.84H68.88V29.76H57.72V19.8H70.88V16.68H54V46ZM83.4872 46.56C88.8072 46.56 93.5272 42.36 93.5272 35.2C93.5272 27.92 88.8072 23.76 83.4872 23.76C78.1272 23.76 73.4072 27.92 73.4072 35.2C73.4072 42.36 78.1272 46.56 83.4872 46.56ZM83.4872 43.52C79.6872 43.52 77.1672 40.16 77.1672 35.2C77.1672 30.16 79.6872 26.8 83.4872 26.8C87.2472 26.8 89.7672 30.16 89.7672 35.2C89.7672 40.16 87.2472 43.52 83.4872 43.52ZM107.745 46.56C113.065 46.56 117.785 42.36 117.785 35.2C117.785 27.92 113.065 23.76 107.745 23.76C102.385 23.76 97.665 27.92 97.665 35.2C97.665 42.36 102.385 46.56 107.745 46.56ZM107.745 43.52C103.945 43.52 101.425 40.16 101.425 35.2C101.425 30.16 103.945 26.8 107.745 26.8C111.505 26.8 114.025 30.16 114.025 35.2C114.025 40.16 111.505 43.52 107.745 43.52ZM129.503 46.56C130.863 46.56 132.303 46.16 133.503 45.72L132.783 43C132.103 43.28 131.103 43.6 130.343 43.6C127.823 43.6 126.983 42.04 126.983 39.4V27.24H132.863V24.28H126.983V18.16H123.903L123.503 24.28L120.103 24.52V27.24H123.343V39.32C123.343 43.64 124.863 46.56 129.503 46.56ZM147.302 46.56C152.302 46.56 156.742 42.24 156.742 34.8C156.742 28.12 153.702 23.76 148.102 23.76C145.662 23.76 143.262 25.08 141.262 26.8L141.422 22.88V14.2H137.782V46H140.662L141.022 43.76H141.142C143.022 45.52 145.302 46.56 147.302 46.56ZM146.742 43.48C145.302 43.48 143.302 42.88 141.422 41.24V29.8C143.462 27.84 145.382 26.8 147.222 26.8C151.342 26.8 152.982 30.04 152.982 34.88C152.982 40.24 150.302 43.48 146.742 43.48ZM166.766 46.56C169.446 46.56 171.886 45.16 173.926 43.44H174.086L174.406 46H177.406V32.68C177.406 27.28 175.166 23.76 169.846 23.76C166.366 23.76 163.326 25.28 161.326 26.56L162.766 29.12C164.446 27.96 166.726 26.76 169.286 26.76C172.846 26.76 173.726 29.44 173.726 32.24C164.486 33.28 160.406 35.64 160.406 40.36C160.406 44.28 163.126 46.56 166.766 46.56ZM167.766 43.6C165.646 43.6 163.966 42.6 163.966 40.12C163.966 37.32 166.406 35.52 173.726 34.68V40.72C171.646 42.6 169.886 43.6 167.766 43.6ZM188.145 46.56C189.145 46.56 189.705 46.4 190.225 46.24L189.745 43.44C189.305 43.52 189.145 43.52 188.985 43.52C188.425 43.52 187.945 43.08 187.945 41.92V14.2H184.305V41.68C184.305 44.8 185.385 46.56 188.145 46.56ZM199.512 46.56C200.512 46.56 201.072 46.4 201.592 46.24L201.112 43.44C200.672 43.52 200.512 43.52 200.352 43.52C199.792 43.52 199.312 43.08 199.312 41.92V14.2H195.672V41.68C195.672 44.8 196.752 46.56 199.512 46.56ZM216.305 46H225.665C232.185 46 236.745 43.16 236.745 37.44C236.745 33.44 234.305 31.08 230.785 30.4V30.24C233.545 29.32 235.065 26.76 235.065 23.88C235.065 18.72 230.945 16.68 224.985 16.68H216.305V46ZM220.025 29.16V19.6H224.545C229.105 19.6 231.425 20.88 231.425 24.32C231.425 27.32 229.385 29.16 224.345 29.16H220.025ZM220.025 43.08V32H225.145C230.265 32 233.145 33.68 233.145 37.32C233.145 41.28 230.145 43.08 225.145 43.08H220.025ZM247.274 46.56C249.954 46.56 252.394 45.16 254.434 43.44H254.594L254.914 46H257.914V32.68C257.914 27.28 255.674 23.76 250.354 23.76C246.874 23.76 243.834 25.28 241.834 26.56L243.274 29.12C244.954 27.96 247.234 26.76 249.794 26.76C253.354 26.76 254.234 29.44 254.234 32.24C244.994 33.28 240.914 35.64 240.914 40.36C240.914 44.28 243.634 46.56 247.274 46.56ZM248.274 43.6C246.154 43.6 244.474 42.6 244.474 40.12C244.474 37.32 246.914 35.52 254.234 34.68V40.72C252.154 42.6 250.394 43.6 248.274 43.6ZM264.813 46H268.453V32.08C269.893 28.36 272.133 27.04 273.933 27.04C274.813 27.04 275.293 27.16 276.053 27.4L276.733 24.2C276.013 23.88 275.373 23.76 274.413 23.76C271.973 23.76 269.733 25.48 268.253 28.24H268.133L267.773 24.28H264.813V46ZM65.0016 71.82C66.3016 71.82 67.4816 70.72 67.4816 69.14C67.4816 67.52 66.3016 66.42 65.0016 66.42C63.6616 66.42 62.4816 67.52 62.4816 69.14C62.4816 70.72 63.6616 71.82 65.0016 71.82ZM86.06 75.28C89.14 75.28 91.04 73.44 91.04 71.12C91.04 68.94 89.74 67.92 88.02 67.18L85.94 66.28C84.8 65.8 83.52 65.28 83.52 63.84C83.52 62.54 84.6 61.7 86.26 61.7C87.6 61.7 88.68 62.24 89.58 63.08L90.56 61.9C89.54 60.82 88 60.08 86.26 60.08C83.58 60.08 81.64 61.72 81.64 63.98C81.64 66.12 83.24 67.16 84.62 67.74L86.72 68.66C88.1 69.26 89.16 69.74 89.16 71.26C89.16 72.68 88.02 73.64 86.1 73.64C84.58 73.64 83.1 72.94 82.04 71.82L80.94 73.1C82.22 74.44 84 75.28 86.06 75.28ZM96.5681 75.28C97.2481 75.28 97.9681 75.08 98.5681 74.86L98.2081 73.5C97.8681 73.64 97.3681 73.8 96.9881 73.8C95.7281 73.8 95.3081 73.02 95.3081 71.7V65.62H98.2481V64.14H95.3081V61.08H93.7681L93.5681 64.14L91.8681 64.26V65.62H93.4881V71.66C93.4881 73.82 94.2481 75.28 96.5681 75.28ZM102.66 75.28C104 75.28 105.22 74.58 106.24 73.72H106.32L106.48 75H107.98V68.34C107.98 65.64 106.86 63.88 104.2 63.88C102.46 63.88 100.94 64.64 99.9403 65.28L100.66 66.56C101.5 65.98 102.64 65.38 103.92 65.38C105.7 65.38 106.14 66.72 106.14 68.12C101.52 68.64 99.4803 69.82 99.4803 72.18C99.4803 74.14 100.84 75.28 102.66 75.28ZM103.16 73.8C102.1 73.8 101.26 73.3 101.26 72.06C101.26 70.66 102.48 69.76 106.14 69.34V72.36C105.1 73.3 104.22 73.8 103.16 73.8ZM111.71 75H113.53V62.76C113.53 61.3 114.17 60.52 115.25 60.52C115.79 60.52 116.23 60.62 116.71 60.84L117.09 59.44C116.53 59.2 115.81 59.04 115.09 59.04C112.85 59.04 111.71 60.46 111.71 62.7V75ZM118.07 75H119.91V62.44C119.91 61.02 120.41 60.3 121.43 60.3C121.83 60.3 122.25 60.4 122.67 60.58L123.05 59.18C122.55 58.98 121.91 58.82 121.25 58.82C119.07 58.82 118.07 60.22 118.07 62.4V75ZM110.23 65.62H122.21V64.14H111.81L110.23 64.26V65.62Z" fill="white"/>
<path d="M54 166H57.52V150.64C57.52 147.52 57.24 144.44 57.04 141.48H57.24L60.4 147.52L71.04 166H74.88V136.68H71.32V151.92C71.32 154.96 71.6 158.28 71.84 161.24H71.64L68.48 155.16L57.8 136.68H54V166ZM91.0263 166.56C96.3463 166.56 101.066 162.36 101.066 155.2C101.066 147.92 96.3463 143.76 91.0263 143.76C85.6663 143.76 80.9463 147.92 80.9463 155.2C80.9463 162.36 85.6663 166.56 91.0263 166.56ZM91.0263 163.52C87.2263 163.52 84.7063 160.16 84.7063 155.2C84.7063 150.16 87.2263 146.8 91.0263 146.8C94.7863 146.8 97.3063 150.16 97.3063 155.2C97.3063 160.16 94.7863 163.52 91.0263 163.52ZM111.251 166H115.491L123.171 144.28H119.611L115.451 156.68C114.811 158.8 114.131 161 113.451 163.04H113.291C112.611 161 111.931 158.8 111.291 156.68L107.171 144.28H103.411L111.251 166ZM131.414 166.56C134.094 166.56 136.534 165.16 138.574 163.44H138.734L139.054 166H142.054V152.68C142.054 147.28 139.814 143.76 134.494 143.76C131.014 143.76 127.974 145.28 125.974 146.56L127.414 149.12C129.094 147.96 131.374 146.76 133.934 146.76C137.494 146.76 138.374 149.44 138.374 152.24C129.134 153.28 125.054 155.64 125.054 160.36C125.054 164.28 127.774 166.56 131.414 166.56ZM132.414 163.6C130.294 163.6 128.614 162.6 128.614 160.12C128.614 157.32 131.054 155.52 138.374 154.68V160.72C136.294 162.6 134.534 163.6 132.414 163.6ZM158.219 166H167.579C174.099 166 178.659 163.16 178.659 157.44C178.659 153.44 176.219 151.08 172.699 150.4V150.24C175.459 149.32 176.979 146.76 176.979 143.88C176.979 138.72 172.859 136.68 166.899 136.68H158.219V166ZM161.939 149.16V139.6H166.459C171.019 139.6 173.339 140.88 173.339 144.32C173.339 147.32 171.299 149.16 166.259 149.16H161.939ZM161.939 163.08V152H167.059C172.179 152 175.059 153.68 175.059 157.32C175.059 161.28 172.059 163.08 167.059 163.08H161.939ZM189.188 166.56C191.868 166.56 194.308 165.16 196.348 163.44H196.508L196.828 166H199.828V152.68C199.828 147.28 197.588 143.76 192.268 143.76C188.788 143.76 185.748 145.28 183.748 146.56L185.188 149.12C186.868 147.96 189.148 146.76 191.708 146.76C195.268 146.76 196.148 149.44 196.148 152.24C186.908 153.28 182.828 155.64 182.828 160.36C182.828 164.28 185.548 166.56 189.188 166.56ZM190.188 163.6C188.068 163.6 186.388 162.6 186.388 160.12C186.388 157.32 188.828 155.52 196.148 154.68V160.72C194.068 162.6 192.308 163.6 190.188 163.6ZM212.407 166.56C217.527 166.56 220.287 163.64 220.287 160.08C220.287 155.96 216.847 154.68 213.687 153.48C211.207 152.6 209.007 151.8 209.007 149.72C209.007 148.04 210.247 146.6 213.007 146.6C214.927 146.6 216.487 147.44 217.967 148.52L219.727 146.2C218.047 144.84 215.647 143.76 212.967 143.76C208.247 143.76 205.487 146.44 205.487 149.88C205.487 153.6 208.807 155.04 211.807 156.2C214.207 157.08 216.807 158.08 216.807 160.28C216.807 162.2 215.367 163.72 212.487 163.72C209.887 163.72 207.967 162.64 206.087 161.12L204.287 163.56C206.327 165.24 209.327 166.56 212.407 166.56ZM234.198 166.56C237.158 166.56 239.438 165.56 241.358 164.32L240.038 161.88C238.438 162.96 236.718 163.64 234.638 163.64C230.478 163.64 227.678 160.64 227.398 156.04H242.038C242.158 155.48 242.198 154.72 242.198 153.96C242.198 147.72 239.078 143.76 233.558 143.76C228.558 143.76 223.798 148.12 223.798 155.2C223.798 162.32 228.398 166.56 234.198 166.56ZM227.358 153.4C227.838 149.12 230.558 146.68 233.598 146.68C237.038 146.68 238.998 149.04 238.998 153.4H227.358ZM65.0016 191.82C66.3016 191.82 67.4816 190.72 67.4816 189.14C67.4816 187.52 66.3016 186.42 65.0016 186.42C63.6616 186.42 62.4816 187.52 62.4816 189.14C62.4816 190.72 63.6616 191.82 65.0016 191.82ZM82 195H83.86V188.42H89.44V186.88H83.86V181.9H90.44V180.34H82V195ZM95.625 195.28C97.125 195.28 98.205 194.48 99.225 193.3H99.265L99.425 195H100.925V184.14H99.105V191.86C98.085 193.14 97.285 193.68 96.185 193.68C94.745 193.68 94.125 192.82 94.125 190.8V184.14H92.305V191.02C92.305 193.8 93.345 195.28 95.625 195.28ZM106.533 195.28C107.033 195.28 107.313 195.2 107.573 195.12L107.333 193.72C107.113 193.76 107.033 193.76 106.953 193.76C106.673 193.76 106.433 193.54 106.433 192.96V179.1H104.613V192.84C104.613 194.4 105.153 195.28 106.533 195.28ZM112.217 195.28C112.717 195.28 112.997 195.2 113.257 195.12L113.017 193.72C112.797 193.76 112.717 193.76 112.637 193.76C112.357 193.76 112.117 193.54 112.117 192.96V179.1H110.297V192.84C110.297 194.4 110.837 195.28 112.217 195.28ZM124.673 195.28C127.753 195.28 129.653 193.44 129.653 191.12C129.653 188.94 128.353 187.92 126.633 187.18L124.553 186.28C123.413 185.8 122.133 185.28 122.133 183.84C122.133 182.54 123.213 181.7 124.873 181.7C126.213 181.7 127.293 182.24 128.193 183.08L129.173 181.9C128.153 180.82 126.613 180.08 124.873 180.08C122.193 180.08 120.253 181.72 120.253 183.98C120.253 186.12 121.853 187.16 123.233 187.74L125.333 188.66C126.713 189.26 127.773 189.74 127.773 191.26C127.773 192.68 126.633 193.64 124.713 193.64C123.193 193.64 121.713 192.94 120.653 191.82L119.553 193.1C120.833 194.44 122.613 195.28 124.673 195.28ZM135.181 195.28C135.861 195.28 136.581 195.08 137.181 194.86L136.821 193.5C136.481 193.64 135.981 193.8 135.601 193.8C134.341 193.8 133.921 193.02 133.921 191.7V185.62H136.861V184.14H133.921V181.08H132.381L132.181 184.14L130.481 184.26V185.62H132.101V191.66C132.101 193.82 132.861 195.28 135.181 195.28ZM141.274 195.28C142.614 195.28 143.834 194.58 144.854 193.72H144.934L145.094 195H146.594V188.34C146.594 185.64 145.474 183.88 142.814 183.88C141.074 183.88 139.554 184.64 138.554 185.28L139.274 186.56C140.114 185.98 141.254 185.38 142.534 185.38C144.314 185.38 144.754 186.72 144.754 188.12C140.134 188.64 138.094 189.82 138.094 192.18C138.094 194.14 139.454 195.28 141.274 195.28ZM141.774 193.8C140.714 193.8 139.874 193.3 139.874 192.06C139.874 190.66 141.094 189.76 144.754 189.34V192.36C143.714 193.3 142.834 193.8 141.774 193.8ZM154.303 195.28C155.603 195.28 156.863 194.76 157.823 193.9L157.043 192.68C156.363 193.28 155.463 193.76 154.483 193.76C152.483 193.76 151.103 192.08 151.103 189.6C151.103 187.08 152.543 185.4 154.543 185.4C155.383 185.4 156.063 185.78 156.703 186.36L157.623 185.16C156.863 184.46 155.863 183.88 154.443 183.88C151.663 183.88 149.223 185.96 149.223 189.6C149.223 193.18 151.423 195.28 154.303 195.28ZM160.238 195H162.038V192.14L164.058 189.76L167.238 195H169.218L165.138 188.52L168.758 184.14H166.718L162.098 189.88H162.038V179.1H160.238V195Z" fill="white"/>
<path d="M62.12 285.56C68.28 285.56 72.08 281.88 72.08 277.24C72.08 272.88 69.48 270.84 66.04 269.36L61.88 267.56C59.6 266.6 57.04 265.56 57.04 262.68C57.04 260.08 59.2 258.4 62.52 258.4C65.2 258.4 67.36 259.48 69.16 261.16L71.12 258.8C69.08 256.64 66 255.16 62.52 255.16C57.16 255.16 53.28 258.44 53.28 262.96C53.28 267.24 56.48 269.32 59.24 270.48L63.44 272.32C66.2 273.52 68.32 274.48 68.32 277.52C68.32 280.36 66.04 282.28 62.2 282.28C59.16 282.28 56.2 280.88 54.08 278.64L51.88 281.2C54.44 283.88 58 285.56 62.12 285.56ZM77.5081 285H81.1481V263.28H77.5081V285ZM79.3481 258.8C80.7481 258.8 81.7881 257.88 81.7881 256.36C81.7881 254.96 80.7481 254.04 79.3481 254.04C77.9081 254.04 76.9081 254.96 76.9081 256.36C76.9081 257.88 77.9081 258.8 79.3481 258.8ZM85.4438 285H89.2838L92.2038 279.92C92.9238 278.6 93.6438 277.28 94.4038 276.04H94.6038C95.4037 277.28 96.2038 278.64 96.9638 279.92L100.164 285H104.124L97.0038 274.04L103.564 263.28H99.7638L97.1238 268.04C96.4438 269.28 95.8038 270.48 95.1638 271.72H95.0038C94.2438 270.48 93.5238 269.28 92.8438 268.04L89.9238 263.28H86.0038L92.5638 273.68L85.4438 285ZM105.903 275.24H116.143V272.44H105.903V275.24ZM121.93 285H125.65V271.84H136.81V268.76H125.65V258.8H138.81V255.68H121.93V285ZM147.078 285.56C149.758 285.56 152.198 284.16 154.238 282.44H154.398L154.718 285H157.718V271.68C157.718 266.28 155.478 262.76 150.158 262.76C146.678 262.76 143.638 264.28 141.638 265.56L143.078 268.12C144.758 266.96 147.038 265.76 149.598 265.76C153.158 265.76 154.038 268.44 154.038 271.24C144.798 272.28 140.718 274.64 140.718 279.36C140.718 283.28 143.438 285.56 147.078 285.56ZM148.078 282.6C145.958 282.6 144.278 281.6 144.278 279.12C144.278 276.32 146.718 274.52 154.038 273.68V279.72C151.958 281.6 150.198 282.6 148.078 282.6ZM173.138 285.56C175.738 285.56 178.258 284.52 180.178 282.8L178.618 280.36C177.258 281.56 175.458 282.52 173.498 282.52C169.498 282.52 166.738 279.16 166.738 274.2C166.738 269.16 169.618 265.8 173.618 265.8C175.298 265.8 176.658 266.56 177.938 267.72L179.778 265.32C178.258 263.92 176.258 262.76 173.418 262.76C167.858 262.76 162.978 266.92 162.978 274.2C162.978 281.36 167.378 285.56 173.138 285.56ZM191.261 285.56C192.621 285.56 194.061 285.16 195.261 284.72L194.541 282C193.861 282.28 192.861 282.6 192.101 282.6C189.581 282.6 188.741 281.04 188.741 278.4V266.24H194.621V263.28H188.741V257.16H185.661L185.261 263.28L181.861 263.52V266.24H185.101V278.32C185.101 282.64 186.621 285.56 191.261 285.56ZM207.276 285.56C212.596 285.56 217.316 281.36 217.316 274.2C217.316 266.92 212.596 262.76 207.276 262.76C201.916 262.76 197.196 266.92 197.196 274.2C197.196 281.36 201.916 285.56 207.276 285.56ZM207.276 282.52C203.476 282.52 200.956 279.16 200.956 274.2C200.956 269.16 203.476 265.8 207.276 265.8C211.036 265.8 213.556 269.16 213.556 274.2C213.556 279.16 211.036 282.52 207.276 282.52ZM223.094 285H226.734V271.08C228.174 267.36 230.414 266.04 232.214 266.04C233.094 266.04 233.574 266.16 234.334 266.4L235.014 263.2C234.294 262.88 233.654 262.76 232.694 262.76C230.254 262.76 228.014 264.48 226.534 267.24H226.414L226.054 263.28H223.094V285ZM65.0016 310.82C66.3016 310.82 67.4816 309.72 67.4816 308.14C67.4816 306.52 66.3016 305.42 65.0016 305.42C63.6616 305.42 62.4816 306.52 62.4816 308.14C62.4816 309.72 63.6616 310.82 65.0016 310.82ZM82 314H83.86V307.42H89.44V305.88H83.86V300.9H90.44V299.34H82V314ZM95.625 314.28C97.125 314.28 98.205 313.48 99.225 312.3H99.265L99.425 314H100.925V303.14H99.105V310.86C98.085 312.14 97.285 312.68 96.185 312.68C94.745 312.68 94.125 311.82 94.125 309.8V303.14H92.305V310.02C92.305 312.8 93.345 314.28 95.625 314.28ZM106.533 314.28C107.033 314.28 107.313 314.2 107.573 314.12L107.333 312.72C107.113 312.76 107.033 312.76 106.953 312.76C106.673 312.76 106.433 312.54 106.433 311.96V298.1H104.613V311.84C104.613 313.4 105.153 314.28 106.533 314.28ZM112.217 314.28C112.717 314.28 112.997 314.2 113.257 314.12L113.017 312.72C112.797 312.76 112.717 312.76 112.637 312.76C112.357 312.76 112.117 312.54 112.117 311.96V298.1H110.297V311.84C110.297 313.4 110.837 314.28 112.217 314.28ZM124.673 314.28C127.753 314.28 129.653 312.44 129.653 310.12C129.653 307.94 128.353 306.92 126.633 306.18L124.553 305.28C123.413 304.8 122.133 304.28 122.133 302.84C122.133 301.54 123.213 300.7 124.873 300.7C126.213 300.7 127.293 301.24 128.193 302.08L129.173 300.9C128.153 299.82 126.613 299.08 124.873 299.08C122.193 299.08 120.253 300.72 120.253 302.98C120.253 305.12 121.853 306.16 123.233 306.74L125.333 307.66C126.713 308.26 127.773 308.74 127.773 310.26C127.773 311.68 126.633 312.64 124.713 312.64C123.193 312.64 121.713 311.94 120.653 310.82L119.553 312.1C120.833 313.44 122.613 314.28 124.673 314.28ZM135.181 314.28C135.861 314.28 136.581 314.08 137.181 313.86L136.821 312.5C136.481 312.64 135.981 312.8 135.601 312.8C134.341 312.8 133.921 312.02 133.921 310.7V304.62H136.861V303.14H133.921V300.08H132.381L132.181 303.14L130.481 303.26V304.62H132.101V310.66C132.101 312.82 132.861 314.28 135.181 314.28ZM141.274 314.28C142.614 314.28 143.834 313.58 144.854 312.72H144.934L145.094 314H146.594V307.34C146.594 304.64 145.474 302.88 142.814 302.88C141.074 302.88 139.554 303.64 138.554 304.28L139.274 305.56C140.114 304.98 141.254 304.38 142.534 304.38C144.314 304.38 144.754 305.72 144.754 307.12C140.134 307.64 138.094 308.82 138.094 311.18C138.094 313.14 139.454 314.28 141.274 314.28ZM141.774 312.8C140.714 312.8 139.874 312.3 139.874 311.06C139.874 309.66 141.094 308.76 144.754 308.34V311.36C143.714 312.3 142.834 312.8 141.774 312.8ZM154.303 314.28C155.603 314.28 156.863 313.76 157.823 312.9L157.043 311.68C156.363 312.28 155.463 312.76 154.483 312.76C152.483 312.76 151.103 311.08 151.103 308.6C151.103 306.08 152.543 304.4 154.543 304.4C155.383 304.4 156.063 304.78 156.703 305.36L157.623 304.16C156.863 303.46 155.863 302.88 154.443 302.88C151.663 302.88 149.223 304.96 149.223 308.6C149.223 312.18 151.423 314.28 154.303 314.28ZM160.238 314H162.038V311.14L164.058 308.76L167.238 314H169.218L165.138 307.52L168.758 303.14H166.718L162.098 308.88H162.038V298.1H160.238V314Z" fill="white"/>
<path d="M509.88 40H519.08V38.44H515.02C514.28 38.44 513.4 38.5 512.62 38.58C516.08 35.32 518.38 32.34 518.38 29.4C518.38 26.78 516.74 25.08 514.12 25.08C512.26 25.08 510.98 25.94 509.78 27.24L510.84 28.26C511.66 27.3 512.7 26.56 513.9 26.56C515.72 26.56 516.58 27.8 516.58 29.48C516.58 31.98 514.48 34.92 509.88 38.94V40ZM525.654 40.28C528.414 40.28 530.194 37.74 530.194 32.62C530.194 27.54 528.414 25.08 525.654 25.08C522.854 25.08 521.074 27.54 521.074 32.62C521.074 37.74 522.854 40.28 525.654 40.28ZM525.654 38.8C523.974 38.8 522.834 36.94 522.834 32.62C522.834 28.36 523.974 26.54 525.654 26.54C527.314 26.54 528.434 28.36 528.434 32.62C528.434 36.94 527.314 38.8 525.654 38.8ZM532.068 40H541.268V38.44H537.208C536.467 38.44 535.588 38.5 534.808 38.58C538.268 35.32 540.568 32.34 540.568 29.4C540.568 26.78 538.928 25.08 536.308 25.08C534.448 25.08 533.168 25.94 531.968 27.24L533.028 28.26C533.848 27.3 534.888 26.56 536.088 26.56C537.908 26.56 538.768 27.8 538.768 29.48C538.768 31.98 536.668 34.92 532.068 38.94V40ZM543.161 40H552.361V38.44H548.301C547.561 38.44 546.681 38.5 545.901 38.58C549.361 35.32 551.661 32.34 551.661 29.4C551.661 26.78 550.021 25.08 547.401 25.08C545.541 25.08 544.261 25.94 543.061 27.24L544.121 28.26C544.941 27.3 545.981 26.56 547.181 26.56C549.001 26.56 549.861 27.8 549.861 29.48C549.861 31.98 547.761 34.92 543.161 38.94V40Z" fill="white"/>
<path d="M491.707 33.7071C492.098 33.3166 492.098 32.6834 491.707 32.2929L485.343 25.9289C484.953 25.5384 484.319 25.5384 483.929 25.9289C483.538 26.3195 483.538 26.9526 483.929 27.3431L489.586 33L483.929 38.6569C483.538 39.0474 483.538 39.6805 483.929 40.0711C484.319 40.4616 484.953 40.4616 485.343 40.0711L491.707 33.7071ZM391 34H491V32H391V34Z" fill="white"/>
<path d="M328.88 39H338.08V37.44H334.02C333.28 37.44 332.4 37.5 331.62 37.58C335.08 34.32 337.38 31.34 337.38 28.4C337.38 25.78 335.74 24.08 333.12 24.08C331.26 24.08 329.98 24.94 328.78 26.24L329.84 27.26C330.66 26.3 331.7 25.56 332.9 25.56C334.72 25.56 335.58 26.8 335.58 28.48C335.58 30.98 333.48 33.92 328.88 37.94V39ZM344.654 39.28C347.414 39.28 349.194 36.74 349.194 31.62C349.194 26.54 347.414 24.08 344.654 24.08C341.854 24.08 340.074 26.54 340.074 31.62C340.074 36.74 341.854 39.28 344.654 39.28ZM344.654 37.8C342.974 37.8 341.834 35.94 341.834 31.62C341.834 27.36 342.974 25.54 344.654 25.54C346.314 25.54 347.434 27.36 347.434 31.62C347.434 35.94 346.314 37.8 344.654 37.8ZM351.948 39H359.988V37.48H357.028V24.34H355.628C354.848 24.82 353.908 25.16 352.588 25.38V26.56H355.208V37.48H351.948V39ZM366.861 39.28C369.601 39.28 371.461 37.62 371.461 35.48C371.461 33.48 370.261 32.36 368.981 31.62V31.52C369.861 30.84 370.941 29.54 370.941 27.98C370.941 25.74 369.421 24.14 366.921 24.14C364.621 24.14 362.881 25.62 362.881 27.84C362.881 29.38 363.801 30.5 364.881 31.24V31.32C363.541 32.04 362.181 33.4 362.181 35.38C362.181 37.64 364.161 39.28 366.861 39.28ZM367.861 31.06C366.141 30.38 364.561 29.6 364.561 27.84C364.561 26.44 365.541 25.48 366.881 25.48C368.461 25.48 369.381 26.64 369.381 28.08C369.381 29.18 368.861 30.18 367.861 31.06ZM366.901 37.9C365.141 37.9 363.821 36.76 363.821 35.2C363.821 33.8 364.641 32.64 365.841 31.88C367.901 32.72 369.701 33.46 369.701 35.42C369.701 36.88 368.581 37.9 366.901 37.9Z" fill="white"/>
<path d="M411.435 135.21C413.55 135.21 415.5 133.56 415.5 129.255C415.5 125.82 413.925 124.125 411.81 124.125C410.1 124.125 408.66 125.505 408.66 127.545C408.66 129.735 409.845 130.845 411.705 130.845C412.605 130.845 413.61 130.29 414.3 129.39L414.225 128.295C413.505 129.405 412.635 129.825 411.93 129.825C410.61 129.825 409.95 128.94 409.95 127.545C409.95 126.12 410.76 125.19 411.81 125.19C413.355 125.19 414.21 126.615 414.21 129.255C414.21 132.855 412.92 134.07 411.375 134.07C410.715 134.07 410.055 133.755 409.62 133.215L408.855 134.085C409.44 134.73 410.28 135.21 411.435 135.21ZM421.055 135H422.42V129.09C423.155 128.265 423.845 127.845 424.46 127.845C425.51 127.845 425.99 128.49 425.99 130.02V135H427.355V129.09C428.12 128.265 428.765 127.845 429.395 127.845C430.445 127.845 430.925 128.49 430.925 130.02V135H432.29V129.84C432.29 127.77 431.48 126.66 429.815 126.66C428.825 126.66 427.97 127.305 427.115 128.205C426.8 127.245 426.125 126.66 424.88 126.66C423.905 126.66 423.05 127.275 422.345 128.04H422.3L422.165 126.855H421.055V135ZM438.107 135.21C440.102 135.21 441.872 133.635 441.872 130.95C441.872 128.22 440.102 126.66 438.107 126.66C436.097 126.66 434.327 128.22 434.327 130.95C434.327 133.635 436.097 135.21 438.107 135.21ZM438.107 134.07C436.682 134.07 435.737 132.81 435.737 130.95C435.737 129.06 436.682 127.8 438.107 127.8C439.517 127.8 440.462 129.06 440.462 130.95C440.462 132.81 439.517 134.07 438.107 134.07ZM444.038 135H445.403V129.09C446.213 128.28 446.798 127.845 447.623 127.845C448.703 127.845 449.168 128.49 449.168 130.02V135H450.548V129.84C450.548 127.77 449.768 126.66 448.058 126.66C446.933 126.66 446.093 127.275 445.328 128.04H445.283L445.148 126.855H444.038V135ZM455.743 135.21C456.253 135.21 456.793 135.06 457.243 134.895L456.973 133.875C456.718 133.98 456.343 134.1 456.058 134.1C455.113 134.1 454.798 133.515 454.798 132.525V127.965H457.003V126.855H454.798V124.56H453.643L453.493 126.855L452.218 126.945V127.965H453.433V132.495C453.433 134.115 454.003 135.21 455.743 135.21ZM458.848 135H460.213V129.09C461.023 128.28 461.608 127.845 462.433 127.845C463.513 127.845 463.978 128.49 463.978 130.02V135H465.358V129.84C465.358 127.77 464.578 126.66 462.868 126.66C461.743 126.66 460.918 127.275 460.168 128.01L460.213 126.33V123.075H458.848V135ZM470.089 135.21C472.009 135.21 473.044 134.115 473.044 132.78C473.044 131.235 471.754 130.755 470.569 130.305C469.639 129.975 468.814 129.675 468.814 128.895C468.814 128.265 469.279 127.725 470.314 127.725C471.034 127.725 471.619 128.04 472.174 128.445L472.834 127.575C472.204 127.065 471.304 126.66 470.299 126.66C468.529 126.66 467.494 127.665 467.494 128.955C467.494 130.35 468.739 130.89 469.864 131.325C470.764 131.655 471.739 132.03 471.739 132.855C471.739 133.575 471.199 134.145 470.119 134.145C469.144 134.145 468.424 133.74 467.719 133.17L467.044 134.085C467.809 134.715 468.934 135.21 470.089 135.21Z" fill="white"/>
<path d="M411.6 25.26H412.71V21.99H415.755V20.97H412.71V17.685H411.6V20.97H408.555V21.99H411.6V25.26ZM421.405 27H422.695V16.32H421.18L416.605 23.145V24.045H424.165V22.965H418.045L420.55 19.29C420.85 18.765 421.15 18.285 421.42 17.79H421.495C421.45 18.345 421.405 19.275 421.405 19.83V27ZM429.495 30.525C431.13 30.525 431.97 29.295 432.54 27.69L435.615 18.855H434.28L432.81 23.385C432.6 24.12 432.36 24.93 432.135 25.68H432.06C431.79 24.93 431.52 24.105 431.265 23.385L429.6 18.855H428.19L431.46 27.015L431.28 27.63C430.935 28.635 430.35 29.385 429.435 29.385C429.21 29.385 428.97 29.325 428.82 29.265L428.55 30.36C428.805 30.465 429.12 30.525 429.495 30.525ZM440.38 27.21C441.49 27.21 442.345 26.835 443.065 26.37L442.57 25.455C441.97 25.86 441.325 26.115 440.545 26.115C438.985 26.115 437.935 24.99 437.83 23.265H443.32C443.365 23.055 443.38 22.77 443.38 22.485C443.38 20.145 442.21 18.66 440.14 18.66C438.265 18.66 436.48 20.295 436.48 22.95C436.48 25.62 438.205 27.21 440.38 27.21ZM437.815 22.275C437.995 20.67 439.015 19.755 440.155 19.755C441.445 19.755 442.18 20.64 442.18 22.275H437.815ZM446.997 27.21C448.002 27.21 448.917 26.685 449.682 26.04H449.742L449.862 27H450.987V22.005C450.987 19.98 450.147 18.66 448.152 18.66C446.847 18.66 445.707 19.23 444.957 19.71L445.497 20.67C446.127 20.235 446.982 19.785 447.942 19.785C449.277 19.785 449.607 20.79 449.607 21.84C446.142 22.23 444.612 23.115 444.612 24.885C444.612 26.355 445.632 27.21 446.997 27.21ZM447.372 26.1C446.577 26.1 445.947 25.725 445.947 24.795C445.947 23.745 446.862 23.07 449.607 22.755V25.02C448.827 25.725 448.167 26.1 447.372 26.1ZM453.574 27H454.939V21.78C455.479 20.385 456.319 19.89 456.994 19.89C457.324 19.89 457.504 19.935 457.789 20.025L458.044 18.825C457.774 18.705 457.534 18.66 457.174 18.66C456.259 18.66 455.419 19.305 454.864 20.34H454.819L454.684 18.855H453.574V27ZM461.417 27.21C463.337 27.21 464.372 26.115 464.372 24.78C464.372 23.235 463.082 22.755 461.897 22.305C460.967 21.975 460.142 21.675 460.142 20.895C460.142 20.265 460.607 19.725 461.642 19.725C462.362 19.725 462.947 20.04 463.502 20.445L464.162 19.575C463.532 19.065 462.632 18.66 461.627 18.66C459.857 18.66 458.822 19.665 458.822 20.955C458.822 22.35 460.067 22.89 461.192 23.325C462.092 23.655 463.067 24.03 463.067 24.855C463.067 25.575 462.527 26.145 461.447 26.145C460.472 26.145 459.752 25.74 459.047 25.17L458.372 26.085C459.137 26.715 460.262 27.21 461.417 27.21Z" fill="white"/>
<path d="M491.707 273.707C492.098 273.317 492.098 272.683 491.707 272.293L485.343 265.929C484.953 265.538 484.319 265.538 483.929 265.929C483.538 266.319 483.538 266.953 483.929 267.343L489.586 273L483.929 278.657C483.538 279.047 483.538 279.681 483.929 280.071C484.319 280.462 484.953 280.462 485.343 280.071L491.707 273.707ZM391 274H491V272H391V274Z" fill="white"/>
<path d="M514.04 279H515.92V265.9H520.34V264.34H509.62V265.9H514.04V279ZM525.49 279.28C528.15 279.28 530.51 277.18 530.51 273.6C530.51 269.96 528.15 267.88 525.49 267.88C522.81 267.88 520.45 269.96 520.45 273.6C520.45 277.18 522.81 279.28 525.49 279.28ZM525.49 277.76C523.59 277.76 522.33 276.08 522.33 273.6C522.33 271.08 523.59 269.4 525.49 269.4C527.37 269.4 528.63 271.08 528.63 273.6C528.63 276.08 527.37 277.76 525.49 277.76ZM537.079 279.28C538.399 279.28 539.539 278.58 540.399 277.72H540.439L540.599 279H542.099V263.1H540.279V267.26L540.359 269.14C539.419 268.34 538.579 267.88 537.319 267.88C534.839 267.88 532.599 270.06 532.599 273.6C532.599 277.22 534.359 279.28 537.079 279.28ZM537.479 277.74C535.579 277.74 534.499 276.18 534.499 273.58C534.499 271.1 535.879 269.4 537.619 269.4C538.519 269.4 539.359 269.72 540.279 270.56V276.26C539.379 277.24 538.499 277.74 537.479 277.74ZM548.301 279.28C549.641 279.28 550.861 278.58 551.881 277.72H551.961L552.121 279H553.621V272.34C553.621 269.64 552.501 267.88 549.841 267.88C548.101 267.88 546.581 268.64 545.581 269.28L546.301 270.56C547.141 269.98 548.281 269.38 549.561 269.38C551.341 269.38 551.781 270.72 551.781 272.12C547.161 272.64 545.121 273.82 545.121 276.18C545.121 278.14 546.481 279.28 548.301 279.28ZM548.801 277.8C547.741 277.8 546.901 277.3 546.901 276.06C546.901 274.66 548.121 273.76 551.781 273.34V276.36C550.741 277.3 549.861 277.8 548.801 277.8ZM557.23 283.7C559.41 283.7 560.53 282.06 561.29 279.92L565.39 268.14H563.61L561.65 274.18C561.37 275.16 561.05 276.24 560.75 277.24H560.65C560.29 276.24 559.93 275.14 559.59 274.18L557.37 268.14H555.49L559.85 279.02L559.61 279.84C559.15 281.18 558.37 282.18 557.15 282.18C556.85 282.18 556.53 282.1 556.33 282.02L555.97 283.48C556.31 283.62 556.73 283.7 557.23 283.7Z" fill="white"/>
<path d="M328.88 279H338.08V277.44H334.02C333.28 277.44 332.4 277.5 331.62 277.58C335.08 274.32 337.38 271.34 337.38 268.4C337.38 265.78 335.74 264.08 333.12 264.08C331.26 264.08 329.98 264.94 328.78 266.24L329.84 267.26C330.66 266.3 331.7 265.56 332.9 265.56C334.72 265.56 335.58 266.8 335.58 268.48C335.58 270.98 333.48 273.92 328.88 277.94V279ZM344.654 279.28C347.414 279.28 349.194 276.74 349.194 271.62C349.194 266.54 347.414 264.08 344.654 264.08C341.854 264.08 340.074 266.54 340.074 271.62C340.074 276.74 341.854 279.28 344.654 279.28ZM344.654 277.8C342.974 277.8 341.834 275.94 341.834 271.62C341.834 267.36 342.974 265.54 344.654 265.54C346.314 265.54 347.434 267.36 347.434 271.62C347.434 275.94 346.314 277.8 344.654 277.8ZM351.068 279H360.268V277.44H356.208C355.467 277.44 354.588 277.5 353.808 277.58C357.268 274.32 359.568 271.34 359.568 268.4C359.568 265.78 357.928 264.08 355.308 264.08C353.448 264.08 352.168 264.94 350.968 266.24L352.028 267.26C352.848 266.3 353.888 265.56 355.088 265.56C356.908 265.56 357.768 266.8 357.768 268.48C357.768 270.98 355.668 273.92 351.068 277.94V279ZM362.161 279H371.361V277.44H367.301C366.561 277.44 365.681 277.5 364.901 277.58C368.361 274.32 370.661 271.34 370.661 268.4C370.661 265.78 369.021 264.08 366.401 264.08C364.541 264.08 363.261 264.94 362.061 266.24L363.121 267.26C363.941 266.3 364.981 265.56 366.181 265.56C368.001 265.56 368.861 266.8 368.861 268.48C368.861 270.98 366.761 273.92 362.161 277.94V279Z" fill="white"/>
</svg>
