<svg width="731" height="796" viewBox="0 0 731 796" fill="none" xmlns="http://www.w3.org/2000/svg">
<path d="M658.465 273.864H667.665V272.304H663.605C662.865 272.304 661.985 272.364 661.205 272.444C664.665 269.184 666.965 266.204 666.965 263.264C666.965 260.644 665.325 258.944 662.705 258.944C660.845 258.944 659.565 259.804 658.365 261.104L659.425 262.124C660.245 261.164 661.285 260.424 662.485 260.424C664.305 260.424 665.165 261.664 665.165 263.344C665.165 265.844 663.065 268.784 658.465 272.804V273.864ZM674.238 274.144C676.998 274.144 678.778 271.604 678.778 266.484C678.778 261.404 676.998 258.944 674.238 258.944C671.438 258.944 669.658 261.404 669.658 266.484C669.658 271.604 671.438 274.144 674.238 274.144ZM674.238 272.664C672.558 272.664 671.418 270.804 671.418 266.484C671.418 262.224 672.558 260.404 674.238 260.404C675.898 260.404 677.018 262.224 677.018 266.484C677.018 270.804 675.898 272.664 674.238 272.664ZM680.652 273.864H689.852V272.304H685.792C685.052 272.304 684.172 272.364 683.392 272.444C686.852 269.184 689.152 266.204 689.152 263.264C689.152 260.644 687.512 258.944 684.892 258.944C683.032 258.944 681.752 259.804 680.552 261.104L681.612 262.124C682.432 261.164 683.472 260.424 684.672 260.424C686.492 260.424 687.352 261.664 687.352 263.344C687.352 265.844 685.252 268.784 680.652 272.804V273.864ZM692.626 273.864H700.666V272.344H697.706V259.204H696.306C695.526 259.684 694.586 260.024 693.266 260.244V261.424H695.886V272.344H692.626V273.864Z" fill="black"/>
<path d="M635.108 283.177C635.499 282.786 635.499 282.153 635.108 281.762L628.744 275.398C628.354 275.008 627.72 275.008 627.33 275.398C626.939 275.789 626.939 276.422 627.33 276.813L632.987 282.469L627.33 288.126C626.939 288.517 626.939 289.15 627.33 289.541C627.72 289.931 628.354 289.931 628.744 289.541L635.108 283.177ZM505.602 283.469H634.401V281.469H505.602V283.469Z" fill="#C4C4C4"/>
<path d="M425.339 271.889H434.539V270.329H430.479C429.739 270.329 428.859 270.389 428.079 270.469C431.539 267.209 433.839 264.229 433.839 261.289C433.839 258.669 432.199 256.969 429.579 256.969C427.719 256.969 426.439 257.829 425.239 259.129L426.299 260.149C427.119 259.189 428.159 258.449 429.359 258.449C431.179 258.449 432.039 259.689 432.039 261.369C432.039 263.869 429.939 266.809 425.339 270.829V271.889ZM441.113 272.169C443.873 272.169 445.653 269.629 445.653 264.509C445.653 259.429 443.873 256.969 441.113 256.969C438.313 256.969 436.533 259.429 436.533 264.509C436.533 269.629 438.313 272.169 441.113 272.169ZM441.113 270.689C439.433 270.689 438.293 268.829 438.293 264.509C438.293 260.249 439.433 258.429 441.113 258.429C442.773 258.429 443.893 260.249 443.893 264.509C443.893 268.829 442.773 270.689 441.113 270.689ZM447.527 271.889H456.727V270.329H452.667C451.927 270.329 451.047 270.389 450.267 270.469C453.727 267.209 456.027 264.229 456.027 261.289C456.027 258.669 454.387 256.969 451.767 256.969C449.907 256.969 448.627 257.829 447.427 259.129L448.487 260.149C449.307 259.189 450.347 258.449 451.547 258.449C453.367 258.449 454.227 259.689 454.227 261.369C454.227 263.869 452.127 266.809 447.527 270.829V271.889ZM459.5 271.889H467.54V270.369H464.58V257.229H463.18C462.4 257.709 461.46 258.049 460.14 258.269V259.449H462.76V270.369H459.5V271.889Z" fill="black"/>
<path d="M70.3994 46H74.1194V32.84H85.2794V29.76H74.1194V19.8H87.2794V16.68H70.3994V46ZM99.8866 46.56C105.207 46.56 109.927 42.36 109.927 35.2C109.927 27.92 105.207 23.76 99.8866 23.76C94.5266 23.76 89.8066 27.92 89.8066 35.2C89.8066 42.36 94.5266 46.56 99.8866 46.56ZM99.8866 43.52C96.0866 43.52 93.5666 40.16 93.5666 35.2C93.5666 30.16 96.0866 26.8 99.8866 26.8C103.647 26.8 106.167 30.16 106.167 35.2C106.167 40.16 103.647 43.52 99.8866 43.52ZM124.144 46.56C129.464 46.56 134.184 42.36 134.184 35.2C134.184 27.92 129.464 23.76 124.144 23.76C118.784 23.76 114.064 27.92 114.064 35.2C114.064 42.36 118.784 46.56 124.144 46.56ZM124.144 43.52C120.344 43.52 117.824 40.16 117.824 35.2C117.824 30.16 120.344 26.8 124.144 26.8C127.904 26.8 130.424 30.16 130.424 35.2C130.424 40.16 127.904 43.52 124.144 43.52ZM145.903 46.56C147.263 46.56 148.703 46.16 149.903 45.72L149.183 43C148.503 43.28 147.503 43.6 146.743 43.6C144.223 43.6 143.383 42.04 143.383 39.4V27.24H149.263V24.28H143.383V18.16H140.303L139.903 24.28L136.503 24.52V27.24H139.743V39.32C139.743 43.64 141.263 46.56 145.903 46.56ZM163.701 46.56C168.701 46.56 173.141 42.24 173.141 34.8C173.141 28.12 170.101 23.76 164.501 23.76C162.061 23.76 159.661 25.08 157.661 26.8L157.821 22.88V14.2H154.181V46H157.061L157.421 43.76H157.541C159.421 45.52 161.701 46.56 163.701 46.56ZM163.141 43.48C161.701 43.48 159.701 42.88 157.821 41.24V29.8C159.861 27.84 161.781 26.8 163.621 26.8C167.741 26.8 169.381 30.04 169.381 34.88C169.381 40.24 166.701 43.48 163.141 43.48ZM183.165 46.56C185.845 46.56 188.285 45.16 190.325 43.44H190.485L190.805 46H193.805V32.68C193.805 27.28 191.565 23.76 186.245 23.76C182.765 23.76 179.725 25.28 177.725 26.56L179.165 29.12C180.845 27.96 183.125 26.76 185.685 26.76C189.245 26.76 190.125 29.44 190.125 32.24C180.885 33.28 176.805 35.64 176.805 40.36C176.805 44.28 179.525 46.56 183.165 46.56ZM184.165 43.6C182.045 43.6 180.365 42.6 180.365 40.12C180.365 37.32 182.805 35.52 190.125 34.68V40.72C188.045 42.6 186.285 43.6 184.165 43.6ZM204.544 46.56C205.544 46.56 206.104 46.4 206.624 46.24L206.144 43.44C205.704 43.52 205.544 43.52 205.384 43.52C204.824 43.52 204.344 43.08 204.344 41.92V14.2H200.704V41.68C200.704 44.8 201.784 46.56 204.544 46.56ZM215.912 46.56C216.912 46.56 217.472 46.4 217.992 46.24L217.512 43.44C217.072 43.52 216.912 43.52 216.752 43.52C216.192 43.52 215.712 43.08 215.712 41.92V14.2H212.072V41.68C212.072 44.8 213.152 46.56 215.912 46.56ZM232.704 46H242.064C248.584 46 253.144 43.16 253.144 37.44C253.144 33.44 250.704 31.08 247.184 30.4V30.24C249.944 29.32 251.464 26.76 251.464 23.88C251.464 18.72 247.344 16.68 241.384 16.68H232.704V46ZM236.424 29.16V19.6H240.944C245.504 19.6 247.824 20.88 247.824 24.32C247.824 27.32 245.784 29.16 240.744 29.16H236.424ZM236.424 43.08V32H241.544C246.664 32 249.544 33.68 249.544 37.32C249.544 41.28 246.544 43.08 241.544 43.08H236.424ZM263.673 46.56C266.353 46.56 268.793 45.16 270.833 43.44H270.993L271.313 46H274.313V32.68C274.313 27.28 272.073 23.76 266.753 23.76C263.273 23.76 260.233 25.28 258.233 26.56L259.673 29.12C261.353 27.96 263.633 26.76 266.193 26.76C269.753 26.76 270.633 29.44 270.633 32.24C261.393 33.28 257.313 35.64 257.313 40.36C257.313 44.28 260.033 46.56 263.673 46.56ZM264.673 43.6C262.553 43.6 260.873 42.6 260.873 40.12C260.873 37.32 263.313 35.52 270.633 34.68V40.72C268.553 42.6 266.793 43.6 264.673 43.6ZM281.212 46H284.852V32.08C286.292 28.36 288.532 27.04 290.332 27.04C291.212 27.04 291.692 27.16 292.452 27.4L293.132 24.2C292.412 23.88 291.772 23.76 290.812 23.76C288.372 23.76 286.132 25.48 284.652 28.24H284.532L284.172 24.28H281.212V46Z" fill="#2A3754"/>
<path d="M81.401 71.82C82.701 71.82 83.881 70.72 83.881 69.14C83.881 67.52 82.701 66.42 81.401 66.42C80.061 66.42 78.881 67.52 78.881 69.14C78.881 70.72 80.061 71.82 81.401 71.82ZM102.459 75.28C105.539 75.28 107.439 73.44 107.439 71.12C107.439 68.94 106.139 67.92 104.419 67.18L102.339 66.28C101.199 65.8 99.9194 65.28 99.9194 63.84C99.9194 62.54 100.999 61.7 102.659 61.7C103.999 61.7 105.079 62.24 105.979 63.08L106.959 61.9C105.939 60.82 104.399 60.08 102.659 60.08C99.9794 60.08 98.0394 61.72 98.0394 63.98C98.0394 66.12 99.6394 67.16 101.019 67.74L103.119 68.66C104.499 69.26 105.559 69.74 105.559 71.26C105.559 72.68 104.419 73.64 102.499 73.64C100.979 73.64 99.4994 72.94 98.4394 71.82L97.3394 73.1C98.6194 74.44 100.399 75.28 102.459 75.28ZM112.968 75.28C113.648 75.28 114.368 75.08 114.968 74.86L114.608 73.5C114.268 73.64 113.768 73.8 113.388 73.8C112.128 73.8 111.708 73.02 111.708 71.7V65.62H114.648V64.14H111.708V61.08H110.168L109.968 64.14L108.268 64.26V65.62H109.888V71.66C109.888 73.82 110.648 75.28 112.968 75.28ZM119.06 75.28C120.4 75.28 121.62 74.58 122.64 73.72H122.72L122.88 75H124.38V68.34C124.38 65.64 123.26 63.88 120.6 63.88C118.86 63.88 117.34 64.64 116.34 65.28L117.06 66.56C117.9 65.98 119.04 65.38 120.32 65.38C122.1 65.38 122.54 66.72 122.54 68.12C117.92 68.64 115.88 69.82 115.88 72.18C115.88 74.14 117.24 75.28 119.06 75.28ZM119.56 73.8C118.5 73.8 117.66 73.3 117.66 72.06C117.66 70.66 118.88 69.76 122.54 69.34V72.36C121.5 73.3 120.62 73.8 119.56 73.8ZM128.109 75H129.929V62.76C129.929 61.3 130.569 60.52 131.649 60.52C132.189 60.52 132.629 60.62 133.109 60.84L133.489 59.44C132.929 59.2 132.209 59.04 131.489 59.04C129.249 59.04 128.109 60.46 128.109 62.7V75ZM134.469 75H136.309V62.44C136.309 61.02 136.809 60.3 137.829 60.3C138.229 60.3 138.649 60.4 139.069 60.58L139.449 59.18C138.949 58.98 138.309 58.82 137.649 58.82C135.469 58.82 134.469 60.22 134.469 62.4V75ZM126.629 65.62H138.609V64.14H128.209L126.629 64.26V65.62Z" fill="black"/>
<path d="M70.3994 283.037H73.9194V267.677C73.9194 264.557 73.6394 261.477 73.4394 258.517H73.6394L76.7994 264.557L87.4394 283.037H91.2794V253.717H87.7194V268.957C87.7194 271.997 87.9994 275.317 88.2394 278.277H88.0394L84.8794 272.197L74.1994 253.717H70.3994V283.037ZM107.426 283.597C112.746 283.597 117.466 279.397 117.466 272.237C117.466 264.957 112.746 260.797 107.426 260.797C102.066 260.797 97.3457 264.957 97.3457 272.237C97.3457 279.397 102.066 283.597 107.426 283.597ZM107.426 280.557C103.626 280.557 101.106 277.197 101.106 272.237C101.106 267.197 103.626 263.837 107.426 263.837C111.186 263.837 113.706 267.197 113.706 272.237C113.706 277.197 111.186 280.557 107.426 280.557ZM127.65 283.037H131.89L139.57 261.317H136.01L131.85 273.717C131.21 275.837 130.53 278.037 129.85 280.077H129.69C129.01 278.037 128.33 275.837 127.69 273.717L123.57 261.317H119.81L127.65 283.037ZM147.814 283.597C150.494 283.597 152.934 282.197 154.974 280.477H155.134L155.454 283.037H158.454V269.717C158.454 264.317 156.214 260.797 150.894 260.797C147.414 260.797 144.374 262.317 142.374 263.597L143.814 266.157C145.494 264.997 147.774 263.797 150.334 263.797C153.894 263.797 154.774 266.477 154.774 269.277C145.534 270.317 141.454 272.677 141.454 277.397C141.454 281.317 144.174 283.597 147.814 283.597ZM148.814 280.637C146.694 280.637 145.014 279.637 145.014 277.157C145.014 274.357 147.454 272.557 154.774 271.717V277.757C152.694 279.637 150.934 280.637 148.814 280.637ZM174.618 283.037H183.978C190.498 283.037 195.058 280.197 195.058 274.477C195.058 270.477 192.618 268.117 189.098 267.437V267.277C191.858 266.357 193.378 263.797 193.378 260.917C193.378 255.757 189.258 253.717 183.298 253.717H174.618V283.037ZM178.338 266.197V256.637H182.858C187.418 256.637 189.738 257.917 189.738 261.357C189.738 264.357 187.698 266.197 182.658 266.197H178.338ZM178.338 280.117V269.037H183.458C188.578 269.037 191.458 270.717 191.458 274.357C191.458 278.317 188.458 280.117 183.458 280.117H178.338ZM205.587 283.597C208.267 283.597 210.707 282.197 212.747 280.477H212.907L213.227 283.037H216.227V269.717C216.227 264.317 213.987 260.797 208.667 260.797C205.187 260.797 202.147 262.317 200.147 263.597L201.587 266.157C203.267 264.997 205.547 263.797 208.107 263.797C211.667 263.797 212.547 266.477 212.547 269.277C203.307 270.317 199.227 272.677 199.227 277.397C199.227 281.317 201.947 283.597 205.587 283.597ZM206.587 280.637C204.467 280.637 202.787 279.637 202.787 277.157C202.787 274.357 205.227 272.557 212.547 271.717V277.757C210.467 279.637 208.707 280.637 206.587 280.637ZM228.806 283.597C233.926 283.597 236.686 280.677 236.686 277.117C236.686 272.997 233.246 271.717 230.086 270.517C227.606 269.637 225.406 268.837 225.406 266.757C225.406 265.077 226.646 263.637 229.406 263.637C231.326 263.637 232.886 264.477 234.366 265.557L236.126 263.237C234.446 261.877 232.046 260.797 229.366 260.797C224.646 260.797 221.886 263.477 221.886 266.917C221.886 270.637 225.206 272.077 228.206 273.237C230.606 274.117 233.206 275.117 233.206 277.317C233.206 279.237 231.766 280.757 228.886 280.757C226.286 280.757 224.366 279.677 222.486 278.157L220.686 280.597C222.726 282.277 225.726 283.597 228.806 283.597ZM250.597 283.597C253.557 283.597 255.837 282.597 257.757 281.357L256.437 278.917C254.837 279.997 253.117 280.677 251.037 280.677C246.877 280.677 244.077 277.677 243.797 273.077H258.437C258.557 272.517 258.597 271.757 258.597 270.997C258.597 264.757 255.477 260.797 249.957 260.797C244.957 260.797 240.197 265.157 240.197 272.237C240.197 279.357 244.797 283.597 250.597 283.597ZM243.757 270.437C244.237 266.157 246.957 263.717 249.997 263.717C253.437 263.717 255.397 266.077 255.397 270.437H243.757Z" fill="#2A3754"/>
<path d="M81.401 308.857C82.701 308.857 83.881 307.757 83.881 306.177C83.881 304.557 82.701 303.457 81.401 303.457C80.061 303.457 78.881 304.557 78.881 306.177C78.881 307.757 80.061 308.857 81.401 308.857ZM98.3994 312.037H100.259V305.457H105.839V303.917H100.259V298.937H106.839V297.377H98.3994V312.037ZM112.024 312.317C113.524 312.317 114.604 311.517 115.624 310.337H115.664L115.824 312.037H117.324V301.177H115.504V308.897C114.484 310.177 113.684 310.717 112.584 310.717C111.144 310.717 110.524 309.857 110.524 307.837V301.177H108.704V308.057C108.704 310.837 109.744 312.317 112.024 312.317ZM122.933 312.317C123.433 312.317 123.713 312.237 123.973 312.157L123.733 310.757C123.513 310.797 123.433 310.797 123.353 310.797C123.073 310.797 122.833 310.577 122.833 309.997V296.137H121.013V309.877C121.013 311.437 121.553 312.317 122.933 312.317ZM128.616 312.317C129.116 312.317 129.396 312.237 129.656 312.157L129.416 310.757C129.196 310.797 129.116 310.797 129.036 310.797C128.756 310.797 128.516 310.577 128.516 309.997V296.137H126.696V309.877C126.696 311.437 127.236 312.317 128.616 312.317ZM141.073 312.317C144.153 312.317 146.053 310.477 146.053 308.157C146.053 305.977 144.753 304.957 143.033 304.217L140.953 303.317C139.813 302.837 138.533 302.317 138.533 300.877C138.533 299.577 139.613 298.737 141.273 298.737C142.613 298.737 143.693 299.277 144.593 300.117L145.573 298.937C144.553 297.857 143.013 297.117 141.273 297.117C138.593 297.117 136.653 298.757 136.653 301.017C136.653 303.157 138.253 304.197 139.633 304.777L141.733 305.697C143.113 306.297 144.173 306.777 144.173 308.297C144.173 309.717 143.033 310.677 141.113 310.677C139.593 310.677 138.113 309.977 137.053 308.857L135.953 310.137C137.233 311.477 139.013 312.317 141.073 312.317ZM151.581 312.317C152.261 312.317 152.981 312.117 153.581 311.897L153.221 310.537C152.881 310.677 152.381 310.837 152.001 310.837C150.741 310.837 150.321 310.057 150.321 308.737V302.657H153.261V301.177H150.321V298.117H148.781L148.581 301.177L146.881 301.297V302.657H148.501V308.697C148.501 310.857 149.261 312.317 151.581 312.317ZM157.673 312.317C159.013 312.317 160.233 311.617 161.253 310.757H161.333L161.493 312.037H162.993V305.377C162.993 302.677 161.873 300.917 159.213 300.917C157.473 300.917 155.953 301.677 154.953 302.317L155.673 303.597C156.513 303.017 157.653 302.417 158.933 302.417C160.713 302.417 161.153 303.757 161.153 305.157C156.533 305.677 154.493 306.857 154.493 309.217C154.493 311.177 155.853 312.317 157.673 312.317ZM158.173 310.837C157.113 310.837 156.273 310.337 156.273 309.097C156.273 307.697 157.493 306.797 161.153 306.377V309.397C160.113 310.337 159.233 310.837 158.173 310.837ZM170.703 312.317C172.003 312.317 173.263 311.797 174.223 310.937L173.443 309.717C172.763 310.317 171.863 310.797 170.883 310.797C168.883 310.797 167.503 309.117 167.503 306.637C167.503 304.117 168.943 302.437 170.943 302.437C171.783 302.437 172.463 302.817 173.103 303.397L174.023 302.197C173.263 301.497 172.263 300.917 170.843 300.917C168.063 300.917 165.623 302.997 165.623 306.637C165.623 310.217 167.823 312.317 170.703 312.317ZM176.638 312.037H178.438V309.177L180.458 306.797L183.638 312.037H185.618L181.538 305.557L185.158 301.177H183.118L178.498 306.917H178.438V296.137H176.638V312.037ZM192.306 312.037H200.966V310.477H194.166V305.117H199.706V303.537H194.166V298.937H200.746V297.377H192.306V312.037ZM203.923 312.037H205.743V304.157C206.823 303.077 207.603 302.497 208.703 302.497C210.143 302.497 210.763 303.357 210.763 305.397V312.037H212.603V305.157C212.603 302.397 211.563 300.917 209.283 300.917C207.783 300.917 206.663 301.737 205.643 302.757H205.583L205.403 301.177H203.923V312.037ZM219.79 317.037C223.13 317.037 225.27 315.317 225.27 313.297C225.27 311.497 224.01 310.717 221.49 310.717H219.37C217.91 310.717 217.45 310.217 217.45 309.517C217.45 308.937 217.77 308.557 218.15 308.237C218.65 308.477 219.25 308.597 219.77 308.597C221.99 308.597 223.75 307.157 223.75 304.837C223.75 303.897 223.39 303.097 222.87 302.597H225.09V301.177H221.31C220.93 301.037 220.39 300.917 219.77 300.917C217.57 300.917 215.69 302.397 215.69 304.797C215.69 306.097 216.41 307.137 217.13 307.717V307.797C216.55 308.197 215.91 308.897 215.91 309.797C215.91 310.657 216.33 311.237 216.89 311.597V311.677C215.89 312.317 215.29 313.217 215.29 314.137C215.29 315.997 217.13 317.037 219.79 317.037ZM219.77 307.377C218.51 307.377 217.45 306.357 217.45 304.797C217.45 303.177 218.49 302.237 219.77 302.237C221.05 302.237 222.09 303.197 222.09 304.797C222.09 306.357 221.03 307.377 219.77 307.377ZM220.03 315.797C218.07 315.797 216.89 315.057 216.89 313.877C216.89 313.257 217.21 312.597 217.99 312.037C218.49 312.177 218.99 312.217 219.41 312.217H221.29C222.71 312.217 223.49 312.557 223.49 313.577C223.49 314.697 222.13 315.797 220.03 315.797ZM227.419 312.037H229.239V301.177H227.419V312.037ZM228.339 298.937C229.039 298.937 229.559 298.477 229.559 297.717C229.559 297.017 229.039 296.557 228.339 296.557C227.619 296.557 227.119 297.017 227.119 297.717C227.119 298.477 227.619 298.937 228.339 298.937ZM232.927 312.037H234.747V304.157C235.827 303.077 236.607 302.497 237.707 302.497C239.147 302.497 239.767 303.357 239.767 305.397V312.037H241.607V305.157C241.607 302.397 240.567 300.917 238.287 300.917C236.787 300.917 235.667 301.737 234.647 302.757H234.587L234.407 301.177H232.927V312.037ZM249.514 312.317C250.994 312.317 252.134 311.817 253.094 311.197L252.434 309.977C251.634 310.517 250.774 310.857 249.734 310.857C247.654 310.857 246.254 309.357 246.114 307.057H253.434C253.494 306.777 253.514 306.397 253.514 306.017C253.514 302.897 251.954 300.917 249.194 300.917C246.694 300.917 244.314 303.097 244.314 306.637C244.314 310.197 246.614 312.317 249.514 312.317ZM246.094 305.737C246.334 303.597 247.694 302.377 249.214 302.377C250.934 302.377 251.914 303.557 251.914 305.737H246.094ZM260.588 312.317C262.068 312.317 263.208 311.817 264.168 311.197L263.508 309.977C262.708 310.517 261.848 310.857 260.808 310.857C258.728 310.857 257.328 309.357 257.188 307.057H264.508C264.568 306.777 264.588 306.397 264.588 306.017C264.588 302.897 263.028 300.917 260.268 300.917C257.768 300.917 255.388 303.097 255.388 306.637C255.388 310.197 257.688 312.317 260.588 312.317ZM257.168 305.737C257.408 303.597 258.768 302.377 260.288 302.377C262.008 302.377 262.988 303.557 262.988 305.737H257.168ZM267.282 312.037H269.102V305.077C269.822 303.217 270.942 302.557 271.842 302.557C272.282 302.557 272.522 302.617 272.902 302.737L273.242 301.137C272.882 300.977 272.562 300.917 272.082 300.917C270.862 300.917 269.742 301.777 269.002 303.157H268.942L268.762 301.177H267.282V312.037Z" fill="black"/>
<path d="M78.5194 518.659C84.6794 518.659 88.4794 514.979 88.4794 510.339C88.4794 505.979 85.8794 503.939 82.4394 502.459L78.2794 500.659C75.9994 499.699 73.4394 498.659 73.4394 495.779C73.4394 493.179 75.5994 491.499 78.9194 491.499C81.5994 491.499 83.7594 492.579 85.5594 494.259L87.5194 491.899C85.4794 489.739 82.3994 488.259 78.9194 488.259C73.5594 488.259 69.6794 491.539 69.6794 496.059C69.6794 500.339 72.8794 502.419 75.6394 503.579L79.8394 505.419C82.5994 506.619 84.7194 507.579 84.7194 510.619C84.7194 513.459 82.4394 515.379 78.5994 515.379C75.5594 515.379 72.5994 513.979 70.4794 511.739L68.2794 514.299C70.8394 516.979 74.3994 518.659 78.5194 518.659ZM93.9075 518.099H97.5475V496.379H93.9075V518.099ZM95.7475 491.899C97.1475 491.899 98.1875 490.979 98.1875 489.459C98.1875 488.059 97.1475 487.139 95.7475 487.139C94.3075 487.139 93.3075 488.059 93.3075 489.459C93.3075 490.979 94.3075 491.899 95.7475 491.899ZM101.843 518.099H105.683L108.603 513.019C109.323 511.699 110.043 510.379 110.803 509.139H111.003C111.803 510.379 112.603 511.739 113.363 513.019L116.563 518.099H120.523L113.403 507.139L119.963 496.379H116.163L113.523 501.139C112.843 502.379 112.203 503.579 111.563 504.819H111.403C110.643 503.579 109.923 502.379 109.243 501.139L106.323 496.379H102.403L108.963 506.779L101.843 518.099ZM122.302 508.339H132.542V505.539H122.302V508.339ZM138.329 518.099H142.049V504.939H153.209V501.859H142.049V491.899H155.209V488.779H138.329V518.099ZM163.478 518.659C166.158 518.659 168.598 517.259 170.638 515.539H170.798L171.118 518.099H174.118V504.779C174.118 499.379 171.878 495.859 166.558 495.859C163.078 495.859 160.038 497.379 158.038 498.659L159.478 501.219C161.158 500.059 163.438 498.859 165.998 498.859C169.558 498.859 170.438 501.539 170.438 504.339C161.198 505.379 157.118 507.739 157.118 512.459C157.118 516.379 159.838 518.659 163.478 518.659ZM164.478 515.699C162.358 515.699 160.678 514.699 160.678 512.219C160.678 509.419 163.118 507.619 170.438 506.779V512.819C168.358 514.699 166.598 515.699 164.478 515.699ZM189.537 518.659C192.137 518.659 194.657 517.619 196.577 515.899L195.017 513.459C193.657 514.659 191.857 515.619 189.897 515.619C185.897 515.619 183.137 512.259 183.137 507.299C183.137 502.259 186.017 498.899 190.017 498.899C191.697 498.899 193.057 499.659 194.337 500.819L196.177 498.419C194.657 497.019 192.657 495.859 189.817 495.859C184.257 495.859 179.377 500.019 179.377 507.299C179.377 514.459 183.777 518.659 189.537 518.659ZM207.661 518.659C209.021 518.659 210.461 518.259 211.661 517.819L210.941 515.099C210.261 515.379 209.261 515.699 208.501 515.699C205.981 515.699 205.141 514.139 205.141 511.499V499.339H211.021V496.379H205.141V490.259H202.061L201.661 496.379L198.261 496.619V499.339H201.501V511.419C201.501 515.739 203.021 518.659 207.661 518.659ZM223.676 518.659C228.996 518.659 233.716 514.459 233.716 507.299C233.716 500.019 228.996 495.859 223.676 495.859C218.316 495.859 213.596 500.019 213.596 507.299C213.596 514.459 218.316 518.659 223.676 518.659ZM223.676 515.619C219.876 515.619 217.356 512.259 217.356 507.299C217.356 502.259 219.876 498.899 223.676 498.899C227.436 498.899 229.956 502.259 229.956 507.299C229.956 512.259 227.436 515.619 223.676 515.619ZM239.493 518.099H243.133V504.179C244.573 500.459 246.813 499.139 248.613 499.139C249.493 499.139 249.973 499.259 250.733 499.499L251.413 496.299C250.693 495.979 250.053 495.859 249.093 495.859C246.653 495.859 244.413 497.579 242.933 500.339H242.813L242.453 496.379H239.493V518.099ZM81.401 543.919C82.701 543.919 83.881 542.819 83.881 541.239C83.881 539.619 82.701 538.519 81.401 538.519C80.061 538.519 78.881 539.619 78.881 541.239C78.881 542.819 80.061 543.919 81.401 543.919ZM98.3994 547.099H100.259V540.519H105.839V538.979H100.259V533.999H106.839V532.439H98.3994V547.099ZM112.024 547.379C113.524 547.379 114.604 546.579 115.624 545.399H115.664L115.824 547.099H117.324V536.239H115.504V543.959C114.484 545.239 113.684 545.779 112.584 545.779C111.144 545.779 110.524 544.919 110.524 542.899V536.239H108.704V543.119C108.704 545.899 109.744 547.379 112.024 547.379ZM122.933 547.379C123.433 547.379 123.713 547.299 123.973 547.219L123.733 545.819C123.513 545.859 123.433 545.859 123.353 545.859C123.073 545.859 122.833 545.639 122.833 545.059V531.199H121.013V544.939C121.013 546.499 121.553 547.379 122.933 547.379ZM128.616 547.379C129.116 547.379 129.396 547.299 129.656 547.219L129.416 545.819C129.196 545.859 129.116 545.859 129.036 545.859C128.756 545.859 128.516 545.639 128.516 545.059V531.199H126.696V544.939C126.696 546.499 127.236 547.379 128.616 547.379ZM141.073 547.379C144.153 547.379 146.053 545.539 146.053 543.219C146.053 541.039 144.753 540.019 143.033 539.279L140.953 538.379C139.813 537.899 138.533 537.379 138.533 535.939C138.533 534.639 139.613 533.799 141.273 533.799C142.613 533.799 143.693 534.339 144.593 535.179L145.573 533.999C144.553 532.919 143.013 532.179 141.273 532.179C138.593 532.179 136.653 533.819 136.653 536.079C136.653 538.219 138.253 539.259 139.633 539.839L141.733 540.759C143.113 541.359 144.173 541.839 144.173 543.359C144.173 544.779 143.033 545.739 141.113 545.739C139.593 545.739 138.113 545.039 137.053 543.919L135.953 545.199C137.233 546.539 139.013 547.379 141.073 547.379ZM151.581 547.379C152.261 547.379 152.981 547.179 153.581 546.959L153.221 545.599C152.881 545.739 152.381 545.899 152.001 545.899C150.741 545.899 150.321 545.119 150.321 543.799V537.719H153.261V536.239H150.321V533.179H148.781L148.581 536.239L146.881 536.359V537.719H148.501V543.759C148.501 545.919 149.261 547.379 151.581 547.379ZM157.673 547.379C159.013 547.379 160.233 546.679 161.253 545.819H161.333L161.493 547.099H162.993V540.439C162.993 537.739 161.873 535.979 159.213 535.979C157.473 535.979 155.953 536.739 154.953 537.379L155.673 538.659C156.513 538.079 157.653 537.479 158.933 537.479C160.713 537.479 161.153 538.819 161.153 540.219C156.533 540.739 154.493 541.919 154.493 544.279C154.493 546.239 155.853 547.379 157.673 547.379ZM158.173 545.899C157.113 545.899 156.273 545.399 156.273 544.159C156.273 542.759 157.493 541.859 161.153 541.439V544.459C160.113 545.399 159.233 545.899 158.173 545.899ZM170.703 547.379C172.003 547.379 173.263 546.859 174.223 545.999L173.443 544.779C172.763 545.379 171.863 545.859 170.883 545.859C168.883 545.859 167.503 544.179 167.503 541.699C167.503 539.179 168.943 537.499 170.943 537.499C171.783 537.499 172.463 537.879 173.103 538.459L174.023 537.259C173.263 536.559 172.263 535.979 170.843 535.979C168.063 535.979 165.623 538.059 165.623 541.699C165.623 545.279 167.823 547.379 170.703 547.379ZM176.638 547.099H178.438V544.239L180.458 541.859L183.638 547.099H185.618L181.538 540.619L185.158 536.239H183.118L178.498 541.979H178.438V531.199H176.638V547.099ZM192.306 547.099H200.966V545.539H194.166V540.179H199.706V538.599H194.166V533.999H200.746V532.439H192.306V547.099ZM203.923 547.099H205.743V539.219C206.823 538.139 207.603 537.559 208.703 537.559C210.143 537.559 210.763 538.419 210.763 540.459V547.099H212.603V540.219C212.603 537.459 211.563 535.979 209.283 535.979C207.783 535.979 206.663 536.799 205.643 537.819H205.583L205.403 536.239H203.923V547.099ZM219.79 552.099C223.13 552.099 225.27 550.379 225.27 548.359C225.27 546.559 224.01 545.779 221.49 545.779H219.37C217.91 545.779 217.45 545.279 217.45 544.579C217.45 543.999 217.77 543.619 218.15 543.299C218.65 543.539 219.25 543.659 219.77 543.659C221.99 543.659 223.75 542.219 223.75 539.899C223.75 538.959 223.39 538.159 222.87 537.659H225.09V536.239H221.31C220.93 536.099 220.39 535.979 219.77 535.979C217.57 535.979 215.69 537.459 215.69 539.859C215.69 541.159 216.41 542.199 217.13 542.779V542.859C216.55 543.259 215.91 543.959 215.91 544.859C215.91 545.719 216.33 546.299 216.89 546.659V546.739C215.89 547.379 215.29 548.279 215.29 549.199C215.29 551.059 217.13 552.099 219.79 552.099ZM219.77 542.439C218.51 542.439 217.45 541.419 217.45 539.859C217.45 538.239 218.49 537.299 219.77 537.299C221.05 537.299 222.09 538.259 222.09 539.859C222.09 541.419 221.03 542.439 219.77 542.439ZM220.03 550.859C218.07 550.859 216.89 550.119 216.89 548.939C216.89 548.319 217.21 547.659 217.99 547.099C218.49 547.239 218.99 547.279 219.41 547.279H221.29C222.71 547.279 223.49 547.619 223.49 548.639C223.49 549.759 222.13 550.859 220.03 550.859ZM227.419 547.099H229.239V536.239H227.419V547.099ZM228.339 533.999C229.039 533.999 229.559 533.539 229.559 532.779C229.559 532.079 229.039 531.619 228.339 531.619C227.619 531.619 227.119 532.079 227.119 532.779C227.119 533.539 227.619 533.999 228.339 533.999ZM232.927 547.099H234.747V539.219C235.827 538.139 236.607 537.559 237.707 537.559C239.147 537.559 239.767 538.419 239.767 540.459V547.099H241.607V540.219C241.607 537.459 240.567 535.979 238.287 535.979C236.787 535.979 235.667 536.799 234.647 537.819H234.587L234.407 536.239H232.927V547.099ZM249.514 547.379C250.994 547.379 252.134 546.879 253.094 546.259L252.434 545.039C251.634 545.579 250.774 545.919 249.734 545.919C247.654 545.919 246.254 544.419 246.114 542.119H253.434C253.494 541.839 253.514 541.459 253.514 541.079C253.514 537.959 251.954 535.979 249.194 535.979C246.694 535.979 244.314 538.159 244.314 541.699C244.314 545.259 246.614 547.379 249.514 547.379ZM246.094 540.799C246.334 538.659 247.694 537.439 249.214 537.439C250.934 537.439 251.914 538.619 251.914 540.799H246.094ZM260.588 547.379C262.068 547.379 263.208 546.879 264.168 546.259L263.508 545.039C262.708 545.579 261.848 545.919 260.808 545.919C258.728 545.919 257.328 544.419 257.188 542.119H264.508C264.568 541.839 264.588 541.459 264.588 541.079C264.588 537.959 263.028 535.979 260.268 535.979C257.768 535.979 255.388 538.159 255.388 541.699C255.388 545.259 257.688 547.379 260.588 547.379ZM257.168 540.799C257.408 538.659 258.768 537.439 260.288 537.439C262.008 537.439 262.988 538.619 262.988 540.799H257.168ZM267.282 547.099H269.102V540.139C269.822 538.279 270.942 537.619 271.842 537.619C272.282 537.619 272.522 537.679 272.902 537.799L273.242 536.199C272.882 536.039 272.562 535.979 272.082 535.979C270.862 535.979 269.742 536.839 269.002 538.219H268.942L268.762 536.239H267.282V547.099Z" fill="#2A3754"/>
<path d="M71 762H74.72V748.84H85.88V745.76H74.72V735.8H87.88V732.68H71V762ZM96.1488 762.56C98.8288 762.56 101.269 761.16 103.309 759.44H103.469L103.789 762H106.789V748.68C106.789 743.28 104.549 739.76 99.2287 739.76C95.7488 739.76 92.7088 741.28 90.7088 742.56L92.1488 745.12C93.8288 743.96 96.1088 742.76 98.6688 742.76C102.229 742.76 103.109 745.44 103.109 748.24C93.8688 749.28 89.7888 751.64 89.7888 756.36C89.7888 760.28 92.5088 762.56 96.1488 762.56ZM97.1488 759.6C95.0288 759.6 93.3487 758.6 93.3487 756.12C93.3487 753.32 95.7888 751.52 103.109 750.68V756.72C101.029 758.6 99.2688 759.6 97.1488 759.6ZM113.688 762H117.328V748.08C118.768 744.36 121.008 743.04 122.808 743.04C123.688 743.04 124.168 743.16 124.928 743.4L125.608 740.2C124.888 739.88 124.248 739.76 123.288 739.76C120.848 739.76 118.608 741.48 117.128 744.24H117.008L116.648 740.28H113.688V762ZM129.756 762H133.396V736.88C133.396 734.04 134.396 732.6 136.476 732.6C137.276 732.6 138.116 732.8 138.956 733.16L139.716 730.36C138.716 729.96 137.436 729.64 136.116 729.64C131.796 729.64 129.756 732.44 129.756 736.8V762ZM126.796 743.24H138.036V740.28H129.956L126.796 740.52V743.24ZM150.417 762.56C153.377 762.56 155.657 761.56 157.577 760.32L156.257 757.88C154.657 758.96 152.937 759.64 150.857 759.64C146.697 759.64 143.897 756.64 143.617 752.04H158.257C158.377 751.48 158.417 750.72 158.417 749.96C158.417 743.72 155.297 739.76 149.777 739.76C144.777 739.76 140.017 744.12 140.017 751.2C140.017 758.32 144.617 762.56 150.417 762.56ZM143.577 749.4C144.057 745.12 146.777 742.68 149.817 742.68C153.257 742.68 155.217 745.04 155.217 749.4H143.577ZM170.058 762.56C171.418 762.56 172.858 762.16 174.058 761.72L173.338 759C172.658 759.28 171.658 759.6 170.898 759.6C168.378 759.6 167.538 758.04 167.538 755.4V743.24H173.418V740.28H167.538V734.16H164.458L164.058 740.28L160.658 740.52V743.24H163.898V755.32C163.898 759.64 165.418 762.56 170.058 762.56ZM186.153 762.56C188.753 762.56 191.273 761.52 193.193 759.8L191.633 757.36C190.273 758.56 188.473 759.52 186.513 759.52C182.513 759.52 179.753 756.16 179.753 751.2C179.753 746.16 182.633 742.8 186.633 742.8C188.313 742.8 189.673 743.56 190.953 744.72L192.793 742.32C191.273 740.92 189.273 739.76 186.433 739.76C180.873 739.76 175.993 743.92 175.993 751.2C175.993 758.36 180.393 762.56 186.153 762.56ZM198.024 762H201.664V746.24C203.824 744.08 205.384 742.92 207.584 742.92C210.464 742.92 211.704 744.64 211.704 748.72V762H215.384V748.24C215.384 742.72 213.304 739.76 208.744 739.76C205.744 739.76 203.544 741.4 201.544 743.36L201.664 738.88V730.2H198.024V762ZM82.0016 787.82C83.3016 787.82 84.4816 786.72 84.4816 785.14C84.4816 783.52 83.3016 782.42 82.0016 782.42C80.6616 782.42 79.4816 783.52 79.4816 785.14C79.4816 786.72 80.6616 787.82 82.0016 787.82ZM99 791H100.86V784.42H106.44V782.88H100.86V777.9H107.44V776.34H99V791ZM112.625 791.28C114.125 791.28 115.205 790.48 116.225 789.3H116.265L116.425 791H117.925V780.14H116.105V787.86C115.085 789.14 114.285 789.68 113.185 789.68C111.745 789.68 111.125 788.82 111.125 786.8V780.14H109.305V787.02C109.305 789.8 110.345 791.28 112.625 791.28ZM123.533 791.28C124.033 791.28 124.313 791.2 124.573 791.12L124.333 789.72C124.113 789.76 124.033 789.76 123.953 789.76C123.673 789.76 123.433 789.54 123.433 788.96V775.1H121.613V788.84C121.613 790.4 122.153 791.28 123.533 791.28ZM129.217 791.28C129.717 791.28 129.997 791.2 130.257 791.12L130.017 789.72C129.797 789.76 129.717 789.76 129.637 789.76C129.357 789.76 129.117 789.54 129.117 788.96V775.1H127.297V788.84C127.297 790.4 127.837 791.28 129.217 791.28ZM141.673 791.28C144.753 791.28 146.653 789.44 146.653 787.12C146.653 784.94 145.353 783.92 143.633 783.18L141.553 782.28C140.413 781.8 139.133 781.28 139.133 779.84C139.133 778.54 140.213 777.7 141.873 777.7C143.213 777.7 144.293 778.24 145.193 779.08L146.173 777.9C145.153 776.82 143.613 776.08 141.873 776.08C139.193 776.08 137.253 777.72 137.253 779.98C137.253 782.12 138.853 783.16 140.233 783.74L142.333 784.66C143.713 785.26 144.773 785.74 144.773 787.26C144.773 788.68 143.633 789.64 141.713 789.64C140.193 789.64 138.713 788.94 137.653 787.82L136.553 789.1C137.833 790.44 139.613 791.28 141.673 791.28ZM152.181 791.28C152.861 791.28 153.581 791.08 154.181 790.86L153.821 789.5C153.481 789.64 152.981 789.8 152.601 789.8C151.341 789.8 150.921 789.02 150.921 787.7V781.62H153.861V780.14H150.921V777.08H149.381L149.181 780.14L147.481 780.26V781.62H149.101V787.66C149.101 789.82 149.861 791.28 152.181 791.28ZM158.274 791.28C159.614 791.28 160.834 790.58 161.854 789.72H161.934L162.094 791H163.594V784.34C163.594 781.64 162.474 779.88 159.814 779.88C158.074 779.88 156.554 780.64 155.554 781.28L156.274 782.56C157.114 781.98 158.254 781.38 159.534 781.38C161.314 781.38 161.754 782.72 161.754 784.12C157.134 784.64 155.094 785.82 155.094 788.18C155.094 790.14 156.454 791.28 158.274 791.28ZM158.774 789.8C157.714 789.8 156.874 789.3 156.874 788.06C156.874 786.66 158.094 785.76 161.754 785.34V788.36C160.714 789.3 159.834 789.8 158.774 789.8ZM171.303 791.28C172.603 791.28 173.863 790.76 174.823 789.9L174.043 788.68C173.363 789.28 172.463 789.76 171.483 789.76C169.483 789.76 168.103 788.08 168.103 785.6C168.103 783.08 169.543 781.4 171.543 781.4C172.383 781.4 173.063 781.78 173.703 782.36L174.623 781.16C173.863 780.46 172.863 779.88 171.443 779.88C168.663 779.88 166.223 781.96 166.223 785.6C166.223 789.18 168.423 791.28 171.303 791.28ZM177.238 791H179.038V788.14L181.058 785.76L184.238 791H186.218L182.138 784.52L185.758 780.14H183.718L179.098 785.88H179.038V775.1H177.238V791ZM192.906 791H201.566V789.44H194.766V784.08H200.306V782.5H194.766V777.9H201.346V776.34H192.906V791ZM204.524 791H206.344V783.12C207.424 782.04 208.204 781.46 209.304 781.46C210.744 781.46 211.364 782.32 211.364 784.36V791H213.204V784.12C213.204 781.36 212.164 779.88 209.884 779.88C208.384 779.88 207.264 780.7 206.244 781.72H206.184L206.004 780.14H204.524V791ZM220.391 796C223.731 796 225.871 794.28 225.871 792.26C225.871 790.46 224.611 789.68 222.091 789.68H219.971C218.511 789.68 218.051 789.18 218.051 788.48C218.051 787.9 218.371 787.52 218.751 787.2C219.251 787.44 219.851 787.56 220.371 787.56C222.591 787.56 224.351 786.12 224.351 783.8C224.351 782.86 223.991 782.06 223.471 781.56H225.691V780.14H221.911C221.531 780 220.991 779.88 220.371 779.88C218.171 779.88 216.291 781.36 216.291 783.76C216.291 785.06 217.011 786.1 217.731 786.68V786.76C217.151 787.16 216.511 787.86 216.511 788.76C216.511 789.62 216.931 790.2 217.491 790.56V790.64C216.491 791.28 215.891 792.18 215.891 793.1C215.891 794.96 217.731 796 220.391 796ZM220.371 786.34C219.111 786.34 218.051 785.32 218.051 783.76C218.051 782.14 219.091 781.2 220.371 781.2C221.651 781.2 222.691 782.16 222.691 783.76C222.691 785.32 221.631 786.34 220.371 786.34ZM220.631 794.76C218.671 794.76 217.491 794.02 217.491 792.84C217.491 792.22 217.811 791.56 218.591 791C219.091 791.14 219.591 791.18 220.011 791.18H221.891C223.311 791.18 224.091 791.52 224.091 792.54C224.091 793.66 222.731 794.76 220.631 794.76ZM228.02 791H229.84V780.14H228.02V791ZM228.94 777.9C229.64 777.9 230.16 777.44 230.16 776.68C230.16 775.98 229.64 775.52 228.94 775.52C228.22 775.52 227.72 775.98 227.72 776.68C227.72 777.44 228.22 777.9 228.94 777.9ZM233.528 791H235.348V783.12C236.428 782.04 237.208 781.46 238.308 781.46C239.748 781.46 240.368 782.32 240.368 784.36V791H242.208V784.12C242.208 781.36 241.168 779.88 238.888 779.88C237.388 779.88 236.268 780.7 235.248 781.72H235.188L235.008 780.14H233.528V791ZM250.115 791.28C251.595 791.28 252.735 790.78 253.695 790.16L253.035 788.94C252.235 789.48 251.375 789.82 250.335 789.82C248.255 789.82 246.855 788.32 246.715 786.02H254.035C254.095 785.74 254.115 785.36 254.115 784.98C254.115 781.86 252.555 779.88 249.795 779.88C247.295 779.88 244.915 782.06 244.915 785.6C244.915 789.16 247.215 791.28 250.115 791.28ZM246.695 784.7C246.935 782.56 248.295 781.34 249.815 781.34C251.535 781.34 252.515 782.52 252.515 784.7H246.695ZM261.189 791.28C262.669 791.28 263.809 790.78 264.769 790.16L264.109 788.94C263.309 789.48 262.449 789.82 261.409 789.82C259.329 789.82 257.929 788.32 257.789 786.02H265.109C265.169 785.74 265.189 785.36 265.189 784.98C265.189 781.86 263.629 779.88 260.869 779.88C258.369 779.88 255.989 782.06 255.989 785.6C255.989 789.16 258.289 791.28 261.189 791.28ZM257.769 784.7C258.009 782.56 259.369 781.34 260.889 781.34C262.609 781.34 263.589 782.52 263.589 784.7H257.769ZM267.883 791H269.703V784.04C270.423 782.18 271.543 781.52 272.443 781.52C272.883 781.52 273.123 781.58 273.503 781.7L273.843 780.1C273.483 779.94 273.163 779.88 272.683 779.88C271.463 779.88 270.343 780.74 269.603 782.12H269.543L269.363 780.14H267.883V791Z" fill="#2A3754"/>
<path d="M658.465 56.5798H667.665V55.0198H663.605C662.865 55.0198 661.985 55.0798 661.205 55.1598C664.665 51.8998 666.965 48.9198 666.965 45.9798C666.965 43.3598 665.325 41.6598 662.705 41.6598C660.845 41.6598 659.565 42.5198 658.365 43.8198L659.425 44.8398C660.245 43.8798 661.285 43.1398 662.485 43.1398C664.305 43.1398 665.165 44.3798 665.165 46.0598C665.165 48.5598 663.065 51.4998 658.465 55.5198V56.5798ZM674.238 56.8598C676.998 56.8598 678.778 54.3198 678.778 49.1998C678.778 44.1198 676.998 41.6598 674.238 41.6598C671.438 41.6598 669.658 44.1198 669.658 49.1998C669.658 54.3198 671.438 56.8598 674.238 56.8598ZM674.238 55.3798C672.558 55.3798 671.418 53.5198 671.418 49.1998C671.418 44.9398 672.558 43.1198 674.238 43.1198C675.898 43.1198 677.018 44.9398 677.018 49.1998C677.018 53.5198 675.898 55.3798 674.238 55.3798ZM680.652 56.5798H689.852V55.0198H685.792C685.052 55.0198 684.172 55.0798 683.392 55.1598C686.852 51.8998 689.152 48.9198 689.152 45.9798C689.152 43.3598 687.512 41.6598 684.892 41.6598C683.032 41.6598 681.752 42.5198 680.552 43.8198L681.612 44.8398C682.432 43.8798 683.472 43.1398 684.672 43.1398C686.492 43.1398 687.352 44.3798 687.352 46.0598C687.352 48.5598 685.252 51.4998 680.652 55.5198V56.5798ZM691.746 56.5798H700.946V55.0198H696.886C696.146 55.0198 695.266 55.0798 694.486 55.1598C697.946 51.8998 700.246 48.9198 700.246 45.9798C700.246 43.3598 698.606 41.6598 695.986 41.6598C694.126 41.6598 692.846 42.5198 691.646 43.8198L692.706 44.8398C693.526 43.8798 694.566 43.1398 695.766 43.1398C697.586 43.1398 698.446 44.3798 698.446 46.0598C698.446 48.5598 696.346 51.4998 691.746 55.5198V56.5798Z" fill="black"/>
<path d="M635.108 65.892C635.499 65.5015 635.499 64.8683 635.108 64.4778L628.744 58.1138C628.354 57.7233 627.72 57.7233 627.33 58.1138C626.939 58.5044 626.939 59.1375 627.33 59.5281L632.987 65.1849L627.33 70.8418C626.939 71.2323 626.939 71.8654 627.33 72.256C627.72 72.6465 628.354 72.6465 628.744 72.256L635.108 65.892ZM505.602 66.1849H634.401V64.1849H505.602V66.1849Z" fill="#C4C4C4"/>
<path d="M425.339 54.6044H434.539V53.0444H430.479C429.739 53.0444 428.859 53.1044 428.079 53.1844C431.539 49.9244 433.839 46.9444 433.839 44.0044C433.839 41.3844 432.199 39.6844 429.579 39.6844C427.719 39.6844 426.439 40.5444 425.239 41.8444L426.299 42.8644C427.119 41.9044 428.159 41.1644 429.359 41.1644C431.179 41.1644 432.039 42.4044 432.039 44.0844C432.039 46.5844 429.939 49.5244 425.339 53.5444V54.6044ZM441.113 54.8844C443.873 54.8844 445.653 52.3444 445.653 47.2244C445.653 42.1444 443.873 39.6844 441.113 39.6844C438.313 39.6844 436.533 42.1444 436.533 47.2244C436.533 52.3444 438.313 54.8844 441.113 54.8844ZM441.113 53.4044C439.433 53.4044 438.293 51.5444 438.293 47.2244C438.293 42.9644 439.433 41.1444 441.113 41.1444C442.773 41.1444 443.893 42.9644 443.893 47.2244C443.893 51.5444 442.773 53.4044 441.113 53.4044ZM448.407 54.6044H456.447V53.0844H453.487V39.9444H452.087C451.307 40.4244 450.367 40.7644 449.047 40.9844V42.1644H451.667V53.0844H448.407V54.6044ZM463.32 54.8844C466.06 54.8844 467.92 53.2244 467.92 51.0844C467.92 49.0844 466.72 47.9644 465.44 47.2244V47.1244C466.32 46.4444 467.4 45.1444 467.4 43.5844C467.4 41.3444 465.88 39.7444 463.38 39.7444C461.08 39.7444 459.34 41.2244 459.34 43.4444C459.34 44.9844 460.26 46.1044 461.34 46.8444V46.9244C460 47.6444 458.64 49.0044 458.64 50.9844C458.64 53.2444 460.62 54.8844 463.32 54.8844ZM464.32 46.6644C462.6 45.9844 461.02 45.2044 461.02 43.4444C461.02 42.0444 462 41.0844 463.34 41.0844C464.92 41.0844 465.84 42.2444 465.84 43.6844C465.84 44.7844 465.32 45.7844 464.32 46.6644ZM463.36 53.5044C461.6 53.5044 460.28 52.3644 460.28 50.8044C460.28 49.4044 461.1 48.2444 462.3 47.4844C464.36 48.3244 466.16 49.0644 466.16 51.0244C466.16 52.4844 465.04 53.5044 463.36 53.5044Z" fill="black"/>
<path d="M530.933 249.321C533.048 249.321 534.998 247.671 534.998 243.366C534.998 239.931 533.423 238.236 531.308 238.236C529.598 238.236 528.158 239.616 528.158 241.656C528.158 243.846 529.343 244.956 531.203 244.956C532.103 244.956 533.108 244.401 533.798 243.501L533.723 242.406C533.003 243.516 532.133 243.936 531.428 243.936C530.108 243.936 529.448 243.051 529.448 241.656C529.448 240.231 530.258 239.301 531.308 239.301C532.853 239.301 533.708 240.726 533.708 243.366C533.708 246.966 532.418 248.181 530.873 248.181C530.213 248.181 529.553 247.866 529.118 247.326L528.353 248.196C528.938 248.841 529.778 249.321 530.933 249.321ZM540.553 249.111H541.918V243.201C542.653 242.376 543.343 241.956 543.958 241.956C545.008 241.956 545.488 242.601 545.488 244.131V249.111H546.853V243.201C547.618 242.376 548.263 241.956 548.893 241.956C549.943 241.956 550.423 242.601 550.423 244.131V249.111H551.788V243.951C551.788 241.881 550.978 240.771 549.313 240.771C548.323 240.771 547.468 241.416 546.613 242.316C546.298 241.356 545.623 240.771 544.378 240.771C543.403 240.771 542.548 241.386 541.843 242.151H541.798L541.663 240.966H540.553V249.111ZM557.605 249.321C559.6 249.321 561.37 247.746 561.37 245.061C561.37 242.331 559.6 240.771 557.605 240.771C555.595 240.771 553.825 242.331 553.825 245.061C553.825 247.746 555.595 249.321 557.605 249.321ZM557.605 248.181C556.18 248.181 555.235 246.921 555.235 245.061C555.235 243.171 556.18 241.911 557.605 241.911C559.015 241.911 559.96 243.171 559.96 245.061C559.96 246.921 559.015 248.181 557.605 248.181ZM563.536 249.111H564.901V243.201C565.711 242.391 566.296 241.956 567.121 241.956C568.201 241.956 568.666 242.601 568.666 244.131V249.111H570.046V243.951C570.046 241.881 569.266 240.771 567.556 240.771C566.431 240.771 565.591 241.386 564.826 242.151H564.781L564.646 240.966H563.536V249.111ZM575.242 249.321C575.752 249.321 576.292 249.171 576.742 249.006L576.472 247.986C576.217 248.091 575.842 248.211 575.557 248.211C574.612 248.211 574.297 247.626 574.297 246.636V242.076H576.502V240.966H574.297V238.671H573.142L572.992 240.966L571.717 241.056V242.076H572.932V246.606C572.932 248.226 573.502 249.321 575.242 249.321ZM578.346 249.111H579.711V243.201C580.521 242.391 581.106 241.956 581.931 241.956C583.011 241.956 583.476 242.601 583.476 244.131V249.111H584.856V243.951C584.856 241.881 584.076 240.771 582.366 240.771C581.241 240.771 580.416 241.386 579.666 242.121L579.711 240.441V237.186H578.346V249.111ZM589.587 249.321C591.507 249.321 592.542 248.226 592.542 246.891C592.542 245.346 591.252 244.866 590.067 244.416C589.137 244.086 588.312 243.786 588.312 243.006C588.312 242.376 588.777 241.836 589.812 241.836C590.532 241.836 591.117 242.151 591.672 242.556L592.332 241.686C591.702 241.176 590.802 240.771 589.797 240.771C588.027 240.771 586.992 241.776 586.992 243.066C586.992 244.461 588.237 245.001 589.362 245.436C590.262 245.766 591.237 246.141 591.237 246.966C591.237 247.686 590.697 248.256 589.617 248.256C588.642 248.256 587.922 247.851 587.217 247.281L586.542 248.196C587.307 248.826 588.432 249.321 589.587 249.321Z" fill="black"/>
<path d="M532.5 509.21C534.195 509.21 535.65 507.83 535.65 505.775C535.65 503.585 534.435 502.475 532.59 502.475C531.69 502.475 530.7 503.03 530.01 503.93L530.055 505.025C530.805 503.915 531.675 503.495 532.365 503.495C533.7 503.495 534.36 504.38 534.36 505.775C534.36 507.185 533.55 508.13 532.485 508.13C530.94 508.13 530.1 506.705 530.1 504.065C530.1 500.465 531.39 499.265 532.92 499.265C533.595 499.265 534.255 499.58 534.69 500.09L535.44 499.235C534.855 498.605 534.015 498.125 532.875 498.125C530.745 498.125 528.795 499.76 528.795 504.065C528.795 507.5 530.385 509.21 532.5 509.21ZM541.055 509H542.42V503.09C543.155 502.265 543.845 501.845 544.46 501.845C545.51 501.845 545.99 502.49 545.99 504.02V509H547.355V503.09C548.12 502.265 548.765 501.845 549.395 501.845C550.445 501.845 550.925 502.49 550.925 504.02V509H552.29V503.84C552.29 501.77 551.48 500.66 549.815 500.66C548.825 500.66 547.97 501.305 547.115 502.205C546.8 501.245 546.125 500.66 544.88 500.66C543.905 500.66 543.05 501.275 542.345 502.04H542.3L542.165 500.855H541.055V509ZM558.107 509.21C560.102 509.21 561.872 507.635 561.872 504.95C561.872 502.22 560.102 500.66 558.107 500.66C556.097 500.66 554.327 502.22 554.327 504.95C554.327 507.635 556.097 509.21 558.107 509.21ZM558.107 508.07C556.682 508.07 555.737 506.81 555.737 504.95C555.737 503.06 556.682 501.8 558.107 501.8C559.517 501.8 560.462 503.06 560.462 504.95C560.462 506.81 559.517 508.07 558.107 508.07ZM564.038 509H565.403V503.09C566.213 502.28 566.798 501.845 567.623 501.845C568.703 501.845 569.168 502.49 569.168 504.02V509H570.548V503.84C570.548 501.77 569.768 500.66 568.058 500.66C566.933 500.66 566.093 501.275 565.328 502.04H565.283L565.148 500.855H564.038V509ZM575.743 509.21C576.253 509.21 576.793 509.06 577.243 508.895L576.973 507.875C576.718 507.98 576.343 508.1 576.058 508.1C575.113 508.1 574.798 507.515 574.798 506.525V501.965H577.003V500.855H574.798V498.56H573.643L573.493 500.855L572.218 500.945V501.965H573.433V506.495C573.433 508.115 574.003 509.21 575.743 509.21ZM578.848 509H580.213V503.09C581.023 502.28 581.608 501.845 582.433 501.845C583.513 501.845 583.978 502.49 583.978 504.02V509H585.358V503.84C585.358 501.77 584.578 500.66 582.868 500.66C581.743 500.66 580.918 501.275 580.168 502.01L580.213 500.33V497.075H578.848V509ZM590.089 509.21C592.009 509.21 593.044 508.115 593.044 506.78C593.044 505.235 591.754 504.755 590.569 504.305C589.639 503.975 588.814 503.675 588.814 502.895C588.814 502.265 589.279 501.725 590.314 501.725C591.034 501.725 591.619 502.04 592.174 502.445L592.834 501.575C592.204 501.065 591.304 500.66 590.299 500.66C588.529 500.66 587.494 501.665 587.494 502.955C587.494 504.35 588.739 504.89 589.864 505.325C590.764 505.655 591.739 506.03 591.739 506.855C591.739 507.575 591.199 508.145 590.119 508.145C589.144 508.145 588.424 507.74 587.719 507.17L587.044 508.085C587.809 508.715 588.934 509.21 590.089 509.21Z" fill="black"/>
<path d="M531.098 34.0376H532.208V30.7676H535.253V29.7476H532.208V26.4626H531.098V29.7476H528.053V30.7676H531.098V34.0376ZM540.904 35.7776H542.194V25.0976H540.679L536.104 31.9226V32.8226H543.664V31.7426H537.544L540.049 28.0676C540.349 27.5426 540.649 27.0626 540.919 26.5676H540.994C540.949 27.1226 540.904 28.0526 540.904 28.6076V35.7776ZM548.993 39.3026C550.628 39.3026 551.468 38.0726 552.038 36.4676L555.113 27.6326H553.778L552.308 32.1626C552.098 32.8976 551.858 33.7076 551.633 34.4576H551.558C551.288 33.7076 551.018 32.8826 550.763 32.1626L549.098 27.6326H547.688L550.958 35.7926L550.778 36.4076C550.433 37.4126 549.848 38.1626 548.933 38.1626C548.708 38.1626 548.468 38.1026 548.318 38.0426L548.048 39.1376C548.303 39.2426 548.618 39.3026 548.993 39.3026ZM559.878 35.9876C560.988 35.9876 561.843 35.6126 562.563 35.1476L562.068 34.2326C561.468 34.6376 560.823 34.8926 560.043 34.8926C558.483 34.8926 557.433 33.7676 557.328 32.0426H562.818C562.863 31.8326 562.878 31.5476 562.878 31.2626C562.878 28.9226 561.708 27.4376 559.638 27.4376C557.763 27.4376 555.978 29.0726 555.978 31.7276C555.978 34.3976 557.703 35.9876 559.878 35.9876ZM557.313 31.0526C557.493 29.4476 558.513 28.5326 559.653 28.5326C560.943 28.5326 561.678 29.4176 561.678 31.0526H557.313ZM566.495 35.9876C567.5 35.9876 568.415 35.4626 569.18 34.8176H569.24L569.36 35.7776H570.485V30.7826C570.485 28.7576 569.645 27.4376 567.65 27.4376C566.345 27.4376 565.205 28.0076 564.455 28.4876L564.995 29.4476C565.625 29.0126 566.48 28.5626 567.44 28.5626C568.775 28.5626 569.105 29.5676 569.105 30.6176C565.64 31.0076 564.11 31.8926 564.11 33.6626C564.11 35.1326 565.13 35.9876 566.495 35.9876ZM566.87 34.8776C566.075 34.8776 565.445 34.5026 565.445 33.5726C565.445 32.5226 566.36 31.8476 569.105 31.5326V33.7976C568.325 34.5026 567.665 34.8776 566.87 34.8776ZM573.073 35.7776H574.438V30.5576C574.978 29.1626 575.818 28.6676 576.493 28.6676C576.823 28.6676 577.003 28.7126 577.288 28.8026L577.543 27.6026C577.273 27.4826 577.033 27.4376 576.673 27.4376C575.758 27.4376 574.918 28.0826 574.363 29.1176H574.318L574.183 27.6326H573.073V35.7776ZM580.916 35.9876C582.836 35.9876 583.871 34.8926 583.871 33.5576C583.871 32.0126 582.581 31.5326 581.396 31.0826C580.466 30.7526 579.641 30.4526 579.641 29.6726C579.641 29.0426 580.106 28.5026 581.141 28.5026C581.861 28.5026 582.446 28.8176 583.001 29.2226L583.661 28.3526C583.031 27.8426 582.131 27.4376 581.126 27.4376C579.356 27.4376 578.321 28.4426 578.321 29.7326C578.321 31.1276 579.566 31.6676 580.691 32.1026C581.591 32.4326 582.566 32.8076 582.566 33.6326C582.566 34.3526 582.026 34.9226 580.946 34.9226C579.971 34.9226 579.251 34.5176 578.546 33.9476L577.871 34.8626C578.636 35.4926 579.761 35.9876 580.916 35.9876Z" fill="black"/>
<path d="M635.108 539.966C635.499 539.576 635.499 538.943 635.108 538.552L628.744 532.188C628.354 531.798 627.72 531.798 627.33 532.188C626.939 532.579 626.939 533.212 627.33 533.602L632.987 539.259L627.33 544.916C626.939 545.307 626.939 545.94 627.33 546.33C627.72 546.721 628.354 546.721 628.744 546.33L635.108 539.966ZM505.602 540.259H634.401V538.259H505.602V540.259Z" fill="#C4C4C4"/>
<path d="M658.465 528.679H667.665V527.119H663.605C662.865 527.119 661.985 527.179 661.205 527.259C664.665 523.999 666.965 521.019 666.965 518.079C666.965 515.459 665.325 513.759 662.705 513.759C660.845 513.759 659.565 514.619 658.365 515.919L659.425 516.939C660.245 515.979 661.285 515.239 662.485 515.239C664.305 515.239 665.165 516.479 665.165 518.159C665.165 520.659 663.065 523.599 658.465 527.619V528.679ZM674.238 528.959C676.998 528.959 678.778 526.419 678.778 521.299C678.778 516.219 676.998 513.759 674.238 513.759C671.438 513.759 669.658 516.219 669.658 521.299C669.658 526.419 671.438 528.959 674.238 528.959ZM674.238 527.479C672.558 527.479 671.418 525.619 671.418 521.299C671.418 517.039 672.558 515.219 674.238 515.219C675.898 515.219 677.018 517.039 677.018 521.299C677.018 525.619 675.898 527.479 674.238 527.479ZM680.652 528.679H689.852V527.119H685.792C685.052 527.119 684.172 527.179 683.392 527.259C686.852 523.999 689.152 521.019 689.152 518.079C689.152 515.459 687.512 513.759 684.892 513.759C683.032 513.759 681.752 514.619 680.552 515.919L681.612 516.939C682.432 515.979 683.472 515.239 684.672 515.239C686.492 515.239 687.352 516.479 687.352 518.159C687.352 520.659 685.252 523.599 680.652 527.619V528.679ZM691.746 528.679H700.946V527.119H696.886C696.146 527.119 695.266 527.179 694.486 527.259C697.946 523.999 700.246 521.019 700.246 518.079C700.246 515.459 698.606 513.759 695.986 513.759C694.126 513.759 692.846 514.619 691.646 515.919L692.706 516.939C693.526 515.979 694.566 515.239 695.766 515.239C697.586 515.239 698.446 516.479 698.446 518.159C698.446 520.659 696.346 523.599 691.746 527.619V528.679Z" fill="black"/>
<path d="M425.339 528.679H434.539V527.119H430.479C429.739 527.119 428.859 527.179 428.079 527.259C431.539 523.999 433.839 521.019 433.839 518.079C433.839 515.459 432.199 513.759 429.579 513.759C427.719 513.759 426.439 514.619 425.239 515.919L426.299 516.939C427.119 515.979 428.159 515.239 429.359 515.239C431.179 515.239 432.039 516.479 432.039 518.159C432.039 520.659 429.939 523.599 425.339 527.619V528.679ZM441.113 528.959C443.873 528.959 445.653 526.419 445.653 521.299C445.653 516.219 443.873 513.759 441.113 513.759C438.313 513.759 436.533 516.219 436.533 521.299C436.533 526.419 438.313 528.959 441.113 528.959ZM441.113 527.479C439.433 527.479 438.293 525.619 438.293 521.299C438.293 517.039 439.433 515.219 441.113 515.219C442.773 515.219 443.893 517.039 443.893 521.299C443.893 525.619 442.773 527.479 441.113 527.479ZM447.527 528.679H456.727V527.119H452.667C451.927 527.119 451.047 527.179 450.267 527.259C453.727 523.999 456.027 521.019 456.027 518.079C456.027 515.459 454.387 513.759 451.767 513.759C449.907 513.759 448.627 514.619 447.427 515.919L448.487 516.939C449.307 515.979 450.347 515.239 451.547 515.239C453.367 515.239 454.227 516.479 454.227 518.159C454.227 520.659 452.127 523.599 447.527 527.619V528.679ZM458.62 528.679H467.82V527.119H463.76C463.02 527.119 462.14 527.179 461.36 527.259C464.82 523.999 467.12 521.019 467.12 518.079C467.12 515.459 465.48 513.759 462.86 513.759C461 513.759 459.72 514.619 458.52 515.919L459.58 516.939C460.4 515.979 461.44 515.239 462.64 515.239C464.46 515.239 465.32 516.479 465.32 518.159C465.32 520.659 463.22 523.599 458.62 527.619V528.679Z" fill="black"/>
<path d="M634.649 770.288C635.039 769.897 635.039 769.264 634.649 768.873L628.285 762.509C627.894 762.119 627.261 762.119 626.871 762.509C626.48 762.9 626.48 763.533 626.871 763.924L632.527 769.581L626.871 775.237C626.48 775.628 626.48 776.261 626.871 776.652C627.261 777.042 627.894 777.042 628.285 776.652L634.649 770.288ZM505.143 770.581H633.942V768.581H505.143V770.581Z" fill="#C4C4C4"/>
<path d="M662.165 759H664.045V745.9H668.465V744.34H657.745V745.9H662.165V759ZM673.615 759.28C676.275 759.28 678.635 757.18 678.635 753.6C678.635 749.96 676.275 747.88 673.615 747.88C670.935 747.88 668.575 749.96 668.575 753.6C668.575 757.18 670.935 759.28 673.615 759.28ZM673.615 757.76C671.715 757.76 670.455 756.08 670.455 753.6C670.455 751.08 671.715 749.4 673.615 749.4C675.495 749.4 676.755 751.08 676.755 753.6C676.755 756.08 675.495 757.76 673.615 757.76ZM685.204 759.28C686.524 759.28 687.664 758.58 688.524 757.72H688.564L688.724 759H690.224V743.1H688.404V747.26L688.484 749.14C687.544 748.34 686.704 747.88 685.444 747.88C682.964 747.88 680.724 750.06 680.724 753.6C680.724 757.22 682.484 759.28 685.204 759.28ZM685.604 757.74C683.704 757.74 682.624 756.18 682.624 753.58C682.624 751.1 684.004 749.4 685.744 749.4C686.644 749.4 687.484 749.72 688.404 750.56V756.26C687.504 757.24 686.624 757.74 685.604 757.74ZM696.426 759.28C697.766 759.28 698.986 758.58 700.006 757.72H700.086L700.246 759H701.746V752.34C701.746 749.64 700.626 747.88 697.966 747.88C696.226 747.88 694.706 748.64 693.706 749.28L694.426 750.56C695.266 749.98 696.406 749.38 697.686 749.38C699.466 749.38 699.906 750.72 699.906 752.12C695.286 752.64 693.246 753.82 693.246 756.18C693.246 758.14 694.606 759.28 696.426 759.28ZM696.926 757.8C695.866 757.8 695.026 757.3 695.026 756.06C695.026 754.66 696.246 753.76 699.906 753.34V756.36C698.866 757.3 697.986 757.8 696.926 757.8ZM705.356 763.7C707.536 763.7 708.656 762.06 709.416 759.92L713.516 748.14H711.736L709.776 754.18C709.496 755.16 709.176 756.24 708.876 757.24H708.776C708.416 756.24 708.056 755.14 707.716 754.18L705.496 748.14H703.616L707.976 759.02L707.736 759.84C707.276 761.18 706.496 762.18 705.276 762.18C704.976 762.18 704.656 762.1 704.456 762.02L704.096 763.48C704.436 763.62 704.856 763.7 705.356 763.7Z" fill="black"/>
<path d="M424.88 759H434.08V757.44H430.02C429.28 757.44 428.4 757.5 427.62 757.58C431.08 754.32 433.38 751.34 433.38 748.4C433.38 745.78 431.74 744.08 429.12 744.08C427.26 744.08 425.98 744.94 424.78 746.24L425.84 747.26C426.66 746.3 427.7 745.56 428.9 745.56C430.72 745.56 431.58 746.8 431.58 748.48C431.58 750.98 429.48 753.92 424.88 757.94V759ZM440.654 759.28C443.414 759.28 445.194 756.74 445.194 751.62C445.194 746.54 443.414 744.08 440.654 744.08C437.854 744.08 436.074 746.54 436.074 751.62C436.074 756.74 437.854 759.28 440.654 759.28ZM440.654 757.8C438.974 757.8 437.834 755.94 437.834 751.62C437.834 747.36 438.974 745.54 440.654 745.54C442.314 745.54 443.434 747.36 443.434 751.62C443.434 755.94 442.314 757.8 440.654 757.8ZM447.068 759H456.268V757.44H452.208C451.467 757.44 450.588 757.5 449.808 757.58C453.268 754.32 455.568 751.34 455.568 748.4C455.568 745.78 453.928 744.08 451.308 744.08C449.448 744.08 448.168 744.94 446.968 746.24L448.028 747.26C448.848 746.3 449.888 745.56 451.088 745.56C452.908 745.56 453.768 746.8 453.768 748.48C453.768 750.98 451.668 753.92 447.068 757.94V759ZM458.161 759H467.361V757.44H463.301C462.561 757.44 461.681 757.5 460.901 757.58C464.361 754.32 466.661 751.34 466.661 748.4C466.661 745.78 465.021 744.08 462.401 744.08C460.541 744.08 459.261 744.94 458.061 746.24L459.121 747.26C459.941 746.3 460.981 745.56 462.181 745.56C464.001 745.56 464.861 746.8 464.861 748.48C464.861 750.98 462.761 753.92 458.161 757.94V759Z" fill="black"/>
<circle cx="20" cy="56" r="20" fill="#2A3754"/>
<circle cx="20" cy="765.136" r="20" fill="#2A3754"/>
<circle cx="20" cy="291.062" r="20" fill="#2A3754"/>
<circle cx="20" cy="528.099" r="20" fill="#2A3754"/>
<circle cx="20" cy="113.519" r="4" fill="#C4C4C4"/>
<circle cx="20" cy="212.519" r="4" fill="#C4C4C4"/>
<circle cx="20" cy="243.519" r="4" fill="#C4C4C4"/>
<circle cx="20" cy="179.519" r="4" fill="#C4C4C4"/>
<circle cx="20" cy="146.519" r="4" fill="#C4C4C4"/>
<circle cx="20" cy="349.519" r="4" fill="#C4C4C4"/>
<circle cx="20" cy="448.519" r="4" fill="#C4C4C4"/>
<circle cx="20" cy="479.519" r="4" fill="#C4C4C4"/>
<circle cx="20" cy="415.519" r="4" fill="#C4C4C4"/>
<circle cx="20" cy="382.519" r="4" fill="#C4C4C4"/>
<circle cx="20" cy="575.519" r="4" fill="#C4C4C4"/>
<circle cx="20" cy="674.519" r="4" fill="#C4C4C4"/>
<circle cx="20" cy="705.519" r="4" fill="#C4C4C4"/>
<circle cx="20" cy="641.519" r="4" fill="#C4C4C4"/>
<circle cx="20" cy="608.519" r="4" fill="#C4C4C4"/>
</svg>
