<svg height="512" fill='white' viewBox="0 0 128 128" width="512" xmlns="http://www.w3.org/2000/svg"><g><path d="m106.237 38.5h-84.474a1.75 1.75 0 1 0 0 3.5h84.474a1.75 1.75 0 0 0 0-3.5z"/><path d="m106.237 47.752h-84.474a1.75 1.75 0 1 0 0 3.5h84.474a1.75 1.75 0 0 0 0-3.5z"/><path d="m95.5 57h-63a1.75 1.75 0 0 0 0 3.5h63a1.75 1.75 0 0 0 0-3.5z"/><path d="m53.83 78.435-6.643.169a7.824 7.824 0 0 0 -8.043-.914 3.928 3.928 0 0 0 -2.888-1.113 4.04 4.04 0 0 0 -3.414 2 .567.567 0 0 1 -1.049-.208l-.936-6.5a1.75 1.75 0 0 0 -3.244-.632l-7.362 12.621a1.75 1.75 0 0 0 3.024 1.764l4.833-8.285.221 1.529a4.067 4.067 0 0 0 7.527 1.488.55.55 0 0 1 .476-.278.534.534 0 0 1 .488.257l.4.616a1.75 1.75 0 0 0 2.465.485l.286-.2a4.3 4.3 0 0 1 5.388.407 1.647 1.647 0 0 0 1.248.478l7.313-.187a1.75 1.75 0 1 0 -.09-3.5z"/><path d="m126.25 20.5h-124.5a1.75 1.75 0 0 0 -1.75 1.75v83.494a1.75 1.75 0 0 0 1.75 1.75h79.675l-.617 10.781a1.75 1.75 0 0 0 2.718 1.556l6.529-4.356 6.528 4.356a1.75 1.75 0 0 0 2.719-1.556l-.617-10.781h27.565a1.75 1.75 0 0 0 1.75-1.75v-83.494a1.75 1.75 0 0 0 -1.75-1.75zm-40.25 65.406a1.723 1.723 0 0 0 -.4-.229l-4.719-1.953.668-5.064a1.763 1.763 0 0 0 0-.459l-.668-5.063 4.719-1.953a1.727 1.727 0 0 0 .4-.23l4.052-3.111 4.051 3.111a1.727 1.727 0 0 0 .4.23l4.72 1.953-.669 5.062a1.748 1.748 0 0 0 0 .457l.669 5.065-4.129 1.708-.59.244a1.738 1.738 0 0 0 -.4.229l-4.051 3.112zm11.58 2.285 4.222-1.747a1.747 1.747 0 0 0 1.066-1.845l-.814-6.168.814-6.168a1.749 1.749 0 0 0 -1.066-1.846l-5.747-2.378-4.934-3.789a1.752 1.752 0 0 0 -2.132 0l-4.934 3.789-5.748 2.378a1.75 1.75 0 0 0 -1.066 1.847l.814 6.167-.814 6.169a1.748 1.748 0 0 0 1.066 1.846l4.222 1.747-.447 7.8h-64.333a8.213 8.213 0 0 0 -6.249-6.248v-51.5a8.213 8.213 0 0 0 6.249-6.245h92.5a8.213 8.213 0 0 0 6.249 6.249v51.5a8.213 8.213 0 0 0 -6.249 6.249h-12.222zm-6.554 23.724a1.748 1.748 0 0 0 -1.943 0l-4.583 3.057 1.415-24.72 3.072 2.359a1.747 1.747 0 0 0 2.132 0l3.071-2.358.892 15.591.522 9.127zm33.474-7.921h-26.016l-.257-4.5h13.585a1.749 1.749 0 0 0 1.75-1.75 4.692 4.692 0 0 1 4.688-4.687 1.751 1.751 0 0 0 1.75-1.75v-54.619a1.75 1.75 0 0 0 -1.75-1.75 4.693 4.693 0 0 1 -4.688-4.688 1.749 1.749 0 0 0 -1.75-1.75h-95.625a1.75 1.75 0 0 0 -1.75 1.75 4.693 4.693 0 0 1 -4.687 4.688 1.75 1.75 0 0 0 -1.75 1.75v54.619a1.751 1.751 0 0 0 1.75 1.75 4.692 4.692 0 0 1 4.687 4.687 1.75 1.75 0 0 0 1.75 1.75h65.7l-.258 4.5h-78.129v-79.994h121z"/><circle cx="90.055" cy="78.431" r="3.75"/></g></svg>