<?xml version="1.0" standalone="no"?>
<!DOCTYPE svg PUBLIC "-//W3C//DTD SVG 20010904//EN"
 "http://www.w3.org/TR/2001/REC-SVG-20010904/DTD/svg10.dtd">
<svg version="1.0" xmlns="http://www.w3.org/2000/svg"
 width="512.000000pt" height="512.000000pt" viewBox="0 0 512.000000 512.000000"
 preserveAspectRatio="xMidYMid meet">

<g transform="translate(0.000000,512.000000) scale(0.100000,-0.100000)"
fill="#000000" stroke="none">
<path d="M1120 4400 l0 -560 80 0 80 0 0 80 0 80 1600 0 1600 0 0 -1840 0
-1840 -1600 0 -1600 0 0 880 0 880 -80 0 -80 0 0 -960 0 -960 1760 0 1760 0 0
2400 0 2400 -1760 0 -1760 0 0 -560z m320 320 l0 -80 -80 0 -80 0 0 80 0 80
80 0 80 0 0 -80z m320 0 l0 -80 -80 0 -80 0 0 80 0 80 80 0 80 0 0 -80z m320
0 l0 -80 -80 0 -80 0 0 80 0 80 80 0 80 0 0 -80z m1440 -400 l0 -160 -1120 0
-1120 0 0 160 0 160 1120 0 1120 0 0 -160z m960 0 l0 -160 -400 0 -400 0 0
160 0 160 400 0 400 0 0 -160z"/>
<path d="M480 2960 l0 -720 960 0 960 0 0 720 0 720 -960 0 -960 0 0 -720z
m568 385 c67 -20 145 -83 182 -148 16 -28 30 -58 30 -64 0 -9 -22 -13 -79 -13
-76 0 -79 1 -115 35 -80 75 -210 49 -252 -52 -21 -48 -19 -245 2 -289 48 -100
170 -124 250 -49 36 34 39 35 115 35 48 0 79 -4 79 -10 0 -26 -52 -110 -90
-144 -67 -60 -122 -81 -215 -81 -102 1 -165 27 -233 99 -74 78 -87 122 -87
296 0 172 13 217 84 293 89 96 206 128 329 92z m746 -52 c-7 -38 -13 -74 -14
-80 0 -9 22 -13 79 -13 l78 0 12 63 c20 104 12 97 102 97 l79 0 -6 -27 c-3
-16 -10 -44 -15 -63 -18 -69 -17 -70 66 -70 85 0 82 5 62 -95 l-13 -60 -81 -3
-81 -3 -11 -62 c-7 -34 -14 -70 -17 -79 -5 -16 3 -18 76 -18 80 0 82 -1 77
-22 -3 -13 -11 -49 -17 -80 l-11 -58 -80 0 c-88 0 -77 11 -99 -102 l-11 -58
-80 0 c-43 0 -79 2 -79 5 0 4 16 85 26 133 4 21 2 22 -75 22 -89 0 -80 9 -101
-97 l-13 -63 -78 0 c-44 0 -79 2 -79 5 0 4 16 85 26 133 4 21 2 22 -77 22 -79
0 -81 1 -76 23 3 12 11 48 17 80 l11 57 80 0 c88 0 77 -10 99 90 16 73 18 70
-69 70 l-79 0 17 78 17 77 81 3 81 3 11 62 c20 104 13 97 100 97 l78 0 -13
-67z"/>
<path d="M1731 2978 c-7 -35 -14 -71 -17 -80 -5 -16 3 -18 75 -18 90 0 79 -10
101 90 16 73 18 70 -69 70 l-78 0 -12 -62z"/>
<path d="M3145 2066 c-62 -20 -97 -41 -142 -88 -73 -75 -86 -118 -93 -313 -3
-113 -10 -178 -19 -195 -7 -14 -50 -62 -94 -107 l-81 -82 82 -84 c45 -46 87
-97 93 -113 7 -16 15 -103 19 -194 7 -192 20 -234 97 -312 67 -68 126 -91 251
-96 l102 -4 0 80 0 80 -92 4 c-78 2 -98 7 -126 26 -58 42 -66 69 -72 252 -5
152 -8 170 -33 223 -14 32 -40 76 -57 97 -16 21 -30 41 -30 45 0 4 14 23 31
43 18 20 44 61 58 92 23 50 26 70 31 220 6 188 16 218 86 257 31 18 55 23 122
23 l82 0 0 80 0 80 -87 -1 c-49 0 -106 -6 -128 -13z"/>
<path d="M3680 2001 l0 -81 83 0 c104 0 151 -23 185 -90 20 -40 22 -59 22
-185 0 -169 12 -217 76 -311 l45 -65 -32 -37 c-18 -20 -44 -61 -58 -92 -23
-50 -26 -70 -31 -220 -6 -188 -16 -218 -86 -257 -31 -18 -55 -23 -121 -23
l-83 0 0 -81 0 -81 103 4 c124 5 183 28 250 96 78 79 90 120 97 317 7 200 6
199 115 310 l76 77 -80 83 c-44 45 -86 95 -92 111 -7 16 -15 103 -19 194 -8
193 -21 238 -98 313 -70 69 -126 90 -249 95 l-103 4 0 -81z"/>
</g>
</svg>
