<?xml version="1.0" standalone="no"?>
<!DOCTYPE svg PUBLIC "-//W3C//DTD SVG 20010904//EN"
 "http://www.w3.org/TR/2001/REC-SVG-20010904/DTD/svg10.dtd">
<svg version="1.0" xmlns="http://www.w3.org/2000/svg"
 width="512.000000pt" height="512.000000pt" viewBox="0 0 512.000000 512.000000"
 preserveAspectRatio="xMidYMid meet">

<g transform="translate(0.000000,512.000000) scale(0.100000,-0.100000)"
fill="#FFFFFF" stroke="none">
<path d="M2290 5113 c-200 -14 -445 -64 -615 -123 -188 -67 -413 -199 -543
-319 -48 -45 -53 -53 -50 -87 4 -45 43 -80 80 -71 13 4 52 31 88 62 223 193
521 318 885 372 147 21 559 24 705 5 514 -68 929 -250 1247 -546 70 -65 181
-192 217 -248 l17 -27 -78 -52 c-43 -28 -84 -59 -90 -67 -19 -23 -16 -76 5
-95 40 -36 62 -31 177 41 130 81 165 112 165 144 0 75 -213 337 -401 494 -409
341 -992 530 -1617 522 -81 -1 -167 -3 -192 -5z"/>
<path d="M2310 4814 c-19 -2 -78 -9 -130 -15 -619 -70 -1053 -407 -1219 -945
-86 -280 -78 -560 24 -844 152 -420 489 -707 972 -830 175 -44 294 -60 332
-44 35 15 49 53 35 93 -11 32 -42 42 -209 71 -475 83 -811 330 -970 714 -111
269 -123 555 -34 820 191 572 702 860 1479 832 404 -14 730 -100 1009 -268
128 -76 285 -200 270 -211 -2 -2 -57 -43 -123 -93 -65 -49 -136 -102 -158
-119 l-39 -30 -32 19 c-164 97 -357 180 -513 222 -467 124 -882 80 -1145 -122
-162 -124 -259 -334 -245 -526 25 -343 316 -599 746 -657 41 -5 154 -12 250
-16 294 -10 468 -36 658 -96 500 -161 777 -529 799 -1064 9 -222 -32 -400
-137 -604 -181 -350 -496 -554 -972 -628 -140 -22 -524 -24 -668 -5 -330 46
-610 146 -841 301 -111 73 -202 148 -197 161 2 5 44 39 93 76 50 37 120 91
157 121 l68 55 77 -45 c443 -260 987 -343 1388 -212 490 160 673 648 380 1017
-146 185 -442 307 -746 308 -97 0 -122 -14 -122 -71 0 -57 28 -71 159 -80 140
-10 203 -22 307 -59 267 -98 424 -321 388 -551 -73 -454 -790 -616 -1463 -331
-64 27 -170 81 -236 121 -65 39 -128 71 -138 71 -23 0 -45 -14 -144 -96 -41
-33 -137 -107 -213 -163 -76 -56 -143 -113 -149 -126 -6 -13 -8 -35 -4 -48 6
-26 129 -142 231 -218 369 -277 869 -416 1420 -395 341 12 582 67 816 187 257
132 466 355 580 620 90 208 124 380 116 594 -26 674 -420 1122 -1107 1259
-162 32 -273 44 -500 51 -292 10 -439 44 -588 135 -353 218 -345 661 15 848
266 138 634 143 1022 13 122 -41 300 -125 406 -192 91 -57 102 -55 231 49 61
48 165 127 232 175 173 125 177 138 73 239 -280 268 -655 443 -1094 509 -126
19 -506 34 -597 23z"/>
<path d="M922 4412 c-47 -7 -179 -252 -240 -442 -63 -198 -77 -288 -77 -490 0
-153 4 -205 23 -298 136 -675 578 -1125 1272 -1296 223 -55 340 -69 715 -86
150 -7 205 -13 260 -30 219 -69 294 -210 173 -327 -76 -72 -167 -106 -334
-123 -343 -35 -750 104 -1067 364 -92 76 -106 75 -199 -11 -178 -163 -406
-339 -665 -512 -177 -117 -182 -125 -140 -205 41 -78 122 -181 226 -288 314
-326 750 -543 1256 -627 374 -63 805 -50 1134 34 115 29 155 46 165 70 12 31
6 65 -15 86 -25 25 -62 23 -184 -9 -202 -53 -450 -77 -700 -69 -404 15 -724
91 -1039 248 -253 127 -488 318 -641 521 -25 33 -45 63 -44 66 0 4 53 42 118
84 158 104 329 233 485 364 70 60 133 113 140 118 8 5 40 -12 91 -51 325 -242
734 -366 1095 -333 247 23 424 118 497 268 95 195 -54 410 -336 483 -55 15
-134 23 -291 30 -118 5 -275 16 -349 24 -806 89 -1321 515 -1473 1218 -32 147
-32 420 0 560 40 181 120 379 212 523 35 56 37 73 10 106 -21 28 -42 36 -78
30z"/>
<path d="M2386 3949 c-218 -25 -378 -114 -443 -247 -23 -46 -28 -70 -28 -127
0 -136 81 -247 236 -324 117 -58 226 -77 524 -90 321 -14 486 -41 705 -113
524 -172 854 -545 960 -1085 27 -137 37 -369 21 -484 -64 -443 -293 -820 -634
-1041 -110 -71 -114 -75 -121 -104 -8 -31 14 -70 49 -86 30 -14 89 15 210 100
251 178 463 473 569 792 66 197 80 291 81 510 0 203 -8 269 -51 442 -35 139
-68 227 -135 359 -189 367 -528 633 -974 763 -207 60 -435 92 -730 101 -280
10 -415 45 -503 133 -130 130 -43 281 195 339 100 24 298 22 440 -6 256 -49
511 -169 722 -340 88 -71 99 -69 208 27 48 42 132 113 186 157 55 43 103 89
108 102 17 45 -18 94 -69 95 -32 1 -77 -30 -242 -171 -52 -44 -98 -81 -103
-81 -4 0 -40 24 -80 53 -251 185 -544 297 -852 327 -113 11 -151 11 -249 -1z"/>
</g>
</svg>
